<svg version="1.1" viewBox="0.0 0.0 960.0 540.0" fill="none" stroke="none" stroke-linecap="square" stroke-miterlimit="10" xmlns:xlink="http://www.w3.org/1999/xlink" xmlns="http://www.w3.org/2000/svg"><clipPath id="g260ca5988d4_0_319.0"><path d="m0 0l960.0 0l0 540.0l-960.0 0l0 -540.0z" clip-rule="nonzero"/></clipPath><g clip-path="url(#g260ca5988d4_0_319.0)"><path fill="#ffffff" d="m0 0l960.0 0l0 540.0l-960.0 0z" fill-rule="evenodd"/><path fill="#ffffff" d="m480.98694 264.04987l138.2992 0l0 46.393707l-138.2992 0z" fill-rule="evenodd"/><path stroke="#212121" stroke-width="1.0" stroke-linejoin="round" stroke-linecap="butt" d="m480.98694 264.04987l138.2992 0l0 46.393707l-138.2992 0z" fill-rule="evenodd"/><path fill="#212121" d="m496.6415 294.16672l0 -12.90625l2.59375 0l3.65625 10.90625l3.671875 -10.90625l2.578125 0l0 12.90625l-1.421875 0l0 -11.375l-0.265625 0l-3.75 10.90625l-1.609375 0l-3.75 -10.90625l-0.265625 0l0 11.375l-1.4375 0zm21.687286 -1.15625l0.546875 -0.0625l0.03125 1.109375q-2.125 0.296875 -3.640625 0.296875q-2.015625 0 -2.859375 -1.15625q-0.828125 -1.171875 -0.828125 -3.640625q0 -4.90625 3.890625 -4.90625q1.890625 0 2.8125 1.0625q0.9375 1.046875 0.9375 3.296875l-0.078125 1.078125l-6.15625 0q0 1.546875 0.5625 2.296875q0.5625 0.734375 1.953125 0.734375q1.390625 0 2.828125 -0.109375zm-0.5 -4.046875q0 -1.71875 -0.5625 -2.421875q-0.546875 -0.71875 -1.796875 -0.71875q-1.234375 0 -1.859375 0.75q-0.625 0.75 -0.640625 2.390625l4.859375 0zm10.155762 -1.3125l0 4.78125q0.0625 0.6875 1.09375 0.8125l-0.0625 1.109375q-1.46875 0 -2.21875 -0.75q-1.671875 0.75 -3.359375 0.75q-1.28125 0 -1.953125 -0.71875q-0.671875 -0.734375 -0.671875 -2.09375q0 -1.375 0.6875 -2.015625q0.6875 -0.640625 2.15625 -0.78125l2.9375 -0.28125l0 -0.8125q0 -0.953125 -0.421875 -1.359375q-0.40625 -0.40625 -1.109375 -0.40625q-1.5 0 -3.09375 0.1875l-0.578125 0.046875l-0.0625 -1.0625q2.0625 -0.40625 3.640625 -0.40625q1.59375 0 2.296875 0.734375q0.71875 0.71875 0.71875 2.265625zm-5.734375 3.8125q0 1.71875 1.40625 1.71875q1.28125 0 2.5 -0.4375l0.4375 -0.140625l0 -3.078125l-2.765625 0.25q-0.84375 0.078125 -1.21875 0.5q-0.359375 0.40625 -0.359375 1.1875zm11.424927 -5.5625q-2.03125 0 -2.03125 1.421875q0 0.65625 0.46875 0.921875q0.46875 0.265625 2.125 0.5625q1.671875 0.28125 2.359375 0.8125q0.6875 0.515625 0.6875 1.953125q0 1.4375 -0.921875 2.109375q-0.921875 0.671875 -2.703125 0.671875q-1.15625 0 -2.71875 -0.265625l-0.5625 -0.09375l0.078125 -1.203125q2.125 0.3125 3.203125 0.3125q1.078125 0 1.640625 -0.34375q0.578125 -0.34375 0.578125 -1.15625q0 -0.8125 -0.484375 -1.09375q-0.484375 -0.296875 -2.125 -0.5625q-1.640625 -0.265625 -2.328125 -0.765625q-0.6875 -0.5 -0.6875 -1.859375q0 -1.359375 0.953125 -2.015625q0.96875 -0.65625 2.40625 -0.65625q1.125 0 2.84375 0.265625l0.53125 0.09375l-0.046875 1.1875q-2.0625 -0.296875 -3.265625 -0.296875zm11.565796 -1.0625l1.40625 0l0 9.328125l-1.40625 0l0 -0.65625q-1.390625 0.84375 -2.75 0.84375q-1.90625 0 -2.53125 -0.984375q-0.625 -1.0 -0.625 -3.65625l0 -4.875l1.40625 0l0 4.84375q0 2.046875 0.34375 2.734375q0.359375 0.6875 1.609375 0.6875q0.609375 0 1.25 -0.171875q0.640625 -0.1875 0.96875 -0.34375l0.328125 -0.171875l0 -7.578125zm4.093933 9.328125l0 -9.328125l1.375 0l0 1.265625q1.625 -1.109375 3.421875 -1.46875l0 1.421875q-0.78125 0.140625 -1.640625 0.46875q-0.84375 0.3125 -1.296875 0.546875l-0.453125 0.25l0 6.84375l-1.40625 0zm12.612183 -1.15625l0.546875 -0.0625l0.03125 1.109375q-2.125 0.296875 -3.640625 0.296875q-2.015625 0 -2.859375 -1.15625q-0.828125 -1.171875 -0.828125 -3.640625q0 -4.90625 3.890625 -4.90625q1.890625 0 2.8125 1.0625q0.9375 1.046875 0.9375 3.296875l-0.078125 1.078125l-6.15625 0q0 1.546875 0.5625 2.296875q0.5625 0.734375 1.953125 0.734375q1.390625 0 2.828125 -0.109375zm-0.5 -4.046875q0 -1.71875 -0.5625 -2.421875q-0.546875 -0.71875 -1.796875 -0.71875q-1.234375 0 -1.859375 0.75q-0.625 0.75 -0.640625 2.390625l4.859375 0zm4.9838867 5.203125l-1.40625 0l0 -9.328125l1.375 0l0 0.65625q1.40625 -0.84375 2.734375 -0.84375q1.734375 0 2.421875 0.953125q0.609375 -0.375 1.59375 -0.65625q0.984375 -0.296875 1.71875 -0.296875q1.875 0 2.515625 1.0q0.640625 1.0 0.640625 3.59375l0 4.921875l-1.390625 0l0 -4.890625q0 -1.9375 -0.375 -2.65625q-0.375 -0.71875 -1.59375 -0.71875q-0.609375 0 -1.265625 0.1875q-0.65625 0.171875 -1.0 0.328125l-0.359375 0.171875q0.234375 0.625 0.234375 2.734375l0 4.84375l-1.390625 0l0 -4.8125q0 -2.015625 -0.375 -2.734375q-0.359375 -0.71875 -1.578125 -0.71875q-0.609375 0 -1.234375 0.1875q-0.625 0.171875 -0.953125 0.328125l-0.3125 0.171875l0 7.578125zm20.534119 -1.15625l0.546875 -0.0625l0.03125 1.109375q-2.125 0.296875 -3.640625 0.296875q-2.015625 0 -2.859375 -1.15625q-0.828125 -1.171875 -0.828125 -3.640625q0 -4.90625 3.890625 -4.90625q1.890625 0 2.8125 1.0625q0.9375 1.046875 0.9375 3.296875l-0.078125 1.078125l-6.15625 0q0 1.546875 0.5625 2.296875q0.5625 0.734375 1.953125 0.734375q1.390625 0 2.828125 -0.109375zm-0.5 -4.046875q0 -1.71875 -0.5625 -2.421875q-0.546875 -0.71875 -1.796875 -0.71875q-1.234375 0 -1.859375 0.75q-0.625 0.75 -0.640625 2.390625l4.859375 0zm4.9838867 5.203125l-1.40625 0l0 -9.328125l1.375 0l0 0.65625q1.515625 -0.84375 2.890625 -0.84375q1.875 0 2.515625 1.015625q0.640625 1.0 0.640625 3.578125l0 4.921875l-1.375 0l0 -4.890625q0 -1.9375 -0.390625 -2.65625q-0.375 -0.71875 -1.625 -0.71875q-0.59375 0 -1.265625 0.1875q-0.65625 0.171875 -1.015625 0.328125l-0.34375 0.171875l0 7.578125zm13.384277 -8.109375l-2.96875 0l0 4.453125q0 1.609375 0.234375 2.109375q0.234375 0.5 1.109375 0.5l1.671875 -0.109375l0.09375 1.15625q-1.25 0.203125 -1.90625 0.203125q-1.453125 0 -2.015625 -0.703125q-0.5625 -0.71875 -0.5625 -2.703125l0 -4.90625l-1.328125 0l0 -1.21875l1.328125 0l0 -2.859375l1.375 0l0 2.859375l2.96875 0l0 1.21875z" fill-rule="nonzero"/><path fill="#ffffff" d="m634.55383 264.04987l125.00787 0l0 46.393707l-125.00787 0z" fill-rule="evenodd"/><path stroke="#212121" stroke-width="1.0" stroke-linejoin="round" stroke-linecap="butt" d="m634.55383 264.04987l125.00787 0l0 46.393707l-125.00787 0z" fill-rule="evenodd"/><path fill="#212121" d="m664.9558 294.16672l3.546875 -12.90625l3.125 0l3.546875 12.90625l-1.421875 0l-0.921875 -3.328125l-5.53125 0l-0.9375 3.328125l-1.40625 0zm4.625 -11.671875l-1.96875 7.0625l4.890625 0l-1.953125 -7.0625l-0.96875 0zm8.790955 11.671875l-1.40625 0l0 -9.328125l1.375 0l0 0.65625q1.515625 -0.84375 2.890625 -0.84375q1.875 0 2.515625 1.015625q0.640625 1.0 0.640625 3.578125l0 4.921875l-1.375 0l0 -4.890625q0 -1.9375 -0.390625 -2.65625q-0.375 -0.71875 -1.625 -0.71875q-0.59375 0 -1.265625 0.1875q-0.65625 0.171875 -1.015625 0.328125l-0.34375 0.171875l0 7.578125zm15.190308 -6.515625l0 4.78125q0.0625 0.6875 1.09375 0.8125l-0.0625 1.109375q-1.46875 0 -2.21875 -0.75q-1.671875 0.75 -3.359375 0.75q-1.28125 0 -1.953125 -0.71875q-0.671875 -0.734375 -0.671875 -2.09375q0 -1.375 0.6875 -2.015625q0.6875 -0.640625 2.15625 -0.78125l2.9375 -0.28125l0 -0.8125q0 -0.953125 -0.421875 -1.359375q-0.40625 -0.40625 -1.109375 -0.40625q-1.5 0 -3.09375 0.1875l-0.578125 0.046875l-0.0625 -1.0625q2.0625 -0.40625 3.640625 -0.40625q1.59375 0 2.296875 0.734375q0.71875 0.71875 0.71875 2.265625zm-5.734375 3.8125q0 1.71875 1.40625 1.71875q1.28125 0 2.5 -0.4375l0.4375 -0.140625l0 -3.078125l-2.765625 0.25q-0.84375 0.078125 -1.21875 0.5q-0.359375 0.40625 -0.359375 1.1875zm8.612427 2.703125l0 -13.390625l1.40625 0l0 13.390625l-1.40625 0zm3.3251953 -9.328125l1.390625 0l2.34375 8.109375l0.609375 0l2.34375 -8.109375l1.40625 0l-3.875 13.46875l-1.40625 0l1.21875 -4.140625l-1.390625 0l-2.640625 -9.328125zm12.677185 1.0625q-2.03125 0 -2.03125 1.421875q0 0.65625 0.46875 0.921875q0.46875 0.265625 2.125 0.5625q1.671875 0.28125 2.359375 0.8125q0.6875 0.515625 0.6875 1.953125q0 1.4375 -0.921875 2.109375q-0.921875 0.671875 -2.703125 0.671875q-1.15625 0 -2.71875 -0.265625l-0.5625 -0.09375l0.078125 -1.203125q2.125 0.3125 3.203125 0.3125q1.078125 0 1.640625 -0.34375q0.578125 -0.34375 0.578125 -1.15625q0 -0.8125 -0.484375 -1.09375q-0.484375 -0.296875 -2.125 -0.5625q-1.640625 -0.265625 -2.328125 -0.765625q-0.6875 -0.5 -0.6875 -1.859375q0 -1.359375 0.953125 -2.015625q0.96875 -0.65625 2.40625 -0.65625q1.125 0 2.84375 0.265625l0.53125 0.09375l-0.046875 1.1875q-2.0625 -0.296875 -3.265625 -0.296875zm5.753296 8.265625l0 -9.328125l1.40625 0l0 9.328125l-1.40625 0zm0 -11.4375l0 -1.625l1.40625 0l0 1.625l-1.40625 0zm7.0075684 3.171875q-2.03125 0 -2.03125 1.421875q0 0.65625 0.46875 0.921875q0.46875 0.265625 2.125 0.5625q1.671875 0.28125 2.359375 0.8125q0.6875 0.515625 0.6875 1.953125q0 1.4375 -0.921875 2.109375q-0.921875 0.671875 -2.703125 0.671875q-1.15625 0 -2.71875 -0.265625l-0.5625 -0.09375l0.078125 -1.203125q2.125 0.3125 3.203125 0.3125q1.078125 0 1.640625 -0.34375q0.578125 -0.34375 0.578125 -1.15625q0 -0.8125 -0.484375 -1.09375q-0.484375 -0.296875 -2.125 -0.5625q-1.640625 -0.265625 -2.328125 -0.765625q-0.6875 -0.5 -0.6875 -1.859375q0 -1.359375 0.953125 -2.015625q0.96875 -0.65625 2.40625 -0.65625q1.125 0 2.84375 0.265625l0.53125 0.09375l-0.046875 1.1875q-2.0625 -0.296875 -3.265625 -0.296875z" fill-rule="nonzero"/><path fill="#000000" fill-opacity="0.0" d="m697.0578 264.04987l0 -52.981674l-224.0315 0l0 -52.971085" fill-rule="evenodd"/><path stroke="#212121" stroke-width="1.0" stroke-linejoin="round" stroke-linecap="butt" d="m697.0578 264.04987l0 -52.98166l-224.03152 0l0 -45.4711" fill-rule="evenodd"/><path stroke="#212121" stroke-width="1.0" stroke-linecap="butt" d="m475.22397 165.5971l-2.1976929 -6.038086l-2.1976624 6.038086z" fill-rule="evenodd"/><path fill="#ffffff" d="m340.71265 264.04987l125.00787 0l0 46.393707l-125.00787 0z" fill-rule="evenodd"/><path stroke="#212121" stroke-width="1.0" stroke-linejoin="round" stroke-linecap="butt" d="m340.71265 264.04987l125.00787 0l0 46.393707l-125.00787 0z" fill-rule="evenodd"/><path fill="#212121" d="m378.54114 289.82297l-3.296875 0l0 4.34375l-1.4375 0l0 -12.90625l4.734375 0q2.09375 0 3.09375 1.03125q1.015625 1.015625 1.015625 3.125q0 4.40625 -4.109375 4.40625zm-3.296875 -1.265625l3.265625 0q2.671875 0 2.671875 -3.140625q0 -1.5 -0.640625 -2.1875q-0.625 -0.703125 -2.03125 -0.703125l-3.265625 0l0 6.03125zm9.391296 5.609375l0 -9.328125l1.375 0l0 1.265625q1.625 -1.109375 3.421875 -1.46875l0 1.421875q-0.78125 0.140625 -1.640625 0.46875q-0.84375 0.3125 -1.296875 0.546875l-0.453125 0.25l0 6.84375l-1.40625 0zm5.8621216 -4.671875q0 -2.5625 0.90625 -3.703125q0.921875 -1.140625 3.09375 -1.140625q2.171875 0 3.078125 1.140625q0.90625 1.140625 0.90625 3.703125q0 2.546875 -0.859375 3.703125q-0.859375 1.15625 -3.140625 1.15625q-2.265625 0 -3.125 -1.15625q-0.859375 -1.15625 -0.859375 -3.703125zm1.4375 -0.03125q0 2.03125 0.484375 2.859375q0.5 0.8125 2.078125 0.8125q1.578125 0 2.0625 -0.8125q0.484375 -0.8125 0.484375 -2.859375q0 -2.046875 -0.546875 -2.8125q-0.53125 -0.78125 -2.0 -0.78125q-1.46875 0 -2.015625 0.78125q-0.546875 0.765625 -0.546875 2.8125zm12.30365 -4.8125q0.625 0 2.09375 0.21875l0.453125 0.0625l-0.0625 1.140625q-1.484375 -0.171875 -2.203125 -0.171875q-1.578125 0 -2.15625 0.765625q-0.5625 0.75 -0.5625 2.796875q0 2.03125 0.53125 2.84375q0.53125 0.796875 2.203125 0.796875l2.203125 -0.171875l0.0625 1.15625q-1.734375 0.265625 -2.59375 0.265625q-2.1875 0 -3.015625 -1.109375q-0.828125 -1.125 -0.828125 -3.78125q0 -2.671875 0.890625 -3.734375q0.90625 -1.078125 2.984375 -1.078125zm10.88147 8.359375l0.546875 -0.0625l0.03125 1.109375q-2.125 0.296875 -3.640625 0.296875q-2.015625 0 -2.859375 -1.15625q-0.828125 -1.171875 -0.828125 -3.640625q0 -4.90625 3.890625 -4.90625q1.890625 0 2.8125 1.0625q0.9375 1.046875 0.9375 3.296875l-0.078125 1.078125l-6.15625 0q0 1.546875 0.5625 2.296875q0.5625 0.734375 1.953125 0.734375q1.390625 0 2.828125 -0.109375zm-0.5 -4.046875q0 -1.71875 -0.5625 -2.421875q-0.546875 -0.71875 -1.796875 -0.71875q-1.234375 0 -1.859375 0.75q-0.625 0.75 -0.640625 2.390625l4.859375 0zm6.499542 -3.0625q-2.03125 0 -2.03125 1.421875q0 0.65625 0.46875 0.921875q0.46875 0.265625 2.125 0.5625q1.671875 0.28125 2.359375 0.8125q0.6875 0.515625 0.6875 1.953125q0 1.4375 -0.921875 2.109375q-0.921875 0.671875 -2.703125 0.671875q-1.15625 0 -2.71875 -0.265625l-0.5625 -0.09375l0.078125 -1.203125q2.125 0.3125 3.203125 0.3125q1.078125 0 1.640625 -0.34375q0.578125 -0.34375 0.578125 -1.15625q0 -0.8125 -0.484375 -1.09375q-0.484375 -0.296875 -2.125 -0.5625q-1.640625 -0.265625 -2.328125 -0.765625q-0.6875 -0.5 -0.6875 -1.859375q0 -1.359375 0.953125 -2.015625q0.96875 -0.65625 2.40625 -0.65625q1.125 0 2.84375 0.265625l0.53125 0.09375l-0.046875 1.1875q-2.0625 -0.296875 -3.265625 -0.296875zm8.67514 0q-2.03125 0 -2.03125 1.421875q0 0.65625 0.46875 0.921875q0.46875 0.265625 2.125 0.5625q1.671875 0.28125 2.359375 0.8125q0.6875 0.515625 0.6875 1.953125q0 1.4375 -0.921875 2.109375q-0.921875 0.671875 -2.703125 0.671875q-1.15625 0 -2.71875 -0.265625l-0.5625 -0.09375l0.078125 -1.203125q2.125 0.3125 3.203125 0.3125q1.078125 0 1.640625 -0.34375q0.578125 -0.34375 0.578125 -1.15625q0 -0.8125 -0.484375 -1.09375q-0.484375 -0.296875 -2.125 -0.5625q-1.640625 -0.265625 -2.328125 -0.765625q-0.6875 -0.5 -0.6875 -1.859375q0 -1.359375 0.953125 -2.015625q0.96875 -0.65625 2.40625 -0.65625q1.125 0 2.84375 0.265625l0.53125 0.09375l-0.046875 1.1875q-2.0625 -0.296875 -3.265625 -0.296875z" fill-rule="nonzero"/><path fill="#000000" fill-opacity="0.0" d="m403.21658 264.04987l0 -52.981674l69.79529 0l0 -52.971085" fill-rule="evenodd"/><path stroke="#212121" stroke-width="1.0" stroke-linejoin="round" stroke-linecap="butt" d="m403.21658 264.04987l0 -52.98166l69.79526 0l0 -45.4711" fill-rule="evenodd"/><path stroke="#212121" stroke-width="1.0" stroke-linecap="butt" d="m475.20953 165.5971l-2.1976929 -6.038086l-2.1976624 6.038086z" fill-rule="evenodd"/><path fill="#ffffff" d="m410.5095 111.69685l125.007904 0l0 46.393692l-125.007904 0z" fill-rule="evenodd"/><path stroke="#212121" stroke-width="1.0" stroke-linejoin="round" stroke-linecap="butt" d="m410.5095 111.69685l125.007904 0l0 46.393692l-125.007904 0z" fill-rule="evenodd"/><path fill="#212121" d="m444.26956 141.8137l3.546875 -12.90625l3.125 0l3.546875 12.90625l-1.421875 0l-0.921875 -3.328125l-5.53125 0l-0.9375 3.328125l-1.40625 0zm4.625 -11.671875l-1.96875 7.0625l4.890625 0l-1.953125 -7.0625l-0.96875 0zm10.757111 2.15625q0.625 0 2.09375 0.21875l0.453125 0.0625l-0.0625 1.140625q-1.484375 -0.171875 -2.203125 -0.171875q-1.578125 0 -2.15625 0.765625q-0.5625 0.75 -0.5625 2.796875q0 2.03125 0.53125 2.84375q0.53125 0.796875 2.203125 0.796875l2.203125 -0.171875l0.0625 1.15625q-1.734375 0.265625 -2.59375 0.265625q-2.1875 0 -3.015625 -1.109375q-0.828125 -1.125 -0.828125 -3.78125q0 -2.671875 0.890625 -3.734375q0.90625 -1.078125 2.984375 -1.078125zm9.477875 1.40625l-2.96875 0l0 4.453125q0 1.609375 0.234375 2.109375q0.234375 0.5 1.109375 0.5l1.671875 -0.109375l0.09375 1.15625q-1.25 0.203125 -1.90625 0.203125q-1.453125 0 -2.015625 -0.703125q-0.5625 -0.71875 -0.5625 -2.703125l0 -4.90625l-1.328125 0l0 -1.21875l1.328125 0l0 -2.859375l1.375 0l0 2.859375l2.96875 0l0 1.21875zm1.7202148 8.109375l0 -9.328125l1.40625 0l0 9.328125l-1.40625 0zm0 -11.4375l0 -1.625l1.40625 0l0 1.625l-1.40625 0zm3.2107239 2.109375l1.484375 0l2.1875 8.109375l0.6875 0l2.265625 -8.109375l1.4375 0l-2.640625 9.328125l-2.796875 0l-2.625 -9.328125zm9.848663 9.328125l0 -9.328125l1.40625 0l0 9.328125l-1.40625 0zm0 -11.4375l0 -1.625l1.40625 0l0 1.625l-1.40625 0zm8.913849 3.328125l-2.96875 0l0 4.453125q0 1.609375 0.234375 2.109375q0.234375 0.5 1.109375 0.5l1.671875 -0.109375l0.09375 1.15625q-1.25 0.203125 -1.90625 0.203125q-1.453125 0 -2.015625 -0.703125q-0.5625 -0.71875 -0.5625 -2.703125l0 -4.90625l-1.328125 0l0 -1.21875l1.328125 0l0 -2.859375l1.375 0l0 2.859375l2.96875 0l0 1.21875zm0.84521484 -1.21875l1.390625 0l2.34375 8.109375l0.609375 0l2.34375 -8.109375l1.40625 0l-3.875 13.46875l-1.40625 0l1.21875 -4.140625l-1.390625 0l-2.640625 -9.328125z" fill-rule="nonzero"/><path fill="#ffffff" d="m200.43575 264.09973l125.00786 0l0 46.393707l-125.00786 0z" fill-rule="evenodd"/><path stroke="#212121" stroke-width="1.0" stroke-linejoin="round" stroke-linecap="butt" d="m200.43575 264.09973l125.00786 0l0 46.393707l-125.00786 0z" fill-rule="evenodd"/><path fill="#212121" d="m219.48163 294.21658l0 -12.90625l7.859375 0l0 1.265625l-6.421875 0l0 4.453125l5.3125 0l0 1.25l-5.3125 0l0 4.671875l6.421875 0l0 1.265625l-7.859375 0zm9.145035 -9.328125l1.53125 0l2.28125 3.65625l2.28125 -3.65625l1.515625 0l-2.953125 4.625l2.9375 4.703125l-1.53125 0l-2.25 -3.640625l-2.28125 3.640625l-1.53125 0l2.9375 -4.671875l-2.9375 -4.65625zm9.370132 13.46875l0 -13.46875l1.375 0l0 0.671875q1.421875 -0.859375 2.796875 -0.859375q1.78125 0 2.578125 1.140625q0.8125 1.125 0.8125 3.71875q0 2.578125 -0.953125 3.71875q-0.9375 1.125 -3.125 1.125q-1.140625 0 -2.078125 -0.203125l0 4.15625l-1.40625 0zm3.96875 -12.40625q-0.5625 0 -1.203125 0.1875q-0.640625 0.1875 -1.015625 0.375l-0.34375 0.1875l0 6.28125q1.3125 0.203125 2.0 0.203125q1.515625 0 2.125 -0.859375q0.609375 -0.859375 0.609375 -2.796875q0 -1.9375 -0.5625 -2.75q-0.546875 -0.828125 -1.609375 -0.828125zm12.206848 7.109375l0.546875 -0.0625l0.03125 1.109375q-2.125 0.296875 -3.640625 0.296875q-2.015625 0 -2.859375 -1.15625q-0.828125 -1.171875 -0.828125 -3.640625q0 -4.90625 3.890625 -4.90625q1.890625 0 2.8125 1.0625q0.9375 1.046875 0.9375 3.296875l-0.078125 1.078125l-6.15625 0q0 1.546875 0.5625 2.296875q0.5625 0.734375 1.953125 0.734375q1.390625 0 2.828125 -0.109375zm-0.5 -4.046875q0 -1.71875 -0.5625 -2.421875q-0.546875 -0.71875 -1.796875 -0.71875q-1.234375 0 -1.859375 0.75q-0.625 0.75 -0.640625 2.390625l4.859375 0zm3.5776672 5.203125l0 -9.328125l1.375 0l0 1.265625q1.625 -1.109375 3.421875 -1.46875l0 1.421875q-0.78125 0.140625 -1.640625 0.46875q-0.84375 0.3125 -1.296875 0.546875l-0.453125 0.25l0 6.84375l-1.40625 0zm6.4550476 0l0 -9.328125l1.40625 0l0 9.328125l-1.40625 0zm0 -11.4375l0 -1.625l1.40625 0l0 1.625l-1.40625 0zm5.491974 11.4375l-1.40625 0l0 -9.328125l1.375 0l0 0.65625q1.40625 -0.84375 2.734375 -0.84375q1.734375 0 2.421875 0.953125q0.609375 -0.375 1.59375 -0.65625q0.984375 -0.296875 1.71875 -0.296875q1.875 0 2.515625 1.0q0.640625 1.0 0.640625 3.59375l0 4.921875l-1.390625 0l0 -4.890625q0 -1.9375 -0.375 -2.65625q-0.375 -0.71875 -1.59375 -0.71875q-0.609375 0 -1.265625 0.1875q-0.65625 0.171875 -1.0 0.328125l-0.359375 0.171875q0.234375 0.625 0.234375 2.734375l0 4.84375l-1.390625 0l0 -4.8125q0 -2.015625 -0.375 -2.734375q-0.359375 -0.71875 -1.578125 -0.71875q-0.609375 0 -1.234375 0.1875q-0.625 0.171875 -0.953125 0.328125l-0.3125 0.171875l0 7.578125zm20.53415 -1.15625l0.546875 -0.0625l0.03125 1.109375q-2.125 0.296875 -3.640625 0.296875q-2.015625 0 -2.859375 -1.15625q-0.828125 -1.171875 -0.828125 -3.640625q0 -4.90625 3.890625 -4.90625q1.890625 0 2.8125 1.0625q0.9375 1.046875 0.9375 3.296875l-0.078125 1.078125l-6.15625 0q0 1.546875 0.5625 2.296875q0.5625 0.734375 1.953125 0.734375q1.390625 0 2.828125 -0.109375zm-0.5 -4.046875q0 -1.71875 -0.5625 -2.421875q-0.546875 -0.71875 -1.796875 -0.71875q-1.234375 0 -1.859375 0.75q-0.625 0.75 -0.640625 2.390625l4.859375 0zm4.9838867 5.203125l-1.40625 0l0 -9.328125l1.375 0l0 0.65625q1.515625 -0.84375 2.890625 -0.84375q1.875 0 2.515625 1.015625q0.640625 1.0 0.640625 3.578125l0 4.921875l-1.375 0l0 -4.890625q0 -1.9375 -0.390625 -2.65625q-0.375 -0.71875 -1.625 -0.71875q-0.59375 0 -1.265625 0.1875q-0.65625 0.171875 -1.015625 0.328125l-0.34375 0.171875l0 7.578125zm13.384277 -8.109375l-2.96875 0l0 4.453125q0 1.609375 0.234375 2.109375q0.234375 0.5 1.109375 0.5l1.671875 -0.109375l0.09375 1.15625q-1.25 0.203125 -1.90625 0.203125q-1.453125 0 -2.015625 -0.703125q-0.5625 -0.71875 -0.5625 -2.703125l0 -4.90625l-1.328125 0l0 -1.21875l1.328125 0l0 -2.859375l1.375 0l0 2.859375l2.96875 0l0 1.21875z" fill-rule="nonzero"/><path fill="#000000" fill-opacity="0.0" d="m262.93967 264.09973l0 -53.002563l210.07877 0l0 -53.013184" fill-rule="evenodd"/><path stroke="#212121" stroke-width="1.0" stroke-linejoin="round" stroke-linecap="butt" d="m262.93967 264.09973l0 -53.002563l210.07874 0l0 -45.513184" fill-rule="evenodd"/><path stroke="#212121" stroke-width="1.0" stroke-linecap="butt" d="m475.2161 165.58398l-2.1976929 -6.038086l-2.1976624 6.038086z" fill-rule="evenodd"/><path fill="#000000" fill-opacity="0.0" d="m550.13654 264.04987l0 -52.981674l-77.13385 0l0 -52.971085" fill-rule="evenodd"/><path stroke="#212121" stroke-width="1.0" stroke-linejoin="round" stroke-linecap="butt" d="m550.13654 264.04987l0 -52.98166l-77.13388 0l0 -45.4711" fill-rule="evenodd"/><path stroke="#212121" stroke-width="1.0" stroke-linecap="butt" d="m475.20035 165.5971l-2.1976929 -6.038086l-2.1976624 6.038086z" fill-rule="evenodd"/><path fill="#ffffff" d="m140.2402 111.69748l138.29922 0l0 46.393692l-138.29922 0z" fill-rule="evenodd"/><path stroke="#212121" stroke-width="1.0" stroke-linejoin="round" stroke-linecap="butt" d="m140.2402 111.69748l138.29922 0l0 46.393692l-138.29922 0z" fill-rule="evenodd"/><path fill="#212121" d="m162.7733 141.81433l3.546875 -12.90625l3.125 0l3.546875 12.90625l-1.421875 0l-0.921875 -3.328125l-5.53125 0l-0.9375 3.328125l-1.40625 0zm4.625 -11.671875l-1.96875 7.0625l4.890625 0l-1.953125 -7.0625l-0.96875 0zm10.757111 2.15625q0.625 0 2.09375 0.21875l0.453125 0.0625l-0.0625 1.140625q-1.484375 -0.171875 -2.203125 -0.171875q-1.578125 0 -2.15625 0.765625q-0.5625 0.75 -0.5625 2.796875q0 2.03125 0.53125 2.84375q0.53125 0.796875 2.203125 0.796875l2.203125 -0.171875l0.0625 1.15625q-1.734375 0.265625 -2.59375 0.265625q-2.1875 0 -3.015625 -1.109375q-0.828125 -1.125 -0.828125 -3.78125q0 -2.671875 0.890625 -3.734375q0.90625 -1.078125 2.984375 -1.078125zm9.477875 1.40625l-2.96875 0l0 4.453125q0 1.609375 0.234375 2.109375q0.234375 0.5 1.109375 0.5l1.671875 -0.109375l0.09375 1.15625q-1.25 0.203125 -1.90625 0.203125q-1.453125 0 -2.015625 -0.703125q-0.5625 -0.71875 -0.5625 -2.703125l0 -4.90625l-1.328125 0l0 -1.21875l1.328125 0l0 -2.859375l1.375 0l0 2.859375l2.96875 0l0 1.21875zm1.7202148 8.109375l0 -9.328125l1.40625 0l0 9.328125l-1.40625 0zm0 -11.4375l0 -1.625l1.40625 0l0 1.625l-1.40625 0zm3.2107239 2.109375l1.484375 0l2.1875 8.109375l0.6875 0l2.265625 -8.109375l1.4375 0l-2.640625 9.328125l-2.796875 0l-2.625 -9.328125zm9.848663 9.328125l0 -9.328125l1.40625 0l0 9.328125l-1.40625 0zm0 -11.4375l0 -1.625l1.40625 0l0 1.625l-1.40625 0zm8.913849 3.328125l-2.96875 0l0 4.453125q0 1.609375 0.234375 2.109375q0.234375 0.5 1.109375 0.5l1.671875 -0.109375l0.09375 1.15625q-1.25 0.203125 -1.90625 0.203125q-1.453125 0 -2.015625 -0.703125q-0.5625 -0.71875 -0.5625 -2.703125l0 -4.90625l-1.328125 0l0 -1.21875l1.328125 0l0 -2.859375l1.375 0l0 2.859375l2.96875 0l0 1.21875zm0.84521484 -1.21875l1.390625 0l2.34375 8.109375l0.609375 0l2.34375 -8.109375l1.40625 0l-3.875 13.46875l-1.40625 0l1.21875 -4.140625l-1.390625 0l-2.640625 -9.328125zm13.698471 -2.515625q-2.8125 0 -2.8125 2.109375q0 1.171875 0.640625 1.609375q0.65625 0.4375 2.625 0.875q1.96875 0.4375 2.78125 1.140625q0.828125 0.703125 0.828125 2.296875q0 3.984375 -4.125 3.984375q-1.359375 0 -3.421875 -0.328125l-0.671875 -0.09375l0.15625 -1.1875q2.53125 0.34375 3.859375 0.34375q2.765625 0 2.765625 -2.59375q0 -1.046875 -0.609375 -1.5q-0.609375 -0.46875 -2.265625 -0.78125q-2.1875 -0.46875 -3.109375 -1.203125q-0.90625 -0.734375 -0.90625 -2.46875q0 -3.46875 4.171875 -3.46875q1.359375 0 3.265625 0.28125l0.625 0.078125l-0.125 1.21875q-2.59375 -0.3125 -3.671875 -0.3125zm10.959305 3.734375l-2.96875 0l0 4.453125q0 1.609375 0.234375 2.109375q0.234375 0.5 1.109375 0.5l1.671875 -0.109375l0.09375 1.15625q-1.25 0.203125 -1.90625 0.203125q-1.453125 0 -2.015625 -0.703125q-0.5625 -0.71875 -0.5625 -2.703125l0 -4.90625l-1.328125 0l0 -1.21875l1.328125 0l0 -2.859375l1.375 0l0 2.859375l2.96875 0l0 1.21875zm8.063965 6.953125l0.546875 -0.0625l0.03125 1.109375q-2.125 0.296875 -3.640625 0.296875q-2.015625 0 -2.859375 -1.15625q-0.828125 -1.171875 -0.828125 -3.640625q0 -4.90625 3.890625 -4.90625q1.890625 0 2.8125 1.0625q0.9375 1.046875 0.9375 3.296875l-0.078125 1.078125l-6.15625 0q0 1.546875 0.5625 2.296875q0.5625 0.734375 1.953125 0.734375q1.390625 0 2.828125 -0.109375zm-0.5 -4.046875q0 -1.71875 -0.5625 -2.421875q-0.546875 -0.71875 -1.796875 -0.71875q-1.234375 0 -1.859375 0.75q-0.625 0.75 -0.640625 2.390625l4.859375 0zm3.577652 9.34375l0 -13.46875l1.375 0l0 0.671875q1.421875 -0.859375 2.796875 -0.859375q1.78125 0 2.578125 1.140625q0.8125 1.125 0.8125 3.71875q0 2.578125 -0.953125 3.71875q-0.9375 1.125 -3.125 1.125q-1.140625 0 -2.078125 -0.203125l0 4.15625l-1.40625 0zm3.96875 -12.40625q-0.5625 0 -1.203125 0.1875q-0.640625 0.1875 -1.015625 0.375l-0.34375 0.1875l0 6.28125q1.3125 0.203125 2.0 0.203125q1.515625 0 2.125 -0.859375q0.609375 -0.859375 0.609375 -2.796875q0 -1.9375 -0.5625 -2.75q-0.546875 -0.828125 -1.609375 -0.828125z" fill-rule="nonzero"/><path fill="#000000" fill-opacity="0.0" d="m320.18146 125.19423l48.629913 0l0 19.401566l-48.629913 0z" fill-rule="evenodd"/><path fill="#212121" d="m329.64862 133.46048q-1.734375 0 -1.734375 1.21875q0 0.5625 0.390625 0.796875q0.40625 0.234375 1.828125 0.484375q1.421875 0.234375 2.015625 0.6875q0.59375 0.453125 0.59375 1.6875q0 1.234375 -0.796875 1.8125q-0.78125 0.5625 -2.3125 0.5625q-0.984375 0 -2.328125 -0.21875l-0.484375 -0.078125l0.0625 -1.046875q1.828125 0.28125 2.75 0.28125q0.9375 0 1.421875 -0.296875q0.484375 -0.296875 0.484375 -0.984375q0 -0.703125 -0.421875 -0.953125q-0.40625 -0.25 -1.8125 -0.46875q-1.40625 -0.234375 -2.0 -0.65625q-0.59375 -0.4375 -0.59375 -1.609375q0 -1.171875 0.828125 -1.71875q0.828125 -0.5625 2.046875 -0.5625q0.984375 0 2.453125 0.21875l0.453125 0.078125l-0.03125 1.03125q-1.78125 -0.265625 -2.8125 -0.265625zm9.080627 0.140625l-2.546875 0l0 3.8125q0 1.375 0.203125 1.8125q0.203125 0.4375 0.953125 0.4375l1.421875 -0.09375l0.078125 0.984375q-1.0625 0.171875 -1.625 0.171875q-1.25 0 -1.734375 -0.609375q-0.484375 -0.609375 -0.484375 -2.3125l0 -4.203125l-1.125 0l0 -1.046875l1.125 0l0 -2.453125l1.1875 0l0 2.453125l2.546875 0l0 1.046875zm6.912903 5.96875l0.46875 -0.0625l0.03125 0.953125q-1.828125 0.25 -3.125 0.25q-1.734375 0 -2.453125 -1.0q-0.71875 -1.0 -0.71875 -3.109375q0 -4.203125 3.34375 -4.203125q1.625 0 2.421875 0.90625q0.796875 0.890625 0.796875 2.828125l-0.0625 0.921875l-5.28125 0q0 1.328125 0.46875 1.96875q0.484375 0.640625 1.671875 0.640625q1.203125 0 2.4375 -0.09375zm-0.4375 -3.484375q0 -1.46875 -0.46875 -2.078125q-0.46875 -0.609375 -1.53125 -0.609375q-1.0625 0 -1.609375 0.640625q-0.53125 0.640625 -0.546875 2.046875l4.15625 0zm3.080017 8.015625l0 -11.546875l1.1875 0l0 0.578125q1.203125 -0.734375 2.390625 -0.734375q1.515625 0 2.203125 0.96875q0.6875 0.96875 0.6875 3.1875q0 2.21875 -0.8125 3.1875q-0.796875 0.96875 -2.671875 0.96875q-0.96875 0 -1.78125 -0.171875l0 3.5625l-1.203125 0zm3.40625 -10.640625q-0.484375 0 -1.046875 0.171875q-0.546875 0.15625 -0.859375 0.3125l-0.296875 0.15625l0 5.390625q1.125 0.1875 1.71875 0.1875q1.296875 0 1.8125 -0.734375q0.53125 -0.75 0.53125 -2.40625q0 -1.671875 -0.484375 -2.375q-0.46875 -0.703125 -1.375 -0.703125zm7.525757 0q-1.734375 0 -1.734375 1.21875q0 0.5625 0.390625 0.796875q0.40625 0.234375 1.828125 0.484375q1.421875 0.234375 2.015625 0.6875q0.59375 0.453125 0.59375 1.6875q0 1.234375 -0.796875 1.8125q-0.78125 0.5625 -2.3125 0.5625q-0.984375 0 -2.328125 -0.21875l-0.484375 -0.078125l0.0625 -1.046875q1.828125 0.28125 2.75 0.28125q0.9375 0 1.421875 -0.296875q0.484375 -0.296875 0.484375 -0.984375q0 -0.703125 -0.421875 -0.953125q-0.40625 -0.25 -1.8125 -0.46875q-1.40625 -0.234375 -2.0 -0.65625q-0.59375 -0.4375 -0.59375 -1.609375q0 -1.171875 0.828125 -1.71875q0.828125 -0.5625 2.046875 -0.5625q0.984375 0 2.453125 0.21875l0.453125 0.078125l-0.03125 1.03125q-1.78125 -0.265625 -2.8125 -0.265625z" fill-rule="nonzero"/><path fill="#000000" fill-opacity="0.0" d="m320.18146 134.89502l-20.820984 0l0 0.06298828l-20.816803 0" fill-rule="evenodd"/><path stroke="#212121" stroke-width="1.0" stroke-linejoin="round" stroke-linecap="butt" d="m320.18146 134.89502l-20.820984 0l0 0.06298828l-20.816803 0" fill-rule="evenodd"/><path fill="#000000" fill-opacity="0.0" d="m379.84305 104.942276l41.858276 0l0 30.015747l-41.858276 0z" fill-rule="evenodd"/><path fill="#212121" d="m394.03055 117.945404l0 8.796875l-1.03125 0l0 -7.65625l-2.265625 1.5l-0.46875 -0.78125l2.796875 -1.859375l0.96875 0zm3.16687 8.796875l0 -1.515625l1.09375 0l0 1.515625l-1.09375 0zm2.8788452 0l0 -1.515625l1.09375 0l0 1.515625l-1.09375 0zm6.9570007 -6.8125l-1.75 0l0.546875 1.671875l-0.65625 0.203125l-0.546875 -1.6875l-1.421875 1.046875l-0.421875 -0.53125l1.4375 -1.046875l-1.40625 -1.03125l0.40625 -0.5625l1.421875 1.046875l0.546875 -1.6875l0.640625 0.21875l-0.53125 1.6875l1.734375 0l0 0.671875z" fill-rule="nonzero"/><path fill="#000000" fill-opacity="0.0" d="m270.69446 104.94348l41.858246 0l0 30.015747l-41.858246 0z" fill-rule="evenodd"/><path fill="#212121" d="m284.88196 117.94661l0 8.796875l-1.03125 0l0 -7.65625l-2.265625 1.5l-0.46875 -0.78125l2.796875 -1.859375l0.96875 0zm3.1668396 8.796875l0 -1.515625l1.09375 0l0 1.515625l-1.09375 0zm2.8788757 0l0 -1.515625l1.09375 0l0 1.515625l-1.09375 0zm7.17572 -8.796875l0 8.796875l-1.03125 0l0 -7.65625l-2.265625 1.5l-0.46875 -0.78125l2.796875 -1.859375l0.96875 0z" fill-rule="nonzero"/><path fill="#000000" fill-opacity="0.0" d="m368.81137 134.89502l20.849152 0l0 0.06298828l20.851654 0" fill-rule="evenodd"/><path stroke="#212121" stroke-width="1.0" stroke-linejoin="round" stroke-linecap="butt" d="m368.8114 134.89502l20.849121 0l0 0.06298828l13.723389 0" fill-rule="evenodd"/><path fill="#212121" stroke="#212121" stroke-width="1.0" stroke-linecap="butt" d="m403.3839 134.95801l3.1282654 2.190445l3.1282654 -2.190445l-3.1282654 -2.190445z" fill-rule="evenodd"/><path fill="#ffffff" d="m324.76117 380.25723l156.91336 0l0 46.393677l-156.91336 0z" fill-rule="evenodd"/><path stroke="#212121" stroke-width="1.0" stroke-linejoin="round" stroke-linecap="butt" d="m324.76117 380.25723l156.91336 0l0 46.393677l-156.91336 0z" fill-rule="evenodd"/><path fill="#212121" d="m339.59796 398.5303q-2.8125 0 -2.8125 2.109375q0 1.171875 0.640625 1.609375q0.65625 0.4375 2.625 0.875q1.96875 0.4375 2.78125 1.140625q0.828125 0.703125 0.828125 2.296875q0 3.984375 -4.125 3.984375q-1.359375 0 -3.421875 -0.328125l-0.671875 -0.09375l0.15625 -1.1875q2.53125 0.34375 3.859375 0.34375q2.765625 0 2.765625 -2.59375q0 -1.046875 -0.609375 -1.5q-0.609375 -0.46875 -2.265625 -0.78125q-2.1875 -0.46875 -3.109375 -1.203125q-0.90625 -0.734375 -0.90625 -2.46875q0 -3.46875 4.171875 -3.46875q1.359375 0 3.265625 0.28125l0.625 0.078125l-0.125 1.21875q-2.59375 -0.3125 -3.671875 -0.3125zm5.2375183 2.515625l1.390625 0l2.34375 8.109375l0.609375 0l2.34375 -8.109375l1.40625 0l-3.875 13.46875l-1.40625 0l1.21875 -4.140625l-1.390625 0l-2.640625 -9.328125zm11.292236 9.328125l-1.40625 0l0 -9.328125l1.375 0l0 0.65625q1.515625 -0.84375 2.890625 -0.84375q1.875 0 2.515625 1.015625q0.640625 1.0 0.640625 3.578125l0 4.921875l-1.375 0l0 -4.890625q0 -1.9375 -0.390625 -2.65625q-0.375 -0.71875 -1.625 -0.71875q-0.59375 0 -1.265625 0.1875q-0.65625 0.171875 -1.015625 0.328125l-0.34375 0.171875l0 7.578125zm13.384247 -8.109375l-2.96875 0l0 4.453125q0 1.609375 0.234375 2.109375q0.234375 0.5 1.109375 0.5l1.671875 -0.109375l0.09375 1.15625q-1.25 0.203125 -1.90625 0.203125q-1.453125 0 -2.015625 -0.703125q-0.5625 -0.71875 -0.5625 -2.703125l0 -4.90625l-1.328125 0l0 -1.21875l1.328125 0l0 -2.859375l1.375 0l0 2.859375l2.96875 0l0 1.21875zm3.1264648 8.109375l-1.40625 0l0 -13.390625l1.40625 0l0 4.578125q1.484375 -0.703125 2.859375 -0.703125q1.875 0 2.515625 1.015625q0.640625 1.0 0.640625 3.578125l0 4.921875l-1.390625 0l0 -4.890625q0 -1.9375 -0.390625 -2.65625q-0.375 -0.71875 -1.609375 -0.71875q-1.171875 0 -2.28125 0.4375l-0.34375 0.125l0 7.703125zm14.955902 -1.15625l0.546875 -0.0625l0.03125 1.109375q-2.125 0.296875 -3.640625 0.296875q-2.015625 0 -2.859375 -1.15625q-0.828125 -1.171875 -0.828125 -3.640625q0 -4.90625 3.890625 -4.90625q1.890625 0 2.8125 1.0625q0.9375 1.046875 0.9375 3.296875l-0.078125 1.078125l-6.15625 0q0 1.546875 0.5625 2.296875q0.5625 0.734375 1.953125 0.734375q1.390625 0 2.828125 -0.109375zm-0.5 -4.046875q0 -1.71875 -0.5625 -2.421875q-0.546875 -0.71875 -1.796875 -0.71875q-1.234375 0 -1.859375 0.75q-0.625 0.75 -0.640625 2.390625l4.859375 0zm6.499542 -3.0625q-2.03125 0 -2.03125 1.421875q0 0.65625 0.46875 0.921875q0.46875 0.265625 2.125 0.5625q1.671875 0.28125 2.359375 0.8125q0.6875 0.515625 0.6875 1.953125q0 1.4375 -0.921875 2.109375q-0.921875 0.671875 -2.703125 0.671875q-1.15625 0 -2.71875 -0.265625l-0.5625 -0.09375l0.078125 -1.203125q2.125 0.3125 3.203125 0.3125q1.078125 0 1.640625 -0.34375q0.578125 -0.34375 0.578125 -1.15625q0 -0.8125 -0.484375 -1.09375q-0.484375 -0.296875 -2.125 -0.5625q-1.640625 -0.265625 -2.328125 -0.765625q-0.6875 -0.5 -0.6875 -1.859375q0 -1.359375 0.953125 -2.015625q0.96875 -0.65625 2.40625 -0.65625q1.125 0 2.84375 0.265625l0.53125 0.09375l-0.046875 1.1875q-2.0625 -0.296875 -3.265625 -0.296875zm5.7532654 8.265625l0 -9.328125l1.40625 0l0 9.328125l-1.40625 0zm0 -11.4375l0 -1.625l1.40625 0l0 1.625l-1.40625 0zm7.007599 3.171875q-2.03125 0 -2.03125 1.421875q0 0.65625 0.46875 0.921875q0.46875 0.265625 2.125 0.5625q1.671875 0.28125 2.359375 0.8125q0.6875 0.515625 0.6875 1.953125q0 1.4375 -0.921875 2.109375q-0.921875 0.671875 -2.703125 0.671875q-1.15625 0 -2.71875 -0.265625l-0.5625 -0.09375l0.078125 -1.203125q2.125 0.3125 3.203125 0.3125q1.078125 0 1.640625 -0.34375q0.578125 -0.34375 0.578125 -1.15625q0 -0.8125 -0.484375 -1.09375q-0.484375 -0.296875 -2.125 -0.5625q-1.640625 -0.265625 -2.328125 -0.765625q-0.6875 -0.5 -0.6875 -1.859375q0 -1.359375 0.953125 -2.015625q0.96875 -0.65625 2.40625 -0.65625q1.125 0 2.84375 0.265625l0.53125 0.09375l-0.046875 1.1875q-2.0625 -0.296875 -3.265625 -0.296875zm5.987671 8.265625l0 -12.90625l2.59375 0l3.65625 10.90625l3.671875 -10.90625l2.578125 0l0 12.90625l-1.421875 0l0 -11.375l-0.265625 0l-3.75 10.90625l-1.609375 0l-3.75 -10.90625l-0.265625 0l0 11.375l-1.4375 0zm21.687286 -1.15625l0.546875 -0.0625l0.03125 1.109375q-2.125 0.296875 -3.640625 0.296875q-2.015625 0 -2.859375 -1.15625q-0.828125 -1.171875 -0.828125 -3.640625q0 -4.90625 3.890625 -4.90625q1.890625 0 2.8125 1.0625q0.9375 1.046875 0.9375 3.296875l-0.078125 1.078125l-6.15625 0q0 1.546875 0.5625 2.296875q0.5625 0.734375 1.953125 0.734375q1.390625 0 2.828125 -0.109375zm-0.5 -4.046875q0 -1.71875 -0.5625 -2.421875q-0.546875 -0.71875 -1.796875 -0.71875q-1.234375 0 -1.859375 0.75q-0.625 0.75 -0.640625 2.390625l4.859375 0zm8.349762 -2.90625l-2.96875 0l0 4.453125q0 1.609375 0.234375 2.109375q0.234375 0.5 1.109375 0.5l1.671875 -0.109375l0.09375 1.15625q-1.25 0.203125 -1.90625 0.203125q-1.453125 0 -2.015625 -0.703125q-0.5625 -0.71875 -0.5625 -2.703125l0 -4.90625l-1.328125 0l0 -1.21875l1.328125 0l0 -2.859375l1.375 0l0 2.859375l2.96875 0l0 1.21875zm3.1264648 8.109375l-1.40625 0l0 -13.390625l1.40625 0l0 4.578125q1.484375 -0.703125 2.859375 -0.703125q1.875 0 2.515625 1.015625q0.640625 1.0 0.640625 3.578125l0 4.921875l-1.390625 0l0 -4.890625q0 -1.9375 -0.390625 -2.65625q-0.375 -0.71875 -1.609375 -0.71875q-1.171875 0 -2.28125 0.4375l-0.34375 0.125l0 7.703125zm8.205902 -4.671875q0 -2.5625 0.90625 -3.703125q0.921875 -1.140625 3.09375 -1.140625q2.171875 0 3.078125 1.140625q0.90625 1.140625 0.90625 3.703125q0 2.546875 -0.859375 3.703125q-0.859375 1.15625 -3.140625 1.15625q-2.265625 0 -3.125 -1.15625q-0.859375 -1.15625 -0.859375 -3.703125zm1.4375 -0.03125q0 2.03125 0.484375 2.859375q0.5 0.8125 2.078125 0.8125q1.578125 0 2.0625 -0.8125q0.484375 -0.8125 0.484375 -2.859375q0 -2.046875 -0.546875 -2.8125q-0.53125 -0.78125 -2.0 -0.78125q-1.46875 0 -2.015625 0.78125q-0.546875 0.765625 -0.546875 2.8125zm15.975525 -8.6875l0 13.390625l-1.375 0l0 -0.640625q-1.4375 0.828125 -2.828125 0.828125q-0.75 0 -1.3125 -0.1875q-0.5625 -0.1875 -1.046875 -0.671875q-1.0 -1.0 -1.0 -3.71875q0 -2.71875 0.90625 -3.921875q0.90625 -1.203125 2.984375 -1.203125q1.078125 0 2.296875 0.25l0 -4.125l1.375 0zm-5.484375 11.71875q0.3125 0.34375 0.640625 0.484375q0.34375 0.125 0.875 0.125q0.53125 0 1.1875 -0.171875q0.65625 -0.1875 1.03125 -0.34375l0.375 -0.171875l0 -6.328125q-1.1875 -0.21875 -2.21875 -0.21875q-1.421875 0 -1.984375 0.90625q-0.546875 0.890625 -0.546875 2.796875q0 2.171875 0.640625 2.921875z" fill-rule="nonzero"/><path fill="#000000" fill-opacity="0.0" d="m403.21783 380.25723l0 -34.907104l0.0630188 0l0 -34.919678" fill-rule="evenodd"/><path stroke="#212121" stroke-width="1.0" stroke-linejoin="round" stroke-linecap="butt" d="m403.21783 380.25723l0 -34.907135l0.0630188 0l0 -27.419647" fill-rule="evenodd"/><path stroke="#212121" stroke-width="1.0" stroke-linecap="butt" d="m405.47852 317.93045l-2.1976624 -6.0381165l-2.1976929 6.0381165z" fill-rule="evenodd"/><path fill="#000000" fill-opacity="0.0" d="m745.61945 79.01349l199.59052 0" fill-rule="evenodd"/><path stroke="#212121" stroke-width="1.0" stroke-linejoin="round" stroke-linecap="butt" d="m745.61945 79.01349l192.09052 0" fill-rule="evenodd"/><path stroke="#212121" stroke-width="1.0" stroke-linecap="butt" d="m937.70996 81.211174l6.038086 -2.1976852l-6.038086 -2.1976929z" fill-rule="evenodd"/><path fill="#ffffff" d="m799.1627 62.209972l92.50397 0l0 30.70866l-92.50397 0z" fill-rule="evenodd"/><path fill="#212121" d="m806.0565 83.804306l0 -8.65625l1.296875 0l0 8.65625l-1.296875 0zm0 -10.625l0 -1.5l1.296875 0l0 1.5l-1.296875 0zm5.091675 10.625l-1.296875 0l0 -8.65625l1.28125 0l0 0.59375q1.40625 -0.78125 2.6875 -0.78125q1.734375 0 2.328125 0.9375q0.59375 0.9375 0.59375 3.328125l0 4.578125l-1.28125 0l0 -4.546875q0 -1.796875 -0.359375 -2.453125q-0.34375 -0.671875 -1.515625 -0.671875q-0.546875 0 -1.171875 0.171875q-0.609375 0.15625 -0.9375 0.3125l-0.328125 0.15625l0 7.03125zm9.305176 0l-1.296875 0l0 -12.4375l1.296875 0l0 4.265625q1.390625 -0.671875 2.671875 -0.671875q1.734375 0 2.328125 0.9375q0.59375 0.9375 0.59375 3.328125l0 4.578125l-1.296875 0l0 -4.546875q0 -1.796875 -0.359375 -2.453125q-0.34375 -0.671875 -1.5 -0.671875q-1.078125 0 -2.109375 0.390625l-0.328125 0.125l0 7.15625zm13.898865 -1.078125l0.5 -0.046875l0.03125 1.015625q-1.96875 0.28125 -3.375 0.28125q-1.875 0 -2.65625 -1.078125q-0.78125 -1.09375 -0.78125 -3.375q0 -4.5625 3.625 -4.5625q1.75 0 2.609375 0.984375q0.875 0.984375 0.875 3.078125l-0.0625 0.984375l-5.71875 0q0 1.4375 0.515625 2.140625q0.515625 0.6875 1.8125 0.6875q1.296875 0 2.625 -0.109375zm-0.46875 -3.75q0 -1.59375 -0.515625 -2.25q-0.5 -0.671875 -1.65625 -0.671875q-1.15625 0 -1.734375 0.703125q-0.578125 0.6875 -0.59375 2.21875l4.5 0zm3.3287964 4.828125l0 -8.65625l1.28125 0l0 1.171875q1.5 -1.046875 3.171875 -1.375l0 1.328125q-0.734375 0.125 -1.53125 0.421875q-0.78125 0.296875 -1.1875 0.53125l-0.4375 0.21875l0 6.359375l-1.296875 0zm5.9954834 0l0 -8.65625l1.296875 0l0 8.65625l-1.296875 0zm0 -10.625l0 -1.5l1.296875 0l0 1.5l-1.296875 0zm8.279236 3.09375l-2.75 0l0 4.140625q0 1.484375 0.203125 1.953125q0.21875 0.46875 1.046875 0.46875l1.53125 -0.109375l0.09375 1.078125q-1.15625 0.1875 -1.765625 0.1875q-1.359375 0 -1.875 -0.65625q-0.515625 -0.65625 -0.515625 -2.515625l0 -4.546875l-1.234375 0l0 -1.125l1.234375 0l0 -2.65625l1.28125 0l0 2.65625l2.75 0l0 1.125zm7.7070923 1.484375l0 4.4375q0.0625 0.640625 1.015625 0.765625l-0.0625 1.015625q-1.359375 0 -2.0625 -0.6875q-1.546875 0.6875 -3.109375 0.6875q-1.203125 0 -1.828125 -0.671875q-0.625 -0.671875 -0.625 -1.9375q0 -1.265625 0.640625 -1.859375q0.640625 -0.609375 2.015625 -0.75l2.71875 -0.25l0 -0.75q0 -0.890625 -0.390625 -1.265625q-0.375 -0.375 -1.03125 -0.375q-1.390625 0 -2.875 0.171875l-0.53125 0.046875l-0.0625 -0.984375q1.90625 -0.390625 3.375 -0.390625q1.484375 0 2.140625 0.6875q0.671875 0.671875 0.671875 2.109375zm-5.328125 3.53125q0 1.59375 1.3125 1.59375q1.171875 0 2.328125 -0.390625l0.390625 -0.140625l0 -2.859375l-2.5625 0.234375q-0.78125 0.078125 -1.125 0.46875q-0.34375 0.375 -0.34375 1.09375zm9.19696 2.515625l-1.296875 0l0 -8.65625l1.28125 0l0 0.59375q1.40625 -0.78125 2.6875 -0.78125q1.734375 0 2.328125 0.9375q0.59375 0.9375 0.59375 3.328125l0 4.578125l-1.28125 0l0 -4.546875q0 -1.796875 -0.359375 -2.453125q-0.34375 -0.671875 -1.515625 -0.671875q-0.546875 0 -1.171875 0.171875q-0.609375 0.15625 -0.9375 0.3125l-0.328125 0.15625l0 7.03125zm11.242676 -8.84375q0.578125 0 1.9375 0.21875l0.421875 0.046875l-0.046875 1.0625q-1.390625 -0.15625 -2.046875 -0.15625q-1.46875 0 -2.0 0.703125q-0.53125 0.703125 -0.53125 2.59375q0 1.890625 0.484375 2.640625q0.5 0.75 2.0625 0.75l2.046875 -0.15625l0.046875 1.078125q-1.609375 0.234375 -2.40625 0.234375q-2.03125 0 -2.796875 -1.03125q-0.765625 -1.046875 -0.765625 -3.515625q0 -2.46875 0.828125 -3.46875q0.828125 -1.0 2.765625 -1.0zm10.107239 7.765625l0.5 -0.046875l0.03125 1.015625q-1.96875 0.28125 -3.375 0.28125q-1.875 0 -2.65625 -1.078125q-0.78125 -1.09375 -0.78125 -3.375q0 -4.5625 3.625 -4.5625q1.75 0 2.609375 0.984375q0.875 0.984375 0.875 3.078125l-0.0625 0.984375l-5.71875 0q0 1.4375 0.515625 2.140625q0.515625 0.6875 1.8125 0.6875q1.296875 0 2.625 -0.109375zm-0.46875 -3.75q0 -1.59375 -0.515625 -2.25q-0.5 -0.671875 -1.65625 -0.671875q-1.15625 0 -1.734375 0.703125q-0.578125 0.6875 -0.59375 2.21875l4.5 0z" fill-rule="nonzero"/><path fill="#000000" fill-opacity="0.0" d="m745.61945 53.299213l199.59052 0" fill-rule="evenodd"/><path stroke="#212121" stroke-width="1.0" stroke-linejoin="round" stroke-linecap="butt" d="m752.7477 53.299213l192.46228 0" fill-rule="evenodd"/><path fill="#212121" stroke="#212121" stroke-width="1.0" stroke-linecap="butt" d="m752.7477 53.299213l-3.1282349 -2.190445l-3.128296 2.190445l3.128296 2.1904411z" fill-rule="evenodd"/><path fill="#ffffff" d="m794.0761 36.0506l102.677185 0l0 30.708664l-102.677185 0z" fill-rule="evenodd"/><path fill="#212121" d="m803.7546 48.801178q0.578125 0 1.9375 0.21875l0.421875 0.046875l-0.046875 1.0625q-1.390625 -0.15625 -2.046875 -0.15625q-1.46875 0 -2.0 0.703125q-0.53125 0.703125 -0.53125 2.59375q0 1.890625 0.484375 2.640625q0.5 0.75 2.0625 0.75l2.046875 -0.15625l0.046875 1.078125q-1.609375 0.234375 -2.40625 0.234375q-2.03125 0 -2.796875 -1.03125q-0.765625 -1.046875 -0.765625 -3.515625q0 -2.46875 0.828125 -3.46875q0.828125 -1.0 2.765625 -1.0zm3.8260498 4.5q0 -2.375 0.84375 -3.4375q0.859375 -1.0625 2.875 -1.0625q2.03125 0 2.859375 1.0625q0.84375 1.0625 0.84375 3.4375q0 2.375 -0.796875 3.453125q-0.796875 1.0625 -2.921875 1.0625q-2.109375 0 -2.90625 -1.0625q-0.796875 -1.078125 -0.796875 -3.453125zm1.34375 -0.03125q0 1.890625 0.453125 2.65625q0.46875 0.765625 1.921875 0.765625q1.46875 0 1.921875 -0.75q0.453125 -0.75 0.453125 -2.65625q0 -1.90625 -0.515625 -2.625q-0.5 -0.734375 -1.859375 -0.734375q-1.359375 0 -1.875 0.734375q-0.5 0.71875 -0.5 2.609375zm9.49292 4.375l-1.296875 0l0 -8.65625l1.28125 0l0 0.59375q1.40625 -0.78125 2.6875 -0.78125q1.734375 0 2.328125 0.9375q0.59375 0.9375 0.59375 3.328125l0 4.578125l-1.28125 0l0 -4.546875q0 -1.796875 -0.359375 -2.453125q-0.34375 -0.671875 -1.515625 -0.671875q-0.546875 0 -1.171875 0.171875q-0.609375 0.15625 -0.9375 0.3125l-0.328125 0.15625l0 7.03125zm12.440674 -7.53125l-2.75 0l0 4.140625q0 1.484375 0.203125 1.953125q0.21875 0.46875 1.046875 0.46875l1.53125 -0.109375l0.09375 1.078125q-1.15625 0.1875 -1.765625 0.1875q-1.359375 0 -1.875 -0.65625q-0.515625 -0.65625 -0.515625 -2.515625l0 -4.546875l-1.234375 0l0 -1.125l1.234375 0l0 -2.65625l1.28125 0l0 2.65625l2.75 0l0 1.125zm7.7070923 1.484375l0 4.4375q0.0625 0.640625 1.015625 0.765625l-0.0625 1.015625q-1.359375 0 -2.0625 -0.6875q-1.546875 0.6875 -3.109375 0.6875q-1.203125 0 -1.828125 -0.671875q-0.625 -0.671875 -0.625 -1.9375q0 -1.265625 0.640625 -1.859375q0.640625 -0.609375 2.015625 -0.75l2.71875 -0.25l0 -0.75q0 -0.890625 -0.390625 -1.265625q-0.375 -0.375 -1.03125 -0.375q-1.390625 0 -2.875 0.171875l-0.53125 0.046875l-0.0625 -0.984375q1.90625 -0.390625 3.375 -0.390625q1.484375 0 2.140625 0.6875q0.671875 0.671875 0.671875 2.109375zm-5.328125 3.53125q0 1.59375 1.3125 1.59375q1.171875 0 2.328125 -0.390625l0.390625 -0.140625l0 -2.859375l-2.5625 0.234375q-0.78125 0.078125 -1.125 0.46875q-0.34375 0.375 -0.34375 1.09375zm7.9000854 2.515625l0 -8.65625l1.296875 0l0 8.65625l-1.296875 0zm0 -10.625l0 -1.5l1.296875 0l0 1.5l-1.296875 0zm5.091736 10.625l-1.296875 0l0 -8.65625l1.28125 0l0 0.59375q1.40625 -0.78125 2.6875 -0.78125q1.734375 0 2.328125 0.9375q0.59375 0.9375 0.59375 3.328125l0 4.578125l-1.28125 0l0 -4.546875q0 -1.796875 -0.359375 -2.453125q-0.34375 -0.671875 -1.515625 -0.671875q-0.546875 0 -1.171875 0.171875q-0.609375 0.15625 -0.9375 0.3125l-0.328125 0.15625l0 7.03125zm9.305115 0l-1.296875 0l0 -8.65625l1.28125 0l0 0.59375q1.296875 -0.78125 2.53125 -0.78125q1.609375 0 2.25 0.890625q0.578125 -0.34375 1.484375 -0.609375q0.90625 -0.28125 1.59375 -0.28125q1.734375 0 2.328125 0.9375q0.609375 0.921875 0.609375 3.328125l0 4.578125l-1.296875 0l0 -4.546875q0 -1.796875 -0.359375 -2.453125q-0.34375 -0.671875 -1.46875 -0.671875q-0.5625 0 -1.171875 0.171875q-0.609375 0.15625 -0.9375 0.3125l-0.328125 0.15625q0.21875 0.5625 0.21875 2.53125l0 4.5l-1.296875 0l0 -4.46875q0 -1.875 -0.34375 -2.53125q-0.328125 -0.671875 -1.46875 -0.671875q-0.5625 0 -1.140625 0.171875q-0.578125 0.15625 -0.890625 0.3125l-0.296875 0.15625l0 7.03125zm19.080017 -1.078125l0.5 -0.046875l0.03125 1.015625q-1.96875 0.28125 -3.375 0.28125q-1.875 0 -2.65625 -1.078125q-0.78125 -1.09375 -0.78125 -3.375q0 -4.5625 3.625 -4.5625q1.75 0 2.609375 0.984375q0.875 0.984375 0.875 3.078125l-0.0625 0.984375l-5.71875 0q0 1.4375 0.515625 2.140625q0.515625 0.6875 1.8125 0.6875q1.296875 0 2.625 -0.109375zm-0.46875 -3.75q0 -1.59375 -0.515625 -2.25q-0.5 -0.671875 -1.65625 -0.671875q-1.15625 0 -1.734375 0.703125q-0.578125 0.6875 -0.59375 2.21875l4.5 0zm4.6256104 4.828125l-1.296875 0l0 -8.65625l1.28125 0l0 0.59375q1.40625 -0.78125 2.6875 -0.78125q1.734375 0 2.328125 0.9375q0.59375 0.9375 0.59375 3.328125l0 4.578125l-1.28125 0l0 -4.546875q0 -1.796875 -0.359375 -2.453125q-0.34375 -0.671875 -1.515625 -0.671875q-0.546875 0 -1.171875 0.171875q-0.609375 0.15625 -0.9375 0.3125l-0.328125 0.15625l0 7.03125zm12.440674 -7.53125l-2.75 0l0 4.140625q0 1.484375 0.203125 1.953125q0.21875 0.46875 1.046875 0.46875l1.53125 -0.109375l0.09375 1.078125q-1.15625 0.1875 -1.765625 0.1875q-1.359375 0 -1.875 -0.65625q-0.515625 -0.65625 -0.515625 -2.515625l0 -4.546875l-1.234375 0l0 -1.125l1.234375 0l0 -2.65625l1.28125 0l0 2.65625l2.75 0l0 1.125z" fill-rule="nonzero"/><path fill="#000000" fill-opacity="0.0" d="m745.61945 26.695538l199.59052 0" fill-rule="evenodd"/><path stroke="#212121" stroke-width="1.0" stroke-linejoin="round" stroke-linecap="butt" d="m745.61945 26.695538l195.20935 0" fill-rule="evenodd"/><path fill="#212121" stroke="#212121" stroke-width="1.0" stroke-linecap="butt" d="m940.82886 26.695538l-1.6705322 1.6705399l4.5897217 -1.6705399l-4.5897217 -1.670538z" fill-rule="evenodd"/><path fill="#ffffff" d="m805.17847 9.368585l80.47247 0l0 30.70866l-80.47247 0z" fill-rule="evenodd"/><path fill="#212121" d="m812.17334 30.962914l0 -8.65625l1.28125 0l0 1.171875q1.5 -1.046875 3.171875 -1.375l0 1.328125q-0.734375 0.125 -1.53125 0.421875q-0.78125 0.296875 -1.1875 0.53125l-0.4375 0.21875l0 6.359375l-1.296875 0zm11.71283 -1.078125l0.5 -0.046875l0.03125 1.015625q-1.96875 0.28125 -3.375 0.28125q-1.875 0 -2.65625 -1.078125q-0.78125 -1.09375 -0.78125 -3.375q0 -4.5625 3.625 -4.5625q1.75 0 2.609375 0.984375q0.875 0.984375 0.875 3.078125l-0.0625 0.984375l-5.71875 0q0 1.4375 0.515625 2.140625q0.515625 0.6875 1.8125 0.6875q1.296875 0 2.625 -0.109375zm-0.46875 -3.75q0 -1.59375 -0.515625 -2.25q-0.5 -0.671875 -1.65625 -0.671875q-1.15625 0 -1.734375 0.703125q-0.578125 0.6875 -0.59375 2.21875l4.5 0zm4.9849854 -2.703125l0 7.53125l-1.296875 0l0 -7.53125l-1.09375 0l0 -1.125l1.09375 0l0 -0.78125q0 -1.84375 0.515625 -2.5q0.53125 -0.671875 1.828125 -0.671875l1.75 0.109375l-0.015625 1.078125q-0.96875 -0.03125 -1.609375 -0.03125q-0.625 0 -0.90625 0.421875q-0.265625 0.40625 -0.265625 1.609375l0 0.765625l2.515625 0l0 1.125l-2.515625 0zm9.813965 6.453125l0.5 -0.046875l0.03125 1.015625q-1.96875 0.28125 -3.375 0.28125q-1.875 0 -2.65625 -1.078125q-0.78125 -1.09375 -0.78125 -3.375q0 -4.5625 3.625 -4.5625q1.75 0 2.609375 0.984375q0.875 0.984375 0.875 3.078125l-0.0625 0.984375l-5.71875 0q0 1.4375 0.515625 2.140625q0.515625 0.6875 1.8125 0.6875q1.296875 0 2.625 -0.109375zm-0.46875 -3.75q0 -1.59375 -0.515625 -2.25q-0.5 -0.671875 -1.65625 -0.671875q-1.15625 0 -1.734375 0.703125q-0.578125 0.6875 -0.59375 2.21875l4.5 0zm3.3287964 4.828125l0 -8.65625l1.28125 0l0 1.171875q1.5 -1.046875 3.171875 -1.375l0 1.328125q-0.734375 0.125 -1.53125 0.421875q-0.78125 0.296875 -1.1875 0.53125l-0.4375 0.21875l0 6.359375l-1.296875 0zm11.712769 -1.078125l0.5 -0.046875l0.03125 1.015625q-1.96875 0.28125 -3.375 0.28125q-1.875 0 -2.65625 -1.078125q-0.78125 -1.09375 -0.78125 -3.375q0 -4.5625 3.625 -4.5625q1.75 0 2.609375 0.984375q0.875 0.984375 0.875 3.078125l-0.0625 0.984375l-5.71875 0q0 1.4375 0.515625 2.140625q0.515625 0.6875 1.8125 0.6875q1.296875 0 2.625 -0.109375zm-0.46875 -3.75q0 -1.59375 -0.515625 -2.25q-0.5 -0.671875 -1.65625 -0.671875q-1.15625 0 -1.734375 0.703125q-0.578125 0.6875 -0.59375 2.21875l4.5 0zm4.6256714 4.828125l-1.296875 0l0 -8.65625l1.28125 0l0 0.59375q1.40625 -0.78125 2.6875 -0.78125q1.734375 0 2.328125 0.9375q0.59375 0.9375 0.59375 3.328125l0 4.578125l-1.28125 0l0 -4.546875q0 -1.796875 -0.359375 -2.453125q-0.34375 -0.671875 -1.515625 -0.671875q-0.546875 0 -1.171875 0.171875q-0.609375 0.15625 -0.9375 0.3125l-0.328125 0.15625l0 7.03125zm11.242615 -8.84375q0.578125 0 1.9375 0.21875l0.421875 0.046875l-0.046875 1.0625q-1.390625 -0.15625 -2.046875 -0.15625q-1.46875 0 -2.0 0.703125q-0.53125 0.703125 -0.53125 2.59375q0 1.890625 0.484375 2.640625q0.5 0.75 2.0625 0.75l2.046875 -0.15625l0.046875 1.078125q-1.609375 0.234375 -2.40625 0.234375q-2.03125 0 -2.796875 -1.03125q-0.765625 -1.046875 -0.765625 -3.515625q0 -2.46875 0.828125 -3.46875q0.828125 -1.0 2.765625 -1.0zm10.1073 7.765625l0.5 -0.046875l0.03125 1.015625q-1.96875 0.28125 -3.375 0.28125q-1.875 0 -2.65625 -1.078125q-0.78125 -1.09375 -0.78125 -3.375q0 -4.5625 3.625 -4.5625q1.75 0 2.609375 0.984375q0.875 0.984375 0.875 3.078125l-0.0625 0.984375l-5.71875 0q0 1.4375 0.515625 2.140625q0.515625 0.6875 1.8125 0.6875q1.296875 0 2.625 -0.109375zm-0.46875 -3.75q0 -1.59375 -0.515625 -2.25q-0.5 -0.671875 -1.65625 -0.671875q-1.15625 0 -1.734375 0.703125q-0.578125 0.6875 -0.59375 2.21875l4.5 0z" fill-rule="nonzero"/></g></svg>