<svg version="1.1" viewBox="0.0 0.0 960.0 540.0" fill="none" stroke="none" stroke-linecap="square" stroke-miterlimit="10" xmlns:xlink="http://www.w3.org/1999/xlink" xmlns="http://www.w3.org/2000/svg"><clipPath id="g260ca5988d4_0_360.0"><path d="m0 0l960.0 0l0 540.0l-960.0 0l0 -540.0z" clip-rule="nonzero"/></clipPath><g clip-path="url(#g260ca5988d4_0_360.0)"><path fill="#ffffff" d="m0 0l960.0 0l0 540.0l-960.0 0z" fill-rule="evenodd"/><path fill="#ffffff" d="m417.49606 67.12861l125.007904 0l0 46.3937l-125.007904 0z" fill-rule="evenodd"/><path stroke="#212121" stroke-width="1.0" stroke-linejoin="round" stroke-linecap="butt" d="m417.49606 67.12861l125.007904 0l0 46.3937l-125.007904 0z" fill-rule="evenodd"/><path fill="#212121" d="m433.06256 84.33921l4.6875 0q1.921875 0 2.875 0.796875q0.96875 0.78125 0.96875 2.484375q0 1.21875 -0.421875 1.90625q-0.421875 0.671875 -1.234375 1.0625q2.046875 0.703125 2.046875 3.03125q0 1.953125 -1.03125 2.796875q-1.015625 0.828125 -2.953125 0.828125l-4.9375 0l0 -12.90625zm4.78125 6.96875l-3.34375 0l0 4.671875l3.4375 0q1.265625 0 1.921875 -0.53125q0.671875 -0.53125 0.671875 -1.875q0 -0.71875 -0.28125 -1.203125q-0.265625 -0.484375 -0.703125 -0.6875q-0.828125 -0.375 -1.703125 -0.375zm-0.140625 -5.703125l-3.203125 0l0 4.453125l3.328125 0q1.1875 0 1.734375 -0.5625q0.5625 -0.578125 0.5625 -1.71875q0 -1.140625 -0.59375 -1.65625q-0.578125 -0.515625 -1.828125 -0.515625zm13.195374 5.125l0 4.78125q0.0625 0.6875 1.09375 0.8125l-0.0625 1.109375q-1.46875 0 -2.21875 -0.75q-1.671875 0.75 -3.359375 0.75q-1.28125 0 -1.953125 -0.71875q-0.671875 -0.734375 -0.671875 -2.09375q0 -1.375 0.6875 -2.015625q0.6875 -0.640625 2.15625 -0.78125l2.9375 -0.28125l0 -0.8125q0 -0.953125 -0.421875 -1.359375q-0.40625 -0.40625 -1.109375 -0.40625q-1.5 0 -3.09375 0.1875l-0.578125 0.046875l-0.0625 -1.0625q2.0625 -0.40625 3.640625 -0.40625q1.59375 0 2.296875 0.734375q0.71875 0.71875 0.71875 2.265625zm-5.734375 3.8125q0 1.71875 1.40625 1.71875q1.28125 0 2.5 -0.4375l0.4375 -0.140625l0 -3.078125l-2.765625 0.25q-0.84375 0.078125 -1.21875 0.5q-0.359375 0.40625 -0.359375 1.1875zm11.424927 -5.5625q-2.03125 0 -2.03125 1.421875q0 0.65625 0.46875 0.921875q0.46875 0.265625 2.125 0.5625q1.671875 0.28125 2.359375 0.8125q0.6875 0.515625 0.6875 1.953125q0 1.4375 -0.921875 2.109375q-0.921875 0.671875 -2.703125 0.671875q-1.15625 0 -2.71875 -0.265625l-0.5625 -0.09375l0.078125 -1.203125q2.125 0.3125 3.203125 0.3125q1.078125 0 1.640625 -0.34375q0.578125 -0.34375 0.578125 -1.15625q0 -0.8125 -0.484375 -1.09375q-0.484375 -0.296875 -2.125 -0.5625q-1.640625 -0.265625 -2.328125 -0.765625q-0.6875 -0.5 -0.6875 -1.859375q0 -1.359375 0.953125 -2.015625q0.96875 -0.65625 2.40625 -0.65625q1.125 0 2.84375 0.265625l0.53125 0.09375l-0.046875 1.1875q-2.0625 -0.296875 -3.265625 -0.296875zm12.097015 7.109375l0.546875 -0.0625l0.03125 1.109375q-2.125 0.296875 -3.640625 0.296875q-2.015625 0 -2.859375 -1.15625q-0.828125 -1.171875 -0.828125 -3.640625q0 -4.90625 3.890625 -4.90625q1.890625 0 2.8125 1.0625q0.9375 1.046875 0.9375 3.296875l-0.078125 1.078125l-6.15625 0q0 1.546875 0.5625 2.296875q0.5625 0.734375 1.953125 0.734375q1.390625 0 2.828125 -0.109375zm-0.5 -4.046875q0 -1.71875 -0.5625 -2.421875q-0.546875 -0.71875 -1.796875 -0.71875q-1.234375 0 -1.859375 0.75q-0.625 0.75 -0.640625 2.390625l4.859375 0zm7.3154907 -6.640625q-2.8125 0 -2.8125 2.109375q0 1.171875 0.640625 1.609375q0.65625 0.4375 2.625 0.875q1.96875 0.4375 2.78125 1.140625q0.828125 0.703125 0.828125 2.296875q0 3.984375 -4.125 3.984375q-1.359375 0 -3.421875 -0.328125l-0.671875 -0.09375l0.15625 -1.1875q2.53125 0.34375 3.859375 0.34375q2.765625 0 2.765625 -2.59375q0 -1.046875 -0.609375 -1.5q-0.609375 -0.46875 -2.265625 -0.78125q-2.1875 -0.46875 -3.109375 -1.203125q-0.90625 -0.734375 -0.90625 -2.46875q0 -3.46875 4.171875 -3.46875q1.359375 0 3.265625 0.28125l0.625 0.078125l-0.125 1.21875q-2.59375 -0.3125 -3.671875 -0.3125zm12.642944 10.6875l0.546875 -0.0625l0.03125 1.109375q-2.125 0.296875 -3.640625 0.296875q-2.015625 0 -2.859375 -1.15625q-0.828125 -1.171875 -0.828125 -3.640625q0 -4.90625 3.890625 -4.90625q1.890625 0 2.8125 1.0625q0.9375 1.046875 0.9375 3.296875l-0.078125 1.078125l-6.15625 0q0 1.546875 0.5625 2.296875q0.5625 0.734375 1.953125 0.734375q1.390625 0 2.828125 -0.109375zm-0.5 -4.046875q0 -1.71875 -0.5625 -2.421875q-0.546875 -0.71875 -1.796875 -0.71875q-1.234375 0 -1.859375 0.75q-0.625 0.75 -0.640625 2.390625l4.859375 0zm7.0620117 -4.3125q0.625 0 2.09375 0.21875l0.453125 0.0625l-0.0625 1.140625q-1.484375 -0.171875 -2.203125 -0.171875q-1.578125 0 -2.15625 0.765625q-0.5625 0.75 -0.5625 2.796875q0 2.03125 0.53125 2.84375q0.53125 0.796875 2.203125 0.796875l2.203125 -0.171875l0.0625 1.15625q-1.734375 0.265625 -2.59375 0.265625q-2.1875 0 -3.015625 -1.109375q-0.828125 -1.125 -0.828125 -3.78125q0 -2.671875 0.890625 -3.734375q0.90625 -1.078125 2.984375 -1.078125zm9.477875 1.40625l-2.96875 0l0 4.453125q0 1.609375 0.234375 2.109375q0.234375 0.5 1.109375 0.5l1.671875 -0.109375l0.09375 1.15625q-1.25 0.203125 -1.90625 0.203125q-1.453125 0 -2.015625 -0.703125q-0.5625 -0.71875 -0.5625 -2.703125l0 -4.90625l-1.328125 0l0 -1.21875l1.328125 0l0 -2.859375l1.375 0l0 2.859375l2.96875 0l0 1.21875zm1.7202148 8.109375l0 -9.328125l1.40625 0l0 9.328125l-1.40625 0zm0 -11.4375l0 -1.625l1.40625 0l0 1.625l-1.40625 0zm3.6794739 6.765625q0 -2.5625 0.90625 -3.703125q0.921875 -1.140625 3.0937805 -1.140625q2.171875 0 3.078125 1.140625q0.90625 1.140625 0.90625 3.703125q0 2.546875 -0.859375 3.703125q-0.859375 1.15625 -3.140625 1.15625q-2.2656555 0 -3.1250305 -1.15625q-0.859375 -1.15625 -0.859375 -3.703125zm1.4375 -0.03125q0 2.03125 0.484375 2.859375q0.5000305 0.8125 2.0781555 0.8125q1.578125 0 2.0625 -0.8125q0.484375 -0.8125 0.484375 -2.859375q0 -2.046875 -0.546875 -2.8125q-0.53125 -0.78125 -2.0 -0.78125q-1.46875 0 -2.0156555 0.78125q-0.546875 0.765625 -0.546875 2.8125zm10.225494 4.703125l-1.40625 0l0 -9.328125l1.375 0l0 0.65625q1.515625 -0.84375 2.890625 -0.84375q1.875 0 2.515625 1.015625q0.640625 1.0 0.640625 3.578125l0 4.921875l-1.375 0l0 -4.890625q0 -1.9375 -0.390625 -2.65625q-0.375 -0.71875 -1.625 -0.71875q-0.59375 0 -1.265625 0.1875q-0.65625 0.171875 -1.015625 0.328125l-0.34375 0.171875l0 7.578125z" fill-rule="nonzero"/><path fill="#ffffff" d="m270.44226 284.91077l138.2992 0l0 46.393707l-138.2992 0z" fill-rule="evenodd"/><path stroke="#212121" stroke-width="1.0" stroke-linejoin="round" stroke-linecap="butt" d="m270.44226 284.91077l138.2992 0l0 46.393707l-138.2992 0z" fill-rule="evenodd"/><path fill="#212121" d="m286.09686 315.02762l0 -12.90625l2.59375 0l3.65625 10.90625l3.671875 -10.90625l2.578125 0l0 12.90625l-1.421875 0l0 -11.375l-0.265625 0l-3.75 10.90625l-1.609375 0l-3.75 -10.90625l-0.265625 0l0 11.375l-1.4375 0zm21.687286 -1.15625l0.546875 -0.0625l0.03125 1.109375q-2.125 0.296875 -3.640625 0.296875q-2.015625 0 -2.859375 -1.15625q-0.828125 -1.171875 -0.828125 -3.640625q0 -4.90625 3.890625 -4.90625q1.890625 0 2.8125 1.0625q0.9375 1.046875 0.9375 3.296875l-0.078125 1.078125l-6.15625 0q0 1.546875 0.5625 2.296875q0.5625 0.734375 1.953125 0.734375q1.390625 0 2.828125 -0.109375zm-0.5 -4.046875q0 -1.71875 -0.5625 -2.421875q-0.546875 -0.71875 -1.796875 -0.71875q-1.234375 0 -1.859375 0.75q-0.625 0.75 -0.640625 2.390625l4.859375 0zm10.155762 -1.3125l0 4.78125q0.0625 0.6875 1.09375 0.8125l-0.0625 1.109375q-1.46875 0 -2.21875 -0.75q-1.671875 0.75 -3.359375 0.75q-1.28125 0 -1.953125 -0.71875q-0.671875 -0.734375 -0.671875 -2.09375q0 -1.375 0.6875 -2.015625q0.6875 -0.640625 2.15625 -0.78125l2.9375 -0.28125l0 -0.8125q0 -0.953125 -0.421875 -1.359375q-0.40625 -0.40625 -1.109375 -0.40625q-1.5 0 -3.09375 0.1875l-0.578125 0.046875l-0.0625 -1.0625q2.0625 -0.40625 3.640625 -0.40625q1.59375 0 2.296875 0.734375q0.71875 0.71875 0.71875 2.265625zm-5.734375 3.8125q0 1.71875 1.40625 1.71875q1.28125 0 2.5 -0.4375l0.4375 -0.140625l0 -3.078125l-2.765625 0.25q-0.84375 0.078125 -1.21875 0.5q-0.359375 0.40625 -0.359375 1.1875zm11.424927 -5.5625q-2.03125 0 -2.03125 1.421875q0 0.65625 0.46875 0.921875q0.46875 0.265625 2.125 0.5625q1.671875 0.28125 2.359375 0.8125q0.6875 0.515625 0.6875 1.953125q0 1.4375 -0.921875 2.109375q-0.921875 0.671875 -2.703125 0.671875q-1.15625 0 -2.71875 -0.265625l-0.5625 -0.09375l0.078125 -1.203125q2.125 0.3125 3.203125 0.3125q1.078125 0 1.640625 -0.34375q0.578125 -0.34375 0.578125 -1.15625q0 -0.8125 -0.484375 -1.09375q-0.484375 -0.296875 -2.125 -0.5625q-1.640625 -0.265625 -2.328125 -0.765625q-0.6875 -0.5 -0.6875 -1.859375q0 -1.359375 0.953125 -2.015625q0.96875 -0.65625 2.40625 -0.65625q1.125 0 2.84375 0.265625l0.53125 0.09375l-0.046875 1.1875q-2.0625 -0.296875 -3.265625 -0.296875zm11.565765 -1.0625l1.40625 0l0 9.328125l-1.40625 0l0 -0.65625q-1.390625 0.84375 -2.75 0.84375q-1.90625 0 -2.53125 -0.984375q-0.625 -1.0 -0.625 -3.65625l0 -4.875l1.40625 0l0 4.84375q0 2.046875 0.34375 2.734375q0.359375 0.6875 1.609375 0.6875q0.609375 0 1.25 -0.171875q0.640625 -0.1875 0.96875 -0.34375l0.328125 -0.171875l0 -7.578125zm4.0939636 9.328125l0 -9.328125l1.375 0l0 1.265625q1.625 -1.109375 3.421875 -1.46875l0 1.421875q-0.78125 0.140625 -1.640625 0.46875q-0.84375 0.3125 -1.296875 0.546875l-0.453125 0.25l0 6.84375l-1.40625 0zm12.612152 -1.15625l0.546875 -0.0625l0.03125 1.109375q-2.125 0.296875 -3.640625 0.296875q-2.015625 0 -2.859375 -1.15625q-0.828125 -1.171875 -0.828125 -3.640625q0 -4.90625 3.890625 -4.90625q1.890625 0 2.8125 1.0625q0.9375 1.046875 0.9375 3.296875l-0.078125 1.078125l-6.15625 0q0 1.546875 0.5625 2.296875q0.5625 0.734375 1.953125 0.734375q1.390625 0 2.828125 -0.109375zm-0.5 -4.046875q0 -1.71875 -0.5625 -2.421875q-0.546875 -0.71875 -1.796875 -0.71875q-1.234375 0 -1.859375 0.75q-0.625 0.75 -0.640625 2.390625l4.859375 0zm4.9838867 5.203125l-1.40625 0l0 -9.328125l1.375 0l0 0.65625q1.40625 -0.84375 2.734375 -0.84375q1.734375 0 2.421875 0.953125q0.609375 -0.375 1.59375 -0.65625q0.984375 -0.296875 1.71875 -0.296875q1.875 0 2.515625 1.0q0.640625 1.0 0.640625 3.59375l0 4.921875l-1.390625 0l0 -4.890625q0 -1.9375 -0.375 -2.65625q-0.375 -0.71875 -1.59375 -0.71875q-0.609375 0 -1.265625 0.1875q-0.65625 0.171875 -1.0 0.328125l-0.359375 0.171875q0.234375 0.625 0.234375 2.734375l0 4.84375l-1.390625 0l0 -4.8125q0 -2.015625 -0.375 -2.734375q-0.359375 -0.71875 -1.578125 -0.71875q-0.609375 0 -1.234375 0.1875q-0.625 0.171875 -0.953125 0.328125l-0.3125 0.171875l0 7.578125zm20.53415 -1.15625l0.546875 -0.0625l0.03125 1.109375q-2.125 0.296875 -3.640625 0.296875q-2.015625 0 -2.859375 -1.15625q-0.828125 -1.171875 -0.828125 -3.640625q0 -4.90625 3.890625 -4.90625q1.890625 0 2.8125 1.0625q0.9375 1.046875 0.9375 3.296875l-0.078125 1.078125l-6.15625 0q0 1.546875 0.5625 2.296875q0.5625 0.734375 1.953125 0.734375q1.390625 0 2.828125 -0.109375zm-0.5 -4.046875q0 -1.71875 -0.5625 -2.421875q-0.546875 -0.71875 -1.796875 -0.71875q-1.234375 0 -1.859375 0.75q-0.625 0.75 -0.640625 2.390625l4.859375 0zm4.9838867 5.203125l-1.40625 0l0 -9.328125l1.375 0l0 0.65625q1.515625 -0.84375 2.890625 -0.84375q1.875 0 2.515625 1.015625q0.640625 1.0 0.640625 3.578125l0 4.921875l-1.375 0l0 -4.890625q0 -1.9375 -0.390625 -2.65625q-0.375 -0.71875 -1.625 -0.71875q-0.59375 0 -1.265625 0.1875q-0.65625 0.171875 -1.015625 0.328125l-0.34375 0.171875l0 7.578125zm13.384277 -8.109375l-2.96875 0l0 4.453125q0 1.609375 0.234375 2.109375q0.234375 0.5 1.109375 0.5l1.671875 -0.109375l0.09375 1.15625q-1.25 0.203125 -1.90625 0.203125q-1.453125 0 -2.015625 -0.703125q-0.5625 -0.71875 -0.5625 -2.703125l0 -4.90625l-1.328125 0l0 -1.21875l1.328125 0l0 -2.859375l1.375 0l0 2.859375l2.96875 0l0 1.21875z" fill-rule="nonzero"/><path fill="#ffffff" d="m417.17847 284.91077l125.00787 0l0 46.393707l-125.00787 0z" fill-rule="evenodd"/><path stroke="#212121" stroke-width="1.0" stroke-linejoin="round" stroke-linecap="butt" d="m417.17847 284.91077l125.00787 0l0 46.393707l-125.00787 0z" fill-rule="evenodd"/><path fill="#212121" d="m447.5804 315.02762l3.546875 -12.90625l3.125 0l3.546875 12.90625l-1.421875 0l-0.921875 -3.328125l-5.53125 0l-0.9375 3.328125l-1.40625 0zm4.625 -11.671875l-1.96875 7.0625l4.890625 0l-1.953125 -7.0625l-0.96875 0zm8.791016 11.671875l-1.40625 0l0 -9.328125l1.375 0l0 0.65625q1.515625 -0.84375 2.890625 -0.84375q1.875 0 2.515625 1.015625q0.640625 1.0 0.640625 3.578125l0 4.921875l-1.375 0l0 -4.890625q0 -1.9375 -0.390625 -2.65625q-0.375 -0.71875 -1.625 -0.71875q-0.59375 0 -1.265625 0.1875q-0.65625 0.171875 -1.015625 0.328125l-0.34375 0.171875l0 7.578125zm15.190277 -6.515625l0 4.78125q0.0625 0.6875 1.09375 0.8125l-0.0625 1.109375q-1.46875 0 -2.21875 -0.75q-1.671875 0.75 -3.359375 0.75q-1.28125 0 -1.953125 -0.71875q-0.671875 -0.734375 -0.671875 -2.09375q0 -1.375 0.6875 -2.015625q0.6875 -0.640625 2.15625 -0.78125l2.9375 -0.28125l0 -0.8125q0 -0.953125 -0.421875 -1.359375q-0.40625 -0.40625 -1.109375 -0.40625q-1.5 0 -3.09375 0.1875l-0.578125 0.046875l-0.0625 -1.0625q2.0625 -0.40625 3.640625 -0.40625q1.59375 0 2.296875 0.734375q0.71875 0.71875 0.71875 2.265625zm-5.734375 3.8125q0 1.71875 1.40625 1.71875q1.28125 0 2.5 -0.4375l0.4375 -0.140625l0 -3.078125l-2.765625 0.25q-0.84375 0.078125 -1.21875 0.5q-0.359375 0.40625 -0.359375 1.1875zm8.612396 2.703125l0 -13.390625l1.40625 0l0 13.390625l-1.40625 0zm3.3252258 -9.328125l1.390625 0l2.34375 8.109375l0.609375 0l2.34375 -8.109375l1.40625 0l-3.875 13.46875l-1.40625 0l1.21875 -4.140625l-1.390625 0l-2.640625 -9.328125zm12.677185 1.0625q-2.03125 0 -2.03125 1.421875q0 0.65625 0.46875 0.921875q0.46875 0.265625 2.125 0.5625q1.671875 0.28125 2.359375 0.8125q0.6875 0.515625 0.6875 1.953125q0 1.4375 -0.921875 2.109375q-0.921875 0.671875 -2.703125 0.671875q-1.15625 0 -2.71875 -0.265625l-0.5625 -0.09375l0.078125 -1.203125q2.125 0.3125 3.203125 0.3125q1.078125 0 1.640625 -0.34375q0.578125 -0.34375 0.578125 -1.15625q0 -0.8125 -0.484375 -1.09375q-0.484375 -0.296875 -2.125 -0.5625q-1.640625 -0.265625 -2.328125 -0.765625q-0.6875 -0.5 -0.6875 -1.859375q0 -1.359375 0.953125 -2.015625q0.96875 -0.65625 2.40625 -0.65625q1.125 0 2.84375 0.265625l0.53125 0.09375l-0.046875 1.1875q-2.0625 -0.296875 -3.265625 -0.296875zm5.7532654 8.265625l0 -9.328125l1.40625 0l0 9.328125l-1.40625 0zm0 -11.4375l0 -1.625l1.40625 0l0 1.625l-1.40625 0zm7.007599 3.171875q-2.03125 0 -2.03125 1.421875q0 0.65625 0.46875 0.921875q0.46875 0.265625 2.125 0.5625q1.671875 0.28125 2.359375 0.8125q0.6875 0.515625 0.6875 1.953125q0 1.4375 -0.921875 2.109375q-0.921875 0.671875 -2.703125 0.671875q-1.15625 0 -2.71875 -0.265625l-0.5625 -0.09375l0.078125 -1.203125q2.125 0.3125 3.203125 0.3125q1.078125 0 1.640625 -0.34375q0.578125 -0.34375 0.578125 -1.15625q0 -0.8125 -0.484375 -1.09375q-0.484375 -0.296875 -2.125 -0.5625q-1.640625 -0.265625 -2.328125 -0.765625q-0.6875 -0.5 -0.6875 -1.859375q0 -1.359375 0.953125 -2.015625q0.96875 -0.65625 2.40625 -0.65625q1.125 0 2.84375 0.265625l0.53125 0.09375l-0.046875 1.1875q-2.0625 -0.296875 -3.265625 -0.296875z" fill-rule="nonzero"/><path fill="#000000" fill-opacity="0.0" d="m479.6824 284.91077l0 -33.00128l-228.03148 0l0 -33.014465" fill-rule="evenodd"/><path stroke="#212121" stroke-width="1.0" stroke-linejoin="round" stroke-linecap="butt" d="m479.6824 284.91077l0 -33.00128l-228.03148 0l0 -25.514465" fill-rule="evenodd"/><path stroke="#212121" stroke-width="1.0" stroke-linecap="butt" d="m253.8486 226.39502l-2.1976776 -6.038101l-2.1976929 6.038101z" fill-rule="evenodd"/><path fill="#ffffff" d="m137.0 284.91077l125.00787 0l0 46.393707l-125.00787 0z" fill-rule="evenodd"/><path stroke="#212121" stroke-width="1.0" stroke-linejoin="round" stroke-linecap="butt" d="m137.0 284.91077l125.00787 0l0 46.393707l-125.00787 0z" fill-rule="evenodd"/><path fill="#212121" d="m174.82849 310.68387l-3.296875 0l0 4.34375l-1.4375 0l0 -12.90625l4.734375 0q2.09375 0 3.09375 1.03125q1.015625 1.015625 1.015625 3.125q0 4.40625 -4.109375 4.40625zm-3.296875 -1.265625l3.265625 0q2.671875 0 2.671875 -3.140625q0 -1.5 -0.640625 -2.1875q-0.625 -0.703125 -2.03125 -0.703125l-3.265625 0l0 6.03125zm9.391296 5.609375l0 -9.328125l1.375 0l0 1.265625q1.625 -1.109375 3.421875 -1.46875l0 1.421875q-0.78125 0.140625 -1.640625 0.46875q-0.84375 0.3125 -1.296875 0.546875l-0.453125 0.25l0 6.84375l-1.40625 0zm5.8621216 -4.671875q0 -2.5625 0.90625 -3.703125q0.921875 -1.140625 3.09375 -1.140625q2.171875 0 3.078125 1.140625q0.90625 1.140625 0.90625 3.703125q0 2.546875 -0.859375 3.703125q-0.859375 1.15625 -3.140625 1.15625q-2.265625 0 -3.125 -1.15625q-0.859375 -1.15625 -0.859375 -3.703125zm1.4375 -0.03125q0 2.03125 0.484375 2.859375q0.5 0.8125 2.078125 0.8125q1.578125 0 2.0625 -0.8125q0.484375 -0.8125 0.484375 -2.859375q0 -2.046875 -0.546875 -2.8125q-0.53125 -0.78125 -2.0 -0.78125q-1.46875 0 -2.015625 0.78125q-0.546875 0.765625 -0.546875 2.8125zm12.30365 -4.8125q0.625 0 2.09375 0.21875l0.453125 0.0625l-0.0625 1.140625q-1.484375 -0.171875 -2.203125 -0.171875q-1.578125 0 -2.15625 0.765625q-0.5625 0.75 -0.5625 2.796875q0 2.03125 0.53125 2.84375q0.53125 0.796875 2.203125 0.796875l2.203125 -0.171875l0.0625 1.15625q-1.734375 0.265625 -2.59375 0.265625q-2.1875 0 -3.015625 -1.109375q-0.828125 -1.125 -0.828125 -3.78125q0 -2.671875 0.890625 -3.734375q0.90625 -1.078125 2.984375 -1.078125zm10.88147 8.359375l0.546875 -0.0625l0.03125 1.109375q-2.125 0.296875 -3.640625 0.296875q-2.015625 0 -2.859375 -1.15625q-0.828125 -1.171875 -0.828125 -3.640625q0 -4.90625 3.890625 -4.90625q1.890625 0 2.8125 1.0625q0.9375 1.046875 0.9375 3.296875l-0.078125 1.078125l-6.15625 0q0 1.546875 0.5625 2.296875q0.5625 0.734375 1.953125 0.734375q1.390625 0 2.828125 -0.109375zm-0.5 -4.046875q0 -1.71875 -0.5625 -2.421875q-0.546875 -0.71875 -1.796875 -0.71875q-1.234375 0 -1.859375 0.75q-0.625 0.75 -0.640625 2.390625l4.859375 0zm6.499542 -3.0625q-2.03125 0 -2.03125 1.421875q0 0.65625 0.46875 0.921875q0.46875 0.265625 2.125 0.5625q1.671875 0.28125 2.359375 0.8125q0.6875 0.515625 0.6875 1.953125q0 1.4375 -0.921875 2.109375q-0.921875 0.671875 -2.703125 0.671875q-1.15625 0 -2.71875 -0.265625l-0.5625 -0.09375l0.078125 -1.203125q2.125 0.3125 3.203125 0.3125q1.078125 0 1.640625 -0.34375q0.578125 -0.34375 0.578125 -1.15625q0 -0.8125 -0.484375 -1.09375q-0.484375 -0.296875 -2.125 -0.5625q-1.640625 -0.265625 -2.328125 -0.765625q-0.6875 -0.5 -0.6875 -1.859375q0 -1.359375 0.953125 -2.015625q0.96875 -0.65625 2.40625 -0.65625q1.125 0 2.84375 0.265625l0.53125 0.09375l-0.046875 1.1875q-2.0625 -0.296875 -3.265625 -0.296875zm8.67514 0q-2.03125 0 -2.03125 1.421875q0 0.65625 0.46875 0.921875q0.46875 0.265625 2.125 0.5625q1.671875 0.28125 2.359375 0.8125q0.6875 0.515625 0.6875 1.953125q0 1.4375 -0.921875 2.109375q-0.921875 0.671875 -2.703125 0.671875q-1.15625 0 -2.71875 -0.265625l-0.5625 -0.09375l0.078125 -1.203125q2.125 0.3125 3.203125 0.3125q1.078125 0 1.640625 -0.34375q0.578125 -0.34375 0.578125 -1.15625q0 -0.8125 -0.484375 -1.09375q-0.484375 -0.296875 -2.125 -0.5625q-1.640625 -0.265625 -2.328125 -0.765625q-0.6875 -0.5 -0.6875 -1.859375q0 -1.359375 0.953125 -2.015625q0.96875 -0.65625 2.40625 -0.65625q1.125 0 2.84375 0.265625l0.53125 0.09375l-0.046875 1.1875q-2.0625 -0.296875 -3.265625 -0.296875z" fill-rule="nonzero"/><path fill="#000000" fill-opacity="0.0" d="m199.50394 284.91077l0 -33.00128l52.157486 0l0 -33.014465" fill-rule="evenodd"/><path stroke="#212121" stroke-width="1.0" stroke-linejoin="round" stroke-linecap="butt" d="m199.50394 284.91077l0 -33.00128l52.157486 0l0 -25.514465" fill-rule="evenodd"/><path stroke="#212121" stroke-width="1.0" stroke-linecap="butt" d="m253.8591 226.39502l-2.1976776 -6.038101l-2.1976929 6.038101z" fill-rule="evenodd"/><path fill="#ffffff" d="m832.5827 284.91077l125.00787 0l0 46.393707l-125.00787 0z" fill-rule="evenodd"/><path stroke="#212121" stroke-width="1.0" stroke-linejoin="round" stroke-linecap="butt" d="m832.5827 284.91077l125.00787 0l0 46.393707l-125.00787 0z" fill-rule="evenodd"/><path fill="#212121" d="m852.80396 315.02762l0 -12.90625l1.4375 0l0 12.90625l-1.4375 0zm5.7612915 0l-1.40625 0l0 -9.328125l1.375 0l0 0.65625q1.515625 -0.84375 2.890625 -0.84375q1.875 0 2.515625 1.015625q0.640625 1.0 0.640625 3.578125l0 4.921875l-1.375 0l0 -4.890625q0 -1.9375 -0.390625 -2.65625q-0.375 -0.71875 -1.625 -0.71875q-0.59375 0 -1.265625 0.1875q-0.65625 0.171875 -1.015625 0.328125l-0.34375 0.171875l0 7.578125zm11.533997 -8.265625q-2.03125 0 -2.03125 1.421875q0 0.65625 0.46875 0.921875q0.46875 0.265625 2.125 0.5625q1.671875 0.28125 2.359375 0.8125q0.6875 0.515625 0.6875 1.953125q0 1.4375 -0.921875 2.109375q-0.921875 0.671875 -2.703125 0.671875q-1.15625 0 -2.71875 -0.265625l-0.5625 -0.09375l0.078125 -1.203125q2.125 0.3125 3.203125 0.3125q1.078125 0 1.640625 -0.34375q0.578125 -0.34375 0.578125 -1.15625q0 -0.8125 -0.484375 -1.09375q-0.484375 -0.296875 -2.125 -0.5625q-1.640625 -0.265625 -2.328125 -0.765625q-0.6875 -0.5 -0.6875 -1.859375q0 -1.359375 0.953125 -2.015625q0.96875 -0.65625 2.40625 -0.65625q1.125 0 2.84375 0.265625l0.53125 0.09375l-0.046875 1.1875q-2.0625 -0.296875 -3.265625 -0.296875zm10.581421 0.15625l-2.96875 0l0 4.453125q0 1.609375 0.234375 2.109375q0.234375 0.5 1.109375 0.5l1.671875 -0.109375l0.09375 1.15625q-1.25 0.203125 -1.90625 0.203125q-1.453125 0 -2.015625 -0.703125q-0.5625 -0.71875 -0.5625 -2.703125l0 -4.90625l-1.328125 0l0 -1.21875l1.328125 0l0 -2.859375l1.375 0l0 2.859375l2.96875 0l0 1.21875zm1.7202148 8.109375l0 -9.328125l1.375 0l0 1.265625q1.625 -1.109375 3.421875 -1.46875l0 1.421875q-0.78125 0.140625 -1.640625 0.46875q-0.84375 0.3125 -1.296875 0.546875l-0.453125 0.25l0 6.84375l-1.40625 0zm12.267578 -9.328125l1.40625 0l0 9.328125l-1.40625 0l0 -0.65625q-1.390625 0.84375 -2.75 0.84375q-1.90625 0 -2.53125 -0.984375q-0.625 -1.0 -0.625 -3.65625l0 -4.875l1.40625 0l0 4.84375q0 2.046875 0.34375 2.734375q0.359375 0.6875 1.609375 0.6875q0.609375 0 1.25 -0.171875q0.640625 -0.1875 0.96875 -0.34375l0.328125 -0.171875l0 -7.578125zm5.500183 9.328125l-1.40625 0l0 -9.328125l1.375 0l0 0.65625q1.40625 -0.84375 2.734375 -0.84375q1.734375 0 2.421875 0.953125q0.609375 -0.375 1.59375 -0.65625q0.984375 -0.296875 1.71875 -0.296875q1.875 0 2.515625 1.0q0.640625 1.0 0.640625 3.59375l0 4.921875l-1.390625 0l0 -4.890625q0 -1.9375 -0.375 -2.65625q-0.375 -0.71875 -1.59375 -0.71875q-0.609375 0 -1.265625 0.1875q-0.65625 0.171875 -1.0 0.328125l-0.359375 0.171875q0.234375 0.625 0.234375 2.734375l0 4.84375l-1.390625 0l0 -4.8125q0 -2.015625 -0.375 -2.734375q-0.359375 -0.71875 -1.578125 -0.71875q-0.609375 0 -1.234375 0.1875q-0.625 0.171875 -0.953125 0.328125l-0.3125 0.171875l0 7.578125zm20.53418 -1.15625l0.546875 -0.0625l0.03125 1.109375q-2.125 0.296875 -3.640625 0.296875q-2.015625 0 -2.859375 -1.15625q-0.828125 -1.171875 -0.828125 -3.640625q0 -4.90625 3.890625 -4.90625q1.890625 0 2.8125 1.0625q0.9375 1.046875 0.9375 3.296875l-0.078125 1.078125l-6.15625 0q0 1.546875 0.5625 2.296875q0.5625 0.734375 1.953125 0.734375q1.390625 0 2.828125 -0.109375zm-0.5 -4.046875q0 -1.71875 -0.5625 -2.421875q-0.546875 -0.71875 -1.796875 -0.71875q-1.234375 0 -1.859375 0.75q-0.625 0.75 -0.640625 2.390625l4.859375 0zm4.9838867 5.203125l-1.40625 0l0 -9.328125l1.375 0l0 0.65625q1.515625 -0.84375 2.890625 -0.84375q1.875 0 2.515625 1.015625q0.640625 1.0 0.640625 3.578125l0 4.921875l-1.375 0l0 -4.890625q0 -1.9375 -0.390625 -2.65625q-0.375 -0.71875 -1.625 -0.71875q-0.59375 0 -1.265625 0.1875q-0.65625 0.171875 -1.015625 0.328125l-0.34375 0.171875l0 7.578125zm13.384277 -8.109375l-2.96875 0l0 4.453125q0 1.609375 0.234375 2.109375q0.234375 0.5 1.109375 0.5l1.671875 -0.109375l0.09375 1.15625q-1.25 0.203125 -1.90625 0.203125q-1.453125 0 -2.015625 -0.703125q-0.5625 -0.71875 -0.5625 -2.703125l0 -4.90625l-1.328125 0l0 -1.21875l1.328125 0l0 -2.859375l1.375 0l0 2.859375l2.96875 0l0 1.21875z" fill-rule="nonzero"/><path fill="#000000" fill-opacity="0.0" d="m895.0866 284.91077l0 -33.00128l-133.98425 0l0 -33.014465" fill-rule="evenodd"/><path stroke="#212121" stroke-width="1.0" stroke-linejoin="round" stroke-linecap="butt" d="m895.0866 284.91077l0 -33.00128l-133.98425 0l0 -25.514465" fill-rule="evenodd"/><path stroke="#212121" stroke-width="1.0" stroke-linecap="butt" d="m763.30005 226.39502l-2.1976929 -6.038101l-2.1976929 6.038101z" fill-rule="evenodd"/><path fill="#ffffff" d="m780.8609 394.67453l138.2992 0l0 46.393707l-138.2992 0z" fill-rule="evenodd"/><path stroke="#212121" stroke-width="1.0" stroke-linejoin="round" stroke-linecap="butt" d="m780.8609 394.67453l138.2992 0l0 46.393707l-138.2992 0z" fill-rule="evenodd"/><path fill="#212121" d="m797.0989 420.44763l-3.296875 0l0 4.34375l-1.4375 0l0 -12.90625l4.734375 0q2.09375 0 3.09375 1.03125q1.015625 1.015625 1.015625 3.125q0 4.40625 -4.109375 4.40625zm-3.296875 -1.265625l3.265625 0q2.671875 0 2.671875 -3.140625q0 -1.5 -0.640625 -2.1875q-0.625 -0.703125 -2.03125 -0.703125l-3.265625 0l0 6.03125zm15.203735 -3.71875l1.40625 0l0 9.328125l-1.40625 0l0 -0.65625q-1.390625 0.84375 -2.75 0.84375q-1.90625 0 -2.53125 -0.984375q-0.625 -1.0 -0.625 -3.65625l0 -4.875l1.40625 0l0 4.84375q0 2.046875 0.34375 2.734375q0.359375 0.6875 1.609375 0.6875q0.609375 0 1.25 -0.171875q0.640625 -0.1875 0.96875 -0.34375l0.328125 -0.171875l0 -7.578125zm4.093994 9.328125l0 -9.328125l1.375 0l0 1.265625q1.625 -1.109375 3.421875 -1.46875l0 1.421875q-0.78125 0.140625 -1.640625 0.46875q-0.84375 0.3125 -1.296875 0.546875l-0.453125 0.25l0 6.84375l-1.40625 0zm12.612122 -1.15625l0.546875 -0.0625l0.03125 1.109375q-2.125 0.296875 -3.640625 0.296875q-2.015625 0 -2.859375 -1.15625q-0.828125 -1.171875 -0.828125 -3.640625q0 -4.90625 3.890625 -4.90625q1.890625 0 2.8125 1.0625q0.9375 1.046875 0.9375 3.296875l-0.078125 1.078125l-6.15625 0q0 1.546875 0.5625 2.296875q0.5625 0.734375 1.953125 0.734375q1.390625 0 2.828125 -0.109375zm-0.5 -4.046875q0 -1.71875 -0.5625 -2.421875q-0.546875 -0.71875 -1.796875 -0.71875q-1.234375 0 -1.859375 0.75q-0.625 0.75 -0.640625 2.390625l4.859375 0zm7.3154907 -6.640625q-2.8125 0 -2.8125 2.109375q0 1.171875 0.640625 1.609375q0.65625 0.4375 2.625 0.875q1.96875 0.4375 2.78125 1.140625q0.828125 0.703125 0.828125 2.296875q0 3.984375 -4.125 3.984375q-1.359375 0 -3.421875 -0.328125l-0.671875 -0.09375l0.15625 -1.1875q2.53125 0.34375 3.859375 0.34375q2.765625 0 2.765625 -2.59375q0 -1.046875 -0.609375 -1.5q-0.609375 -0.46875 -2.265625 -0.78125q-2.1875 -0.46875 -3.109375 -1.203125q-0.90625 -0.734375 -0.90625 -2.46875q0 -3.46875 4.171875 -3.46875q1.359375 0 3.265625 0.28125l0.625 0.078125l-0.125 1.21875q-2.59375 -0.3125 -3.671875 -0.3125zm12.111694 2.515625l1.40625 0l0 9.328125l-1.40625 0l0 -0.65625q-1.390625 0.84375 -2.75 0.84375q-1.90625 0 -2.53125 -0.984375q-0.625 -1.0 -0.625 -3.65625l0 -4.875l1.40625 0l0 4.84375q0 2.046875 0.34375 2.734375q0.359375 0.6875 1.609375 0.6875q0.609375 0 1.25 -0.171875q0.640625 -0.1875 0.96875 -0.34375l0.328125 -0.171875l0 -7.578125zm8.218933 -0.1875q1.875 0 2.625 1.078125q0.765625 1.0625 0.765625 3.75q0 2.6875 -0.9375 3.78125q-0.9375 1.09375 -3.46875 1.09375q-0.78125 0 -2.59375 -0.15625l-0.515625 -0.046875l0 -13.375l1.375 0l0 4.53125q1.421875 -0.65625 2.75 -0.65625zm-1.03125 8.453125q1.828125 0 2.40625 -0.828125q0.59375 -0.828125 0.59375 -2.796875q0 -1.984375 -0.46875 -2.78125q-0.453125 -0.796875 -1.65625 -0.796875q-1.078125 0 -2.21875 0.40625l-0.375 0.140625l0 6.5625q1.21875 0.09375 1.71875 0.09375zm9.641357 -7.203125q-2.03125 0 -2.03125 1.421875q0 0.65625 0.46875 0.921875q0.46875 0.265625 2.125 0.5625q1.671875 0.28125 2.359375 0.8125q0.6875 0.515625 0.6875 1.953125q0 1.4375 -0.921875 2.109375q-0.921875 0.671875 -2.703125 0.671875q-1.15625 0 -2.71875 -0.265625l-0.5625 -0.09375l0.078125 -1.203125q2.125 0.3125 3.203125 0.3125q1.078125 0 1.640625 -0.34375q0.578125 -0.34375 0.578125 -1.15625q0 -0.8125 -0.484375 -1.09375q-0.484375 -0.296875 -2.125 -0.5625q-1.640625 -0.265625 -2.328125 -0.765625q-0.6875 -0.5 -0.6875 -1.859375q0 -1.359375 0.953125 -2.015625q0.96875 -0.65625 2.40625 -0.65625q1.125 0 2.84375 0.265625l0.53125 0.09375l-0.046875 1.1875q-2.0625 -0.296875 -3.265625 -0.296875zm10.58136 0.15625l-2.96875 0l0 4.453125q0 1.609375 0.234375 2.109375q0.234375 0.5 1.109375 0.5l1.671875 -0.109375l0.09375 1.15625q-1.25 0.203125 -1.90625 0.203125q-1.453125 0 -2.015625 -0.703125q-0.5625 -0.71875 -0.5625 -2.703125l0 -4.90625l-1.328125 0l0 -1.21875l1.328125 0l0 -2.859375l1.375 0l0 2.859375l2.96875 0l0 1.21875zm8.29834 1.59375l0 4.78125q0.0625 0.6875 1.09375 0.8125l-0.0625 1.109375q-1.46875 0 -2.21875 -0.75q-1.671875 0.75 -3.359375 0.75q-1.28125 0 -1.953125 -0.71875q-0.671875 -0.734375 -0.671875 -2.09375q0 -1.375 0.6875 -2.015625q0.6875 -0.640625 2.15625 -0.78125l2.9375 -0.28125l0 -0.8125q0 -0.953125 -0.421875 -1.359375q-0.40625 -0.40625 -1.109375 -0.40625q-1.5 0 -3.09375 0.1875l-0.578125 0.046875l-0.0625 -1.0625q2.0625 -0.40625 3.640625 -0.40625q1.59375 0 2.296875 0.734375q0.71875 0.71875 0.71875 2.265625zm-5.734375 3.8125q0 1.71875 1.40625 1.71875q1.28125 0 2.5 -0.4375l0.4375 -0.140625l0 -3.078125l-2.765625 0.25q-0.84375 0.078125 -1.21875 0.5q-0.359375 0.40625 -0.359375 1.1875zm9.909302 2.703125l-1.40625 0l0 -9.328125l1.375 0l0 0.65625q1.515625 -0.84375 2.890625 -0.84375q1.875 0 2.515625 1.015625q0.640625 1.0 0.640625 3.578125l0 4.921875l-1.375 0l0 -4.890625q0 -1.9375 -0.390625 -2.65625q-0.375 -0.71875 -1.625 -0.71875q-0.59375 0 -1.265625 0.1875q-0.65625 0.171875 -1.015625 0.328125l-0.34375 0.171875l0 7.578125zm12.096558 -9.515625q0.625 0 2.09375 0.21875l0.453125 0.0625l-0.0625 1.140625q-1.484375 -0.171875 -2.203125 -0.171875q-1.578125 0 -2.15625 0.765625q-0.5625 0.75 -0.5625 2.796875q0 2.03125 0.53125 2.84375q0.53125 0.796875 2.203125 0.796875l2.203125 -0.171875l0.0625 1.15625q-1.734375 0.265625 -2.59375 0.265625q-2.1875 0 -3.015625 -1.109375q-0.828125 -1.125 -0.828125 -3.78125q0 -2.671875 0.890625 -3.734375q0.90625 -1.078125 2.984375 -1.078125zm10.88147 8.359375l0.546875 -0.0625l0.03125 1.109375q-2.125 0.296875 -3.640625 0.296875q-2.015625 0 -2.859375 -1.15625q-0.828125 -1.171875 -0.828125 -3.640625q0 -4.90625 3.890625 -4.90625q1.890625 0 2.8125 1.0625q0.9375 1.046875 0.9375 3.296875l-0.078125 1.078125l-6.15625 0q0 1.546875 0.5625 2.296875q0.5625 0.734375 1.953125 0.734375q1.390625 0 2.828125 -0.109375zm-0.5 -4.046875q0 -1.71875 -0.5625 -2.421875q-0.546875 -0.71875 -1.796875 -0.71875q-1.234375 0 -1.859375 0.75q-0.625 0.75 -0.640625 2.390625l4.859375 0z" fill-rule="nonzero"/><path fill="#000000" fill-opacity="0.0" d="m850.0105 394.67453l0 -31.685028l-88.91339 0l0 -31.685028" fill-rule="evenodd"/><path stroke="#212121" stroke-width="1.0" stroke-linejoin="round" stroke-linecap="butt" d="m850.0105 394.67453l0 -31.685028l-88.91339 0l0 -24.185028" fill-rule="evenodd"/><path stroke="#212121" stroke-width="1.0" stroke-linecap="butt" d="m763.2948 338.80447l-2.1976929 -6.0381165l-2.1976929 6.0381165z" fill-rule="evenodd"/><path fill="#000000" fill-opacity="0.0" d="m761.09973 172.51443l0 -29.496063l-281.10236 0l0 -29.496063" fill-rule="evenodd"/><path stroke="#212121" stroke-width="1.0" stroke-linejoin="round" stroke-linecap="butt" d="m761.09973 172.51443l0 -29.496063l-281.10236 0l0 -21.996063" fill-rule="evenodd"/><path stroke="#212121" stroke-width="1.0" stroke-linecap="butt" d="m482.19507 121.02231l-2.1976929 -6.0380936l-2.1976929 6.0380936z" fill-rule="evenodd"/><path fill="#ffffff" d="m698.5958 172.51443l125.00787 0l0 46.393707l-125.00787 0z" fill-rule="evenodd"/><path stroke="#212121" stroke-width="1.0" stroke-linejoin="round" stroke-linecap="butt" d="m698.5958 172.51443l125.00787 0l0 46.393707l-125.00787 0z" fill-rule="evenodd"/><path fill="#212121" d="m739.4415 202.63129l0 -12.90625l7.859375 0l0 1.265625l-6.421875 0l0 4.453125l5.3125 0l0 1.25l-5.3125 0l0 4.671875l6.421875 0l0 1.265625l-7.859375 0zm11.48877 0l-1.40625 0l0 -9.328125l1.375 0l0 0.65625q1.515625 -0.84375 2.890625 -0.84375q1.875 0 2.515625 1.015625q0.640625 1.0 0.640625 3.578125l0 4.921875l-1.375 0l0 -4.890625q0 -1.9375 -0.390625 -2.65625q-0.375 -0.71875 -1.625 -0.71875q-0.59375 0 -1.265625 0.1875q-0.65625 0.171875 -1.015625 0.328125l-0.34375 0.171875l0 7.578125zm13.384277 -8.109375l-2.96875 0l0 4.453125q0 1.609375 0.234375 2.109375q0.234375 0.5 1.109375 0.5l1.671875 -0.109375l0.09375 1.15625q-1.25 0.203125 -1.90625 0.203125q-1.453125 0 -2.015625 -0.703125q-0.5625 -0.71875 -0.5625 -2.703125l0 -4.90625l-1.328125 0l0 -1.21875l1.328125 0l0 -2.859375l1.375 0l0 2.859375l2.96875 0l0 1.21875zm1.7202148 8.109375l0 -9.328125l1.40625 0l0 9.328125l-1.40625 0zm0 -11.4375l0 -1.625l1.40625 0l0 1.625l-1.40625 0zm8.913818 3.328125l-2.96875 0l0 4.453125q0 1.609375 0.234375 2.109375q0.234375 0.5 1.109375 0.5l1.671875 -0.109375l0.09375 1.15625q-1.25 0.203125 -1.90625 0.203125q-1.453125 0 -2.015625 -0.703125q-0.5625 -0.71875 -0.5625 -2.703125l0 -4.90625l-1.328125 0l0 -1.21875l1.328125 0l0 -2.859375l1.375 0l0 2.859375l2.96875 0l0 1.21875zm0.84521484 -1.21875l1.390625 0l2.34375 8.109375l0.609375 0l2.34375 -8.109375l1.40625 0l-3.875 13.46875l-1.40625 0l1.21875 -4.140625l-1.390625 0l-2.640625 -9.328125z" fill-rule="nonzero"/><path fill="#000000" fill-opacity="0.0" d="m627.11285 284.91077l0 -33.00128l133.98425 0l0 -33.014465" fill-rule="evenodd"/><path stroke="#212121" stroke-width="1.0" stroke-linejoin="round" stroke-linecap="butt" d="m627.11285 284.91077l0 -33.00128l133.98425 0l0 -25.514465" fill-rule="evenodd"/><path stroke="#212121" stroke-width="1.0" stroke-linecap="butt" d="m763.2948 226.39502l-2.1976929 -6.038101l-2.1976929 6.038101z" fill-rule="evenodd"/><path fill="#ffffff" d="m564.60895 284.91077l125.00787 0l0 46.393707l-125.00787 0z" fill-rule="evenodd"/><path stroke="#212121" stroke-width="1.0" stroke-linejoin="round" stroke-linecap="butt" d="m564.60895 284.91077l125.00787 0l0 46.393707l-125.00787 0z" fill-rule="evenodd"/><path fill="#212121" d="m598.25824 314.8245q-1.921875 0.390625 -3.453125 0.390625q-1.53125 0 -2.484375 -0.421875q-0.9375 -0.421875 -1.453125 -1.296875q-0.5 -0.890625 -0.703125 -2.03125q-0.203125 -1.15625 -0.203125 -2.875q0 -1.71875 0.203125 -2.875q0.203125 -1.171875 0.703125 -2.0625q0.515625 -0.90625 1.453125 -1.3125q0.9375 -0.40625 2.421875 -0.40625q1.5 0 3.515625 0.40625l-0.0625 1.21875q-1.890625 -0.34375 -3.359375 -0.34375q-2.046875 0 -2.71875 1.234375q-0.65625 1.21875 -0.65625 4.15625q0 1.484375 0.109375 2.375q0.125 0.890625 0.484375 1.609375q0.359375 0.71875 1.03125 1.03125q0.6875 0.3125 2.0 0.3125q1.3125 0 3.109375 -0.34375l0.0625 1.234375zm1.5091553 -4.46875q0 -2.5625 0.90625 -3.703125q0.921875 -1.140625 3.09375 -1.140625q2.171875 0 3.078125 1.140625q0.90625 1.140625 0.90625 3.703125q0 2.546875 -0.859375 3.703125q-0.859375 1.15625 -3.140625 1.15625q-2.265625 0 -3.125 -1.15625q-0.859375 -1.15625 -0.859375 -3.703125zm1.4375 -0.03125q0 2.03125 0.484375 2.859375q0.5 0.8125 2.078125 0.8125q1.578125 0 2.0625 -0.8125q0.484375 -0.8125 0.484375 -2.859375q0 -2.046875 -0.546875 -2.8125q-0.53125 -0.78125 -2.0 -0.78125q-1.46875 0 -2.015625 0.78125q-0.546875 0.765625 -0.546875 2.8125zm8.92865 4.703125l0 -13.390625l1.40625 0l0 13.390625l-1.40625 0zm4.3096313 0l0 -13.390625l1.40625 0l0 13.390625l-1.40625 0zm10.543945 -1.15625l0.546875 -0.0625l0.03125 1.109375q-2.125 0.296875 -3.640625 0.296875q-2.015625 0 -2.859375 -1.15625q-0.828125 -1.171875 -0.828125 -3.640625q0 -4.90625 3.890625 -4.90625q1.890625 0 2.8125 1.0625q0.9375 1.046875 0.9375 3.296875l-0.078125 1.078125l-6.15625 0q0 1.546875 0.5625 2.296875q0.5625 0.734375 1.953125 0.734375q1.390625 0 2.828125 -0.109375zm-0.5 -4.046875q0 -1.71875 -0.5625 -2.421875q-0.546875 -0.71875 -1.796875 -0.71875q-1.234375 0 -1.859375 0.75q-0.625 0.75 -0.640625 2.390625l4.859375 0zm7.0620117 -4.3125q0.625 0 2.09375 0.21875l0.453125 0.0625l-0.0625 1.140625q-1.484375 -0.171875 -2.203125 -0.171875q-1.578125 0 -2.15625 0.765625q-0.5625 0.75 -0.5625 2.796875q0 2.03125 0.53125 2.84375q0.53125 0.796875 2.203125 0.796875l2.203125 -0.171875l0.0625 1.15625q-1.734375 0.265625 -2.59375 0.265625q-2.1875 0 -3.015625 -1.109375q-0.828125 -1.125 -0.828125 -3.78125q0 -2.671875 0.890625 -3.734375q0.90625 -1.078125 2.984375 -1.078125zm9.477905 1.40625l-2.96875 0l0 4.453125q0 1.609375 0.234375 2.109375q0.234375 0.5 1.109375 0.5l1.671875 -0.109375l0.09375 1.15625q-1.25 0.203125 -1.90625 0.203125q-1.453125 0 -2.015625 -0.703125q-0.5625 -0.71875 -0.5625 -2.703125l0 -4.90625l-1.328125 0l0 -1.21875l1.328125 0l0 -2.859375l1.375 0l0 2.859375l2.96875 0l0 1.21875zm1.7202148 8.109375l0 -9.328125l1.40625 0l0 9.328125l-1.40625 0zm0 -11.4375l0 -1.625l1.40625 0l0 1.625l-1.40625 0zm3.6794434 6.765625q0 -2.5625 0.90625 -3.703125q0.921875 -1.140625 3.09375 -1.140625q2.171875 0 3.078125 1.140625q0.90625 1.140625 0.90625 3.703125q0 2.546875 -0.859375 3.703125q-0.859375 1.15625 -3.140625 1.15625q-2.265625 0 -3.125 -1.15625q-0.859375 -1.15625 -0.859375 -3.703125zm1.4375 -0.03125q0 2.03125 0.484375 2.859375q0.5 0.8125 2.078125 0.8125q1.578125 0 2.0625 -0.8125q0.484375 -0.8125 0.484375 -2.859375q0 -2.046875 -0.546875 -2.8125q-0.53125 -0.78125 -2.0 -0.78125q-1.46875 0 -2.015625 0.78125q-0.546875 0.765625 -0.546875 2.8125zm10.225525 4.703125l-1.40625 0l0 -9.328125l1.375 0l0 0.65625q1.515625 -0.84375 2.890625 -0.84375q1.875 0 2.515625 1.015625q0.640625 1.0 0.640625 3.578125l0 4.921875l-1.375 0l0 -4.890625q0 -1.9375 -0.390625 -2.65625q-0.375 -0.71875 -1.625 -0.71875q-0.59375 0 -1.265625 0.1875q-0.65625 0.171875 -1.015625 0.328125l-0.34375 0.171875l0 7.578125z" fill-rule="nonzero"/><path fill="#000000" fill-opacity="0.0" d="m761.09973 284.91077l0 -33.00128l0.06298828 0l0 -33.014465" fill-rule="evenodd"/><path stroke="#212121" stroke-width="1.0" stroke-linejoin="round" stroke-linecap="butt" d="m761.09973 284.91077l0 -33.00128l0.06298828 0l0 -25.514465" fill-rule="evenodd"/><path stroke="#212121" stroke-width="1.0" stroke-linecap="butt" d="m763.3604 226.39502l-2.1976929 -6.038101l-2.1976929 6.038101z" fill-rule="evenodd"/><path fill="#ffffff" d="m698.5958 284.91077l125.00787 0l0 46.393707l-125.00787 0z" fill-rule="evenodd"/><path stroke="#212121" stroke-width="1.0" stroke-linejoin="round" stroke-linecap="butt" d="m698.5958 284.91077l125.00787 0l0 46.393707l-125.00787 0z" fill-rule="evenodd"/><path fill="#212121" d="m736.73254 303.18387q-2.8125 0 -2.8125 2.109375q0 1.171875 0.640625 1.609375q0.65625 0.4375 2.625 0.875q1.96875 0.4375 2.78125 1.140625q0.828125 0.703125 0.828125 2.296875q0 3.984375 -4.125 3.984375q-1.359375 0 -3.421875 -0.328125l-0.671875 -0.09375l0.15625 -1.1875q2.53125 0.34375 3.859375 0.34375q2.765625 0 2.765625 -2.59375q0 -1.046875 -0.609375 -1.5q-0.609375 -0.46875 -2.265625 -0.78125q-2.1875 -0.46875 -3.109375 -1.203125q-0.90625 -0.734375 -0.90625 -2.46875q0 -3.46875 4.171875 -3.46875q1.359375 0 3.265625 0.28125l0.625 0.078125l-0.125 1.21875q-2.59375 -0.3125 -3.671875 -0.3125zm5.237549 2.515625l1.390625 0l2.34375 8.109375l0.609375 0l2.34375 -8.109375l1.40625 0l-3.875 13.46875l-1.40625 0l1.21875 -4.140625l-1.390625 0l-2.640625 -9.328125zm12.677185 1.0625q-2.03125 0 -2.03125 1.421875q0 0.65625 0.46875 0.921875q0.46875 0.265625 2.125 0.5625q1.671875 0.28125 2.359375 0.8125q0.6875 0.515625 0.6875 1.953125q0 1.4375 -0.921875 2.109375q-0.921875 0.671875 -2.703125 0.671875q-1.15625 0 -2.71875 -0.265625l-0.5625 -0.09375l0.078125 -1.203125q2.125 0.3125 3.203125 0.3125q1.078125 0 1.640625 -0.34375q0.578125 -0.34375 0.578125 -1.15625q0 -0.8125 -0.484375 -1.09375q-0.484375 -0.296875 -2.125 -0.5625q-1.640625 -0.265625 -2.328125 -0.765625q-0.6875 -0.5 -0.6875 -1.859375q0 -1.359375 0.953125 -2.015625q0.96875 -0.65625 2.40625 -0.65625q1.125 0 2.84375 0.265625l0.53125 0.09375l-0.046875 1.1875q-2.0625 -0.296875 -3.265625 -0.296875zm10.58136 0.15625l-2.96875 0l0 4.453125q0 1.609375 0.234375 2.109375q0.234375 0.5 1.109375 0.5l1.671875 -0.109375l0.09375 1.15625q-1.25 0.203125 -1.90625 0.203125q-1.453125 0 -2.015625 -0.703125q-0.5625 -0.71875 -0.5625 -2.703125l0 -4.90625l-1.328125 0l0 -1.21875l1.328125 0l0 -2.859375l1.375 0l0 2.859375l2.96875 0l0 1.21875zm8.063965 6.953125l0.546875 -0.0625l0.03125 1.109375q-2.125 0.296875 -3.640625 0.296875q-2.015625 0 -2.859375 -1.15625q-0.828125 -1.171875 -0.828125 -3.640625q0 -4.90625 3.890625 -4.90625q1.890625 0 2.8125 1.0625q0.9375 1.046875 0.9375 3.296875l-0.078125 1.078125l-6.15625 0q0 1.546875 0.5625 2.296875q0.5625 0.734375 1.953125 0.734375q1.390625 0 2.828125 -0.109375zm-0.5 -4.046875q0 -1.71875 -0.5625 -2.421875q-0.546875 -0.71875 -1.796875 -0.71875q-1.234375 0 -1.859375 0.75q-0.625 0.75 -0.640625 2.390625l4.859375 0zm4.9839478 5.203125l-1.40625 0l0 -9.328125l1.375 0l0 0.65625q1.40625 -0.84375 2.734375 -0.84375q1.734375 0 2.421875 0.953125q0.609375 -0.375 1.59375 -0.65625q0.984375 -0.296875 1.71875 -0.296875q1.875 0 2.515625 1.0q0.640625 1.0 0.640625 3.59375l0 4.921875l-1.390625 0l0 -4.890625q0 -1.9375 -0.375 -2.65625q-0.375 -0.71875 -1.59375 -0.71875q-0.609375 0 -1.265625 0.1875q-0.65625 0.171875 -1.0 0.328125l-0.359375 0.171875q0.234375 0.625 0.234375 2.734375l0 4.84375l-1.390625 0l0 -4.8125q0 -2.015625 -0.375 -2.734375q-0.359375 -0.71875 -1.578125 -0.71875q-0.609375 0 -1.234375 0.1875q-0.625 0.171875 -0.953125 0.328125l-0.3125 0.171875l0 7.578125z" fill-rule="nonzero"/><path fill="#000000" fill-opacity="0.0" d="m659.90814 394.67453l0 -31.685028l101.19684 0l0 -31.685028" fill-rule="evenodd"/><path stroke="#212121" stroke-width="1.0" stroke-linejoin="round" stroke-linecap="butt" d="m659.90814 394.67453l0 -31.685028l101.19684 0l0 -24.185028" fill-rule="evenodd"/><path stroke="#212121" stroke-width="1.0" stroke-linecap="butt" d="m763.3027 338.80447l-2.1976929 -6.0381165l-2.1976929 6.0381165z" fill-rule="evenodd"/><path fill="#ffffff" d="m577.1365 394.67453l165.54333 0l0 46.393707l-165.54333 0z" fill-rule="evenodd"/><path stroke="#212121" stroke-width="1.0" stroke-linejoin="round" stroke-linecap="butt" d="m577.1365 394.67453l165.54333 0l0 46.393707l-165.54333 0z" fill-rule="evenodd"/><path fill="#212121" d="m597.9014 424.58826q-1.921875 0.390625 -3.453125 0.390625q-1.53125 0 -2.484375 -0.421875q-0.9375 -0.421875 -1.453125 -1.296875q-0.5 -0.890625 -0.703125 -2.03125q-0.203125 -1.15625 -0.203125 -2.875q0 -1.71875 0.203125 -2.875q0.203125 -1.171875 0.703125 -2.0625q0.515625 -0.90625 1.453125 -1.3125q0.9375 -0.40625 2.421875 -0.40625q1.5 0 3.515625 0.40625l-0.0625 1.21875q-1.890625 -0.34375 -3.359375 -0.34375q-2.046875 0 -2.71875 1.234375q-0.65625 1.21875 -0.65625 4.15625q0 1.484375 0.109375 2.375q0.125 0.890625 0.484375 1.609375q0.359375 0.71875 1.03125 1.03125q0.6875 0.3125 2.0 0.3125q1.3125 0 3.109375 -0.34375l0.0625 1.234375zm1.5092163 -4.46875q0 -2.5625 0.90625 -3.703125q0.921875 -1.140625 3.09375 -1.140625q2.171875 0 3.078125 1.140625q0.90625 1.140625 0.90625 3.703125q0 2.546875 -0.859375 3.703125q-0.859375 1.15625 -3.140625 1.15625q-2.265625 0 -3.125 -1.15625q-0.859375 -1.15625 -0.859375 -3.703125zm1.4375 -0.03125q0 2.03125 0.484375 2.859375q0.5 0.8125 2.078125 0.8125q1.578125 0 2.0625 -0.8125q0.484375 -0.8125 0.484375 -2.859375q0 -2.046875 -0.546875 -2.8125q-0.53125 -0.78125 -2.0 -0.78125q-1.46875 0 -2.015625 0.78125q-0.546875 0.765625 -0.546875 2.8125zm10.225525 4.703125l-1.40625 0l0 -9.328125l1.375 0l0 0.65625q1.40625 -0.84375 2.734375 -0.84375q1.734375 0 2.421875 0.953125q0.609375 -0.375 1.59375 -0.65625q0.984375 -0.296875 1.71875 -0.296875q1.875 0 2.515625 1.0q0.640625 1.0 0.640625 3.59375l0 4.921875l-1.390625 0l0 -4.890625q0 -1.9375 -0.375 -2.65625q-0.375 -0.71875 -1.59375 -0.71875q-0.609375 0 -1.265625 0.1875q-0.65625 0.171875 -1.0 0.328125l-0.359375 0.171875q0.234375 0.625 0.234375 2.734375l0 4.84375l-1.390625 0l0 -4.8125q0 -2.015625 -0.375 -2.734375q-0.359375 -0.71875 -1.578125 -0.71875q-0.609375 0 -1.234375 0.1875q-0.625 0.171875 -0.953125 0.328125l-0.3125 0.171875l0 7.578125zm14.190369 4.140625l0 -13.46875l1.375 0l0 0.671875q1.421875 -0.859375 2.796875 -0.859375q1.78125 0 2.578125 1.140625q0.8125 1.125 0.8125 3.71875q0 2.578125 -0.953125 3.71875q-0.9375 1.125 -3.125 1.125q-1.140625 0 -2.078125 -0.203125l0 4.15625l-1.40625 0zm3.96875 -12.40625q-0.5625 0 -1.203125 0.1875q-0.640625 0.1875 -1.015625 0.375l-0.34375 0.1875l0 6.28125q1.3125 0.203125 2.0 0.203125q1.515625 0 2.125 -0.859375q0.609375 -0.859375 0.609375 -2.796875q0 -1.9375 -0.5625 -2.75q-0.546875 -0.828125 -1.609375 -0.828125zm5.456848 3.59375q0 -2.5625 0.90625 -3.703125q0.921875 -1.140625 3.09375 -1.140625q2.171875 0 3.078125 1.140625q0.90625 1.140625 0.90625 3.703125q0 2.546875 -0.859375 3.703125q-0.859375 1.15625 -3.140625 1.15625q-2.265625 0 -3.125 -1.15625q-0.859375 -1.15625 -0.859375 -3.703125zm1.4375 -0.03125q0 2.03125 0.484375 2.859375q0.5 0.8125 2.078125 0.8125q1.578125 0 2.0625 -0.8125q0.484375 -0.8125 0.484375 -2.859375q0 -2.046875 -0.546875 -2.8125q-0.53125 -0.78125 -2.0 -0.78125q-1.46875 0 -2.015625 0.78125q-0.546875 0.765625 -0.546875 2.8125zm11.74115 -3.5625q-2.03125 0 -2.03125 1.421875q0 0.65625 0.46875 0.921875q0.46875 0.265625 2.125 0.5625q1.671875 0.28125 2.359375 0.8125q0.6875 0.515625 0.6875 1.953125q0 1.4375 -0.921875 2.109375q-0.921875 0.671875 -2.703125 0.671875q-1.15625 0 -2.71875 -0.265625l-0.5625 -0.09375l0.078125 -1.203125q2.125 0.3125 3.203125 0.3125q1.078125 0 1.640625 -0.34375q0.578125 -0.34375 0.578125 -1.15625q0 -0.8125 -0.484375 -1.09375q-0.484375 -0.296875 -2.125 -0.5625q-1.640625 -0.265625 -2.328125 -0.765625q-0.6875 -0.5 -0.6875 -1.859375q0 -1.359375 0.953125 -2.015625q0.96875 -0.65625 2.40625 -0.65625q1.125 0 2.84375 0.265625l0.53125 0.09375l-0.046875 1.1875q-2.0625 -0.296875 -3.265625 -0.296875zm5.753296 8.265625l0 -9.328125l1.40625 0l0 9.328125l-1.40625 0zm0 -11.4375l0 -1.625l1.40625 0l0 1.625l-1.40625 0zm8.913818 3.328125l-2.96875 0l0 4.453125q0 1.609375 0.234375 2.109375q0.234375 0.5 1.109375 0.5l1.671875 -0.109375l0.09375 1.15625q-1.25 0.203125 -1.90625 0.203125q-1.453125 0 -2.015625 -0.703125q-0.5625 -0.71875 -0.5625 -2.703125l0 -4.90625l-1.328125 0l0 -1.21875l1.328125 0l0 -2.859375l1.375 0l0 2.859375l2.96875 0l0 1.21875zm8.063965 6.953125l0.546875 -0.0625l0.03125 1.109375q-2.125 0.296875 -3.640625 0.296875q-2.015625 0 -2.859375 -1.15625q-0.828125 -1.171875 -0.828125 -3.640625q0 -4.90625 3.890625 -4.90625q1.890625 0 2.8125 1.0625q0.9375 1.046875 0.9375 3.296875l-0.078125 1.078125l-6.15625 0q0 1.546875 0.5625 2.296875q0.5625 0.734375 1.953125 0.734375q1.390625 0 2.828125 -0.109375zm-0.5 -4.046875q0 -1.71875 -0.5625 -2.421875q-0.546875 -0.71875 -1.796875 -0.71875q-1.234375 0 -1.859375 0.75q-0.625 0.75 -0.640625 2.390625l4.859375 0zm7.3154907 -6.640625q-2.8125 0 -2.8125 2.109375q0 1.171875 0.640625 1.609375q0.65625 0.4375 2.625 0.875q1.96875 0.4375 2.78125 1.140625q0.828125 0.703125 0.828125 2.296875q0 3.984375 -4.125 3.984375q-1.359375 0 -3.421875 -0.328125l-0.671875 -0.09375l0.15625 -1.1875q2.53125 0.34375 3.859375 0.34375q2.765625 0 2.765625 -2.59375q0 -1.046875 -0.609375 -1.5q-0.609375 -0.46875 -2.265625 -0.78125q-2.1875 -0.46875 -3.109375 -1.203125q-0.90625 -0.734375 -0.90625 -2.46875q0 -3.46875 4.171875 -3.46875q1.359375 0 3.265625 0.28125l0.625 0.078125l-0.125 1.21875q-2.59375 -0.3125 -3.671875 -0.3125zm5.237488 2.515625l1.390625 0l2.34375 8.109375l0.609375 0l2.34375 -8.109375l1.40625 0l-3.875 13.46875l-1.40625 0l1.21875 -4.140625l-1.390625 0l-2.640625 -9.328125zm12.677185 1.0625q-2.03125 0 -2.03125 1.421875q0 0.65625 0.46875 0.921875q0.46875 0.265625 2.125 0.5625q1.671875 0.28125 2.359375 0.8125q0.6875 0.515625 0.6875 1.953125q0 1.4375 -0.921875 2.109375q-0.921875 0.671875 -2.703125 0.671875q-1.15625 0 -2.71875 -0.265625l-0.5625 -0.09375l0.078125 -1.203125q2.125 0.3125 3.203125 0.3125q1.078125 0 1.640625 -0.34375q0.578125 -0.34375 0.578125 -1.15625q0 -0.8125 -0.484375 -1.09375q-0.484375 -0.296875 -2.125 -0.5625q-1.640625 -0.265625 -2.328125 -0.765625q-0.6875 -0.5 -0.6875 -1.859375q0 -1.359375 0.953125 -2.015625q0.96875 -0.65625 2.40625 -0.65625q1.125 0 2.84375 0.265625l0.53125 0.09375l-0.046875 1.1875q-2.0625 -0.296875 -3.265625 -0.296875zm10.581421 0.15625l-2.96875 0l0 4.453125q0 1.609375 0.234375 2.109375q0.234375 0.5 1.109375 0.5l1.671875 -0.109375l0.09375 1.15625q-1.25 0.203125 -1.90625 0.203125q-1.453125 0 -2.015625 -0.703125q-0.5625 -0.71875 -0.5625 -2.703125l0 -4.90625l-1.328125 0l0 -1.21875l1.328125 0l0 -2.859375l1.375 0l0 2.859375l2.96875 0l0 1.21875zm8.063965 6.953125l0.546875 -0.0625l0.03125 1.109375q-2.125 0.296875 -3.640625 0.296875q-2.015625 0 -2.859375 -1.15625q-0.828125 -1.171875 -0.828125 -3.640625q0 -4.90625 3.890625 -4.90625q1.890625 0 2.8125 1.0625q0.9375 1.046875 0.9375 3.296875l-0.078125 1.078125l-6.15625 0q0 1.546875 0.5625 2.296875q0.5625 0.734375 1.953125 0.734375q1.390625 0 2.828125 -0.109375zm-0.5 -4.046875q0 -1.71875 -0.5625 -2.421875q-0.546875 -0.71875 -1.796875 -0.71875q-1.234375 0 -1.859375 0.75q-0.625 0.75 -0.640625 2.390625l4.859375 0zm4.9838867 5.203125l-1.40625 0l0 -9.328125l1.375 0l0 0.65625q1.40625 -0.84375 2.734375 -0.84375q1.734375 0 2.421875 0.953125q0.609375 -0.375 1.59375 -0.65625q0.984375 -0.296875 1.71875 -0.296875q1.875 0 2.515625 1.0q0.640625 1.0 0.640625 3.59375l0 4.921875l-1.390625 0l0 -4.890625q0 -1.9375 -0.375 -2.65625q-0.375 -0.71875 -1.59375 -0.71875q-0.609375 0 -1.265625 0.1875q-0.65625 0.171875 -1.0 0.328125l-0.359375 0.171875q0.234375 0.625 0.234375 2.734375l0 4.84375l-1.390625 0l0 -4.8125q0 -2.015625 -0.375 -2.734375q-0.359375 -0.71875 -1.578125 -0.71875q-0.609375 0 -1.234375 0.1875q-0.625 0.171875 -0.953125 0.328125l-0.3125 0.171875l0 7.578125z" fill-rule="nonzero"/><path fill="#000000" fill-opacity="0.0" d="m251.65355 172.51443l0 -29.496063l228.34645 0l0 -29.496063" fill-rule="evenodd"/><path stroke="#212121" stroke-width="1.0" stroke-linejoin="round" stroke-linecap="butt" d="m251.65355 172.51443l0 -29.496063l228.34645 0l0 -21.996063" fill-rule="evenodd"/><path stroke="#212121" stroke-width="1.0" stroke-linecap="butt" d="m482.1977 121.02231l-2.1976929 -6.0380936l-2.1976929 6.0380936z" fill-rule="evenodd"/><path fill="#ffffff" d="m189.14961 172.51443l125.00786 0l0 46.393707l-125.00786 0z" fill-rule="evenodd"/><path stroke="#212121" stroke-width="1.0" stroke-linejoin="round" stroke-linecap="butt" d="m189.14961 172.51443l125.00786 0l0 46.393707l-125.00786 0z" fill-rule="evenodd"/><path fill="#212121" d="m222.90967 202.63129l3.546875 -12.90625l3.125 0l3.546875 12.90625l-1.421875 0l-0.921875 -3.328125l-5.53125 0l-0.9375 3.328125l-1.40625 0zm4.625 -11.671875l-1.96875 7.0625l4.890625 0l-1.953125 -7.0625l-0.96875 0zm10.757111 2.15625q0.625 0 2.09375 0.21875l0.453125 0.0625l-0.0625 1.140625q-1.484375 -0.171875 -2.203125 -0.171875q-1.578125 0 -2.15625 0.765625q-0.5625 0.75 -0.5625 2.796875q0 2.03125 0.53125 2.84375q0.53125 0.796875 2.203125 0.796875l2.203125 -0.171875l0.0625 1.15625q-1.734375 0.265625 -2.59375 0.265625q-2.1875 0 -3.015625 -1.109375q-0.828125 -1.125 -0.828125 -3.78125q0 -2.671875 0.890625 -3.734375q0.90625 -1.078125 2.984375 -1.078125zm9.477875 1.40625l-2.96875 0l0 4.453125q0 1.609375 0.234375 2.109375q0.234375 0.5 1.109375 0.5l1.671875 -0.109375l0.09375 1.15625q-1.25 0.203125 -1.90625 0.203125q-1.453125 0 -2.015625 -0.703125q-0.5625 -0.71875 -0.5625 -2.703125l0 -4.90625l-1.328125 0l0 -1.21875l1.328125 0l0 -2.859375l1.375 0l0 2.859375l2.96875 0l0 1.21875zm1.7202148 8.109375l0 -9.328125l1.40625 0l0 9.328125l-1.40625 0zm0 -11.4375l0 -1.625l1.40625 0l0 1.625l-1.40625 0zm3.2107239 2.109375l1.484375 0l2.1875 8.109375l0.6875 0l2.265625 -8.109375l1.4375 0l-2.640625 9.328125l-2.796875 0l-2.625 -9.328125zm9.848663 9.328125l0 -9.328125l1.40625 0l0 9.328125l-1.40625 0zm0 -11.4375l0 -1.625l1.40625 0l0 1.625l-1.40625 0zm8.913849 3.328125l-2.96875 0l0 4.453125q0 1.609375 0.234375 2.109375q0.234375 0.5 1.109375 0.5l1.671875 -0.109375l0.09375 1.15625q-1.25 0.203125 -1.90625 0.203125q-1.453125 0 -2.015625 -0.703125q-0.5625 -0.71875 -0.5625 -2.703125l0 -4.90625l-1.328125 0l0 -1.21875l1.328125 0l0 -2.859375l1.375 0l0 2.859375l2.96875 0l0 1.21875zm0.84521484 -1.21875l1.390625 0l2.34375 8.109375l0.609375 0l2.34375 -8.109375l1.40625 0l-3.875 13.46875l-1.40625 0l1.21875 -4.140625l-1.390625 0l-2.640625 -9.328125z" fill-rule="nonzero"/><path fill="#ffffff" d="m3.5564303 284.92126l125.00787 0l0 46.393707l-125.00787 0z" fill-rule="evenodd"/><path stroke="#212121" stroke-width="1.0" stroke-linejoin="round" stroke-linecap="butt" d="m3.5564303 284.92126l125.00787 0l0 46.393707l-125.00787 0z" fill-rule="evenodd"/><path fill="#212121" d="m22.602322 315.03812l0 -12.90625l7.859375 0l0 1.265625l-6.421875 0l0 4.453125l5.3125 0l0 1.25l-5.3125 0l0 4.671875l6.421875 0l0 1.265625l-7.859375 0zm9.145035 -9.328125l1.53125 0l2.28125 3.65625l2.28125 -3.65625l1.515625 0l-2.953125 4.625l2.9375 4.703125l-1.53125 0l-2.25 -3.640625l-2.28125 3.640625l-1.53125 0l2.9375 -4.671875l-2.9375 -4.65625zm9.370132 13.46875l0 -13.46875l1.375 0l0 0.671875q1.421875 -0.859375 2.796875 -0.859375q1.78125 0 2.578125 1.140625q0.8125 1.125 0.8125 3.71875q0 2.578125 -0.953125 3.71875q-0.9375 1.125 -3.125 1.125q-1.140625 0 -2.078125 -0.203125l0 4.15625l-1.40625 0zm3.96875 -12.40625q-0.5625 0 -1.203125 0.1875q-0.640625 0.1875 -1.015625 0.375l-0.34375 0.1875l0 6.28125q1.3125 0.203125 2.0 0.203125q1.515625 0 2.125 -0.859375q0.609375 -0.859375 0.609375 -2.796875q0 -1.9375 -0.5625 -2.75q-0.546875 -0.828125 -1.609375 -0.828125zm12.206848 7.109375l0.546875 -0.0625l0.03125 1.109375q-2.125 0.296875 -3.640625 0.296875q-2.015625 0 -2.859375 -1.15625q-0.828125 -1.171875 -0.828125 -3.640625q0 -4.90625 3.890625 -4.90625q1.890625 0 2.8125 1.0625q0.9375 1.046875 0.9375 3.296875l-0.078125 1.078125l-6.15625 0q0 1.546875 0.5625 2.296875q0.5625 0.734375 1.953125 0.734375q1.390625 0 2.828125 -0.109375zm-0.5 -4.046875q0 -1.71875 -0.5625 -2.421875q-0.546875 -0.71875 -1.796875 -0.71875q-1.234375 0 -1.859375 0.75q-0.625 0.75 -0.640625 2.390625l4.859375 0zm3.577652 5.203125l0 -9.328125l1.375 0l0 1.265625q1.625 -1.109375 3.4218712 -1.46875l0 1.421875q-0.78125 0.140625 -1.6406212 0.46875q-0.84375 0.3125 -1.296875 0.546875l-0.453125 0.25l0 6.84375l-1.40625 0zm6.455059 0l0 -9.328125l1.40625 0l0 9.328125l-1.40625 0zm0 -11.4375l0 -1.625l1.40625 0l0 1.625l-1.40625 0zm5.491974 11.4375l-1.40625 0l0 -9.328125l1.375 0l0 0.65625q1.40625 -0.84375 2.734375 -0.84375q1.734375 0 2.421875 0.953125q0.609375 -0.375 1.59375 -0.65625q0.984375 -0.296875 1.71875 -0.296875q1.875 0 2.515625 1.0q0.640625 1.0 0.640625 3.59375l0 4.921875l-1.390625 0l0 -4.890625q0 -1.9375 -0.375 -2.65625q-0.375 -0.71875 -1.59375 -0.71875q-0.609375 0 -1.265625 0.1875q-0.65625 0.171875 -1.0 0.328125l-0.359375 0.171875q0.234375 0.625 0.234375 2.734375l0 4.84375l-1.390625 0l0 -4.8125q0 -2.015625 -0.375 -2.734375q-0.359375 -0.71875 -1.578125 -0.71875q-0.609375 0 -1.234375 0.1875q-0.625 0.171875 -0.953125 0.328125l-0.3125 0.171875l0 7.578125zm20.534134 -1.15625l0.546875 -0.0625l0.03125 1.109375q-2.125 0.296875 -3.640625 0.296875q-2.015625 0 -2.859375 -1.15625q-0.828125 -1.171875 -0.828125 -3.640625q0 -4.90625 3.890625 -4.90625q1.890625 0 2.8125 1.0625q0.9375 1.046875 0.9375 3.296875l-0.078125 1.078125l-6.15625 0q0 1.546875 0.5625 2.296875q0.5625 0.734375 1.953125 0.734375q1.390625 0 2.828125 -0.109375zm-0.5 -4.046875q0 -1.71875 -0.5625 -2.421875q-0.546875 -0.71875 -1.796875 -0.71875q-1.234375 0 -1.859375 0.75q-0.625 0.75 -0.640625 2.390625l4.859375 0zm4.983902 5.203125l-1.40625 0l0 -9.328125l1.375 0l0 0.65625q1.515625 -0.84375 2.890625 -0.84375q1.875 0 2.515625 1.015625q0.640625 1.0 0.640625 3.578125l0 4.921875l-1.375 0l0 -4.890625q0 -1.9375 -0.390625 -2.65625q-0.375 -0.71875 -1.625 -0.71875q-0.59375 0 -1.265625 0.1875q-0.65625 0.171875 -1.015625 0.328125l-0.34375 0.171875l0 7.578125zm13.384262 -8.109375l-2.96875 0l0 4.453125q0 1.609375 0.234375 2.109375q0.234375 0.5 1.109375 0.5l1.671875 -0.109375l0.09375 1.15625q-1.25 0.203125 -1.90625 0.203125q-1.453125 0 -2.015625 -0.703125q-0.5625 -0.71875 -0.5625 -2.703125l0 -4.90625l-1.328125 0l0 -1.21875l1.328125 0l0 -2.859375l1.375 0l0 2.859375l2.96875 0l0 1.21875z" fill-rule="nonzero"/><path fill="#000000" fill-opacity="0.0" d="m66.06036 284.92126l0 -33.00656l185.60631 0l0 -33.009186" fill-rule="evenodd"/><path stroke="#212121" stroke-width="1.0" stroke-linejoin="round" stroke-linecap="butt" d="m66.06036 284.92126l0 -33.00656l185.60631 0l0 -25.509186" fill-rule="evenodd"/><path stroke="#212121" stroke-width="1.0" stroke-linecap="butt" d="m253.86435 226.40552l-2.1976776 -6.038101l-2.1976929 6.038101z" fill-rule="evenodd"/><path fill="#000000" fill-opacity="0.0" d="m339.59186 284.91077l0 -33.00128l-87.937 0l0 -33.014465" fill-rule="evenodd"/><path stroke="#212121" stroke-width="1.0" stroke-linejoin="round" stroke-linecap="butt" d="m339.59186 284.91077l0 -33.00128l-87.937 0l0 -25.514465" fill-rule="evenodd"/><path stroke="#212121" stroke-width="1.0" stroke-linecap="butt" d="m253.85254 226.39502l-2.1976776 -6.038101l-2.1976929 6.038101z" fill-rule="evenodd"/><path fill="#ffffff" d="m121.04724 397.3071l156.91339 0l0 46.393677l-156.91339 0z" fill-rule="evenodd"/><path stroke="#212121" stroke-width="1.0" stroke-linejoin="round" stroke-linecap="butt" d="m121.04724 397.3071l156.91339 0l0 46.393677l-156.91339 0z" fill-rule="evenodd"/><path fill="#212121" d="m135.88406 415.58017q-2.8125 0 -2.8125 2.109375q0 1.171875 0.640625 1.609375q0.65625 0.4375 2.625 0.875q1.96875 0.4375 2.78125 1.140625q0.828125 0.703125 0.828125 2.296875q0 3.984375 -4.125 3.984375q-1.359375 0 -3.421875 -0.328125l-0.671875 -0.09375l0.15625 -1.1875q2.53125 0.34375 3.859375 0.34375q2.765625 0 2.765625 -2.59375q0 -1.046875 -0.609375 -1.5q-0.609375 -0.46875 -2.265625 -0.78125q-2.1875 -0.46875 -3.109375 -1.203125q-0.90625 -0.734375 -0.90625 -2.46875q0 -3.46875 4.171875 -3.46875q1.359375 0 3.265625 0.28125l0.625 0.078125l-0.125 1.21875q-2.59375 -0.3125 -3.671875 -0.3125zm5.2375183 2.515625l1.390625 0l2.34375 8.109375l0.609375 0l2.34375 -8.109375l1.40625 0l-3.875 13.46875l-1.40625 0l1.21875 -4.140625l-1.390625 0l-2.640625 -9.328125zm11.292221 9.328125l-1.40625 0l0 -9.328125l1.375 0l0 0.65625q1.515625 -0.84375 2.890625 -0.84375q1.875 0 2.515625 1.015625q0.640625 1.0 0.640625 3.578125l0 4.921875l-1.375 0l0 -4.890625q0 -1.9375 -0.390625 -2.65625q-0.375 -0.71875 -1.625 -0.71875q-0.59375 0 -1.265625 0.1875q-0.65625 0.171875 -1.015625 0.328125l-0.34375 0.171875l0 7.578125zm13.384262 -8.109375l-2.96875 0l0 4.453125q0 1.609375 0.234375 2.109375q0.234375 0.5 1.109375 0.5l1.671875 -0.109375l0.09375 1.15625q-1.25 0.203125 -1.90625 0.203125q-1.453125 0 -2.015625 -0.703125q-0.5625 -0.71875 -0.5625 -2.703125l0 -4.90625l-1.328125 0l0 -1.21875l1.328125 0l0 -2.859375l1.375 0l0 2.859375l2.96875 0l0 1.21875zm3.1264648 8.109375l-1.40625 0l0 -13.390625l1.40625 0l0 4.578125q1.484375 -0.703125 2.859375 -0.703125q1.875 0 2.515625 1.015625q0.640625 1.0 0.640625 3.578125l0 4.921875l-1.390625 0l0 -4.890625q0 -1.9375 -0.390625 -2.65625q-0.375 -0.71875 -1.609375 -0.71875q-1.171875 0 -2.28125 0.4375l-0.34375 0.125l0 7.703125zm14.955902 -1.15625l0.546875 -0.0625l0.03125 1.109375q-2.125 0.296875 -3.640625 0.296875q-2.015625 0 -2.859375 -1.15625q-0.828125 -1.171875 -0.828125 -3.640625q0 -4.90625 3.890625 -4.90625q1.890625 0 2.8125 1.0625q0.9375 1.046875 0.9375 3.296875l-0.078125 1.078125l-6.15625 0q0 1.546875 0.5625 2.296875q0.5625 0.734375 1.953125 0.734375q1.390625 0 2.828125 -0.109375zm-0.5 -4.046875q0 -1.71875 -0.5625 -2.421875q-0.546875 -0.71875 -1.796875 -0.71875q-1.234375 0 -1.859375 0.75q-0.625 0.75 -0.640625 2.390625l4.859375 0zm6.499527 -3.0625q-2.03125 0 -2.03125 1.421875q0 0.65625 0.46875 0.921875q0.46875 0.265625 2.125 0.5625q1.671875 0.28125 2.359375 0.8125q0.6875 0.515625 0.6875 1.953125q0 1.4375 -0.921875 2.109375q-0.921875 0.671875 -2.703125 0.671875q-1.15625 0 -2.71875 -0.265625l-0.5625 -0.09375l0.078125 -1.203125q2.125 0.3125 3.203125 0.3125q1.078125 0 1.640625 -0.34375q0.578125 -0.34375 0.578125 -1.15625q0 -0.8125 -0.484375 -1.09375q-0.484375 -0.296875 -2.125 -0.5625q-1.640625 -0.265625 -2.328125 -0.765625q-0.6875 -0.5 -0.6875 -1.859375q0 -1.359375 0.953125 -2.015625q0.96875 -0.65625 2.40625 -0.65625q1.125 0 2.84375 0.265625l0.53125 0.09375l-0.046875 1.1875q-2.0625 -0.296875 -3.265625 -0.296875zm5.7532806 8.265625l0 -9.328125l1.40625 0l0 9.328125l-1.40625 0zm0 -11.4375l0 -1.625l1.40625 0l0 1.625l-1.40625 0zm7.007599 3.171875q-2.03125 0 -2.03125 1.421875q0 0.65625 0.46875 0.921875q0.46875 0.265625 2.125 0.5625q1.671875 0.28125 2.359375 0.8125q0.6875 0.515625 0.6875 1.953125q0 1.4375 -0.921875 2.109375q-0.921875 0.671875 -2.703125 0.671875q-1.15625 0 -2.71875 -0.265625l-0.5625 -0.09375l0.078125 -1.203125q2.125 0.3125 3.203125 0.3125q1.078125 0 1.640625 -0.34375q0.578125 -0.34375 0.578125 -1.15625q0 -0.8125 -0.484375 -1.09375q-0.484375 -0.296875 -2.125 -0.5625q-1.640625 -0.265625 -2.328125 -0.765625q-0.6875 -0.5 -0.6875 -1.859375q0 -1.359375 0.953125 -2.015625q0.96875 -0.65625 2.40625 -0.65625q1.125 0 2.84375 0.265625l0.53125 0.09375l-0.046875 1.1875q-2.0625 -0.296875 -3.265625 -0.296875zm5.9876556 8.265625l0 -12.90625l2.59375 0l3.65625 10.90625l3.671875 -10.90625l2.578125 0l0 12.90625l-1.421875 0l0 -11.375l-0.265625 0l-3.75 10.90625l-1.609375 0l-3.75 -10.90625l-0.265625 0l0 11.375l-1.4375 0zm21.687286 -1.15625l0.546875 -0.0625l0.03125 1.109375q-2.125 0.296875 -3.640625 0.296875q-2.015625 0 -2.859375 -1.15625q-0.828125 -1.171875 -0.828125 -3.640625q0 -4.90625 3.890625 -4.90625q1.890625 0 2.8125 1.0625q0.9375 1.046875 0.9375 3.296875l-0.078125 1.078125l-6.15625 0q0 1.546875 0.5625 2.296875q0.5625 0.734375 1.953125 0.734375q1.390625 0 2.828125 -0.109375zm-0.5 -4.046875q0 -1.71875 -0.5625 -2.421875q-0.546875 -0.71875 -1.796875 -0.71875q-1.234375 0 -1.859375 0.75q-0.625 0.75 -0.640625 2.390625l4.859375 0zm8.349762 -2.90625l-2.96875 0l0 4.453125q0 1.609375 0.234375 2.109375q0.234375 0.5 1.109375 0.5l1.671875 -0.109375l0.09375 1.15625q-1.25 0.203125 -1.90625 0.203125q-1.453125 0 -2.015625 -0.703125q-0.5625 -0.71875 -0.5625 -2.703125l0 -4.90625l-1.328125 0l0 -1.21875l1.328125 0l0 -2.859375l1.375 0l0 2.859375l2.96875 0l0 1.21875zm3.1264648 8.109375l-1.40625 0l0 -13.390625l1.40625 0l0 4.578125q1.484375 -0.703125 2.859375 -0.703125q1.875 0 2.515625 1.015625q0.640625 1.0 0.640625 3.578125l0 4.921875l-1.390625 0l0 -4.890625q0 -1.9375 -0.390625 -2.65625q-0.375 -0.71875 -1.609375 -0.71875q-1.171875 0 -2.28125 0.4375l-0.34375 0.125l0 7.703125zm8.205887 -4.671875q0 -2.5625 0.90625 -3.703125q0.921875 -1.140625 3.09375 -1.140625q2.171875 0 3.078125 1.140625q0.90625 1.140625 0.90625 3.703125q0 2.546875 -0.859375 3.703125q-0.859375 1.15625 -3.140625 1.15625q-2.265625 0 -3.125 -1.15625q-0.859375 -1.15625 -0.859375 -3.703125zm1.4375 -0.03125q0 2.03125 0.484375 2.859375q0.5 0.8125 2.078125 0.8125q1.578125 0 2.0625 -0.8125q0.484375 -0.8125 0.484375 -2.859375q0 -2.046875 -0.546875 -2.8125q-0.53125 -0.78125 -2.0 -0.78125q-1.46875 0 -2.015625 0.78125q-0.546875 0.765625 -0.546875 2.8125zm15.975525 -8.6875l0 13.390625l-1.375 0l0 -0.640625q-1.4375 0.828125 -2.828125 0.828125q-0.75 0 -1.3125 -0.1875q-0.5625 -0.1875 -1.046875 -0.671875q-1.0 -1.0 -1.0 -3.71875q0 -2.71875 0.90625 -3.921875q0.90625 -1.203125 2.984375 -1.203125q1.078125 0 2.296875 0.25l0 -4.125l1.375 0zm-5.484375 11.71875q0.3125 0.34375 0.640625 0.484375q0.34375 0.125 0.875 0.125q0.53125 0 1.1875 -0.171875q0.65625 -0.1875 1.03125 -0.34375l0.375 -0.171875l0 -6.328125q-1.1875 -0.21875 -2.21875 -0.21875q-1.421875 0 -1.984375 0.90625q-0.546875 0.890625 -0.546875 2.796875q0 2.171875 0.640625 2.921875z" fill-rule="nonzero"/><path fill="#000000" fill-opacity="0.0" d="m199.50394 397.3071l0 -33.00128l0.06298828 0l0 -33.014465" fill-rule="evenodd"/><path stroke="#212121" stroke-width="1.0" stroke-linejoin="round" stroke-linecap="butt" d="m199.50394 397.3071l0 -33.00128l0.06298828 0l0 -25.514465" fill-rule="evenodd"/><path stroke="#212121" stroke-width="1.0" stroke-linecap="butt" d="m201.76462 338.79135l-2.1976929 -6.0381165l-2.1976776 6.0381165z" fill-rule="evenodd"/><path fill="#000000" fill-opacity="0.0" d="m745.61945 79.01349l199.59052 0" fill-rule="evenodd"/><path stroke="#212121" stroke-width="1.0" stroke-linejoin="round" stroke-linecap="butt" d="m745.61945 79.01349l192.09052 0" fill-rule="evenodd"/><path stroke="#212121" stroke-width="1.0" stroke-linecap="butt" d="m937.70996 81.211174l6.038086 -2.1976852l-6.038086 -2.1976929z" fill-rule="evenodd"/><path fill="#ffffff" d="m799.1627 62.209972l92.50397 0l0 30.70866l-92.50397 0z" fill-rule="evenodd"/><path fill="#212121" d="m806.0565 83.804306l0 -8.65625l1.296875 0l0 8.65625l-1.296875 0zm0 -10.625l0 -1.5l1.296875 0l0 1.5l-1.296875 0zm5.091675 10.625l-1.296875 0l0 -8.65625l1.28125 0l0 0.59375q1.40625 -0.78125 2.6875 -0.78125q1.734375 0 2.328125 0.9375q0.59375 0.9375 0.59375 3.328125l0 4.578125l-1.28125 0l0 -4.546875q0 -1.796875 -0.359375 -2.453125q-0.34375 -0.671875 -1.515625 -0.671875q-0.546875 0 -1.171875 0.171875q-0.609375 0.15625 -0.9375 0.3125l-0.328125 0.15625l0 7.03125zm9.305176 0l-1.296875 0l0 -12.4375l1.296875 0l0 4.265625q1.390625 -0.671875 2.671875 -0.671875q1.734375 0 2.328125 0.9375q0.59375 0.9375 0.59375 3.328125l0 4.578125l-1.296875 0l0 -4.546875q0 -1.796875 -0.359375 -2.453125q-0.34375 -0.671875 -1.5 -0.671875q-1.078125 0 -2.109375 0.390625l-0.328125 0.125l0 7.15625zm13.898865 -1.078125l0.5 -0.046875l0.03125 1.015625q-1.96875 0.28125 -3.375 0.28125q-1.875 0 -2.65625 -1.078125q-0.78125 -1.09375 -0.78125 -3.375q0 -4.5625 3.625 -4.5625q1.75 0 2.609375 0.984375q0.875 0.984375 0.875 3.078125l-0.0625 0.984375l-5.71875 0q0 1.4375 0.515625 2.140625q0.515625 0.6875 1.8125 0.6875q1.296875 0 2.625 -0.109375zm-0.46875 -3.75q0 -1.59375 -0.515625 -2.25q-0.5 -0.671875 -1.65625 -0.671875q-1.15625 0 -1.734375 0.703125q-0.578125 0.6875 -0.59375 2.21875l4.5 0zm3.3287964 4.828125l0 -8.65625l1.28125 0l0 1.171875q1.5 -1.046875 3.171875 -1.375l0 1.328125q-0.734375 0.125 -1.53125 0.421875q-0.78125 0.296875 -1.1875 0.53125l-0.4375 0.21875l0 6.359375l-1.296875 0zm5.9954834 0l0 -8.65625l1.296875 0l0 8.65625l-1.296875 0zm0 -10.625l0 -1.5l1.296875 0l0 1.5l-1.296875 0zm8.279236 3.09375l-2.75 0l0 4.140625q0 1.484375 0.203125 1.953125q0.21875 0.46875 1.046875 0.46875l1.53125 -0.109375l0.09375 1.078125q-1.15625 0.1875 -1.765625 0.1875q-1.359375 0 -1.875 -0.65625q-0.515625 -0.65625 -0.515625 -2.515625l0 -4.546875l-1.234375 0l0 -1.125l1.234375 0l0 -2.65625l1.28125 0l0 2.65625l2.75 0l0 1.125zm7.7070923 1.484375l0 4.4375q0.0625 0.640625 1.015625 0.765625l-0.0625 1.015625q-1.359375 0 -2.0625 -0.6875q-1.546875 0.6875 -3.109375 0.6875q-1.203125 0 -1.828125 -0.671875q-0.625 -0.671875 -0.625 -1.9375q0 -1.265625 0.640625 -1.859375q0.640625 -0.609375 2.015625 -0.75l2.71875 -0.25l0 -0.75q0 -0.890625 -0.390625 -1.265625q-0.375 -0.375 -1.03125 -0.375q-1.390625 0 -2.875 0.171875l-0.53125 0.046875l-0.0625 -0.984375q1.90625 -0.390625 3.375 -0.390625q1.484375 0 2.140625 0.6875q0.671875 0.671875 0.671875 2.109375zm-5.328125 3.53125q0 1.59375 1.3125 1.59375q1.171875 0 2.328125 -0.390625l0.390625 -0.140625l0 -2.859375l-2.5625 0.234375q-0.78125 0.078125 -1.125 0.46875q-0.34375 0.375 -0.34375 1.09375zm9.19696 2.515625l-1.296875 0l0 -8.65625l1.28125 0l0 0.59375q1.40625 -0.78125 2.6875 -0.78125q1.734375 0 2.328125 0.9375q0.59375 0.9375 0.59375 3.328125l0 4.578125l-1.28125 0l0 -4.546875q0 -1.796875 -0.359375 -2.453125q-0.34375 -0.671875 -1.515625 -0.671875q-0.546875 0 -1.171875 0.171875q-0.609375 0.15625 -0.9375 0.3125l-0.328125 0.15625l0 7.03125zm11.242676 -8.84375q0.578125 0 1.9375 0.21875l0.421875 0.046875l-0.046875 1.0625q-1.390625 -0.15625 -2.046875 -0.15625q-1.46875 0 -2.0 0.703125q-0.53125 0.703125 -0.53125 2.59375q0 1.890625 0.484375 2.640625q0.5 0.75 2.0625 0.75l2.046875 -0.15625l0.046875 1.078125q-1.609375 0.234375 -2.40625 0.234375q-2.03125 0 -2.796875 -1.03125q-0.765625 -1.046875 -0.765625 -3.515625q0 -2.46875 0.828125 -3.46875q0.828125 -1.0 2.765625 -1.0zm10.107239 7.765625l0.5 -0.046875l0.03125 1.015625q-1.96875 0.28125 -3.375 0.28125q-1.875 0 -2.65625 -1.078125q-0.78125 -1.09375 -0.78125 -3.375q0 -4.5625 3.625 -4.5625q1.75 0 2.609375 0.984375q0.875 0.984375 0.875 3.078125l-0.0625 0.984375l-5.71875 0q0 1.4375 0.515625 2.140625q0.515625 0.6875 1.8125 0.6875q1.296875 0 2.625 -0.109375zm-0.46875 -3.75q0 -1.59375 -0.515625 -2.25q-0.5 -0.671875 -1.65625 -0.671875q-1.15625 0 -1.734375 0.703125q-0.578125 0.6875 -0.59375 2.21875l4.5 0z" fill-rule="nonzero"/><path fill="#000000" fill-opacity="0.0" d="m745.61945 53.299213l199.59052 0" fill-rule="evenodd"/><path stroke="#212121" stroke-width="1.0" stroke-linejoin="round" stroke-linecap="butt" d="m752.7477 53.299213l192.46228 0" fill-rule="evenodd"/><path fill="#212121" stroke="#212121" stroke-width="1.0" stroke-linecap="butt" d="m752.7477 53.299213l-3.1282349 -2.190445l-3.128296 2.190445l3.128296 2.1904411z" fill-rule="evenodd"/><path fill="#ffffff" d="m794.0761 36.0506l102.677185 0l0 30.708664l-102.677185 0z" fill-rule="evenodd"/><path fill="#212121" d="m803.7546 48.801178q0.578125 0 1.9375 0.21875l0.421875 0.046875l-0.046875 1.0625q-1.390625 -0.15625 -2.046875 -0.15625q-1.46875 0 -2.0 0.703125q-0.53125 0.703125 -0.53125 2.59375q0 1.890625 0.484375 2.640625q0.5 0.75 2.0625 0.75l2.046875 -0.15625l0.046875 1.078125q-1.609375 0.234375 -2.40625 0.234375q-2.03125 0 -2.796875 -1.03125q-0.765625 -1.046875 -0.765625 -3.515625q0 -2.46875 0.828125 -3.46875q0.828125 -1.0 2.765625 -1.0zm3.8260498 4.5q0 -2.375 0.84375 -3.4375q0.859375 -1.0625 2.875 -1.0625q2.03125 0 2.859375 1.0625q0.84375 1.0625 0.84375 3.4375q0 2.375 -0.796875 3.453125q-0.796875 1.0625 -2.921875 1.0625q-2.109375 0 -2.90625 -1.0625q-0.796875 -1.078125 -0.796875 -3.453125zm1.34375 -0.03125q0 1.890625 0.453125 2.65625q0.46875 0.765625 1.921875 0.765625q1.46875 0 1.921875 -0.75q0.453125 -0.75 0.453125 -2.65625q0 -1.90625 -0.515625 -2.625q-0.5 -0.734375 -1.859375 -0.734375q-1.359375 0 -1.875 0.734375q-0.5 0.71875 -0.5 2.609375zm9.49292 4.375l-1.296875 0l0 -8.65625l1.28125 0l0 0.59375q1.40625 -0.78125 2.6875 -0.78125q1.734375 0 2.328125 0.9375q0.59375 0.9375 0.59375 3.328125l0 4.578125l-1.28125 0l0 -4.546875q0 -1.796875 -0.359375 -2.453125q-0.34375 -0.671875 -1.515625 -0.671875q-0.546875 0 -1.171875 0.171875q-0.609375 0.15625 -0.9375 0.3125l-0.328125 0.15625l0 7.03125zm12.440674 -7.53125l-2.75 0l0 4.140625q0 1.484375 0.203125 1.953125q0.21875 0.46875 1.046875 0.46875l1.53125 -0.109375l0.09375 1.078125q-1.15625 0.1875 -1.765625 0.1875q-1.359375 0 -1.875 -0.65625q-0.515625 -0.65625 -0.515625 -2.515625l0 -4.546875l-1.234375 0l0 -1.125l1.234375 0l0 -2.65625l1.28125 0l0 2.65625l2.75 0l0 1.125zm7.7070923 1.484375l0 4.4375q0.0625 0.640625 1.015625 0.765625l-0.0625 1.015625q-1.359375 0 -2.0625 -0.6875q-1.546875 0.6875 -3.109375 0.6875q-1.203125 0 -1.828125 -0.671875q-0.625 -0.671875 -0.625 -1.9375q0 -1.265625 0.640625 -1.859375q0.640625 -0.609375 2.015625 -0.75l2.71875 -0.25l0 -0.75q0 -0.890625 -0.390625 -1.265625q-0.375 -0.375 -1.03125 -0.375q-1.390625 0 -2.875 0.171875l-0.53125 0.046875l-0.0625 -0.984375q1.90625 -0.390625 3.375 -0.390625q1.484375 0 2.140625 0.6875q0.671875 0.671875 0.671875 2.109375zm-5.328125 3.53125q0 1.59375 1.3125 1.59375q1.171875 0 2.328125 -0.390625l0.390625 -0.140625l0 -2.859375l-2.5625 0.234375q-0.78125 0.078125 -1.125 0.46875q-0.34375 0.375 -0.34375 1.09375zm7.9000854 2.515625l0 -8.65625l1.296875 0l0 8.65625l-1.296875 0zm0 -10.625l0 -1.5l1.296875 0l0 1.5l-1.296875 0zm5.091736 10.625l-1.296875 0l0 -8.65625l1.28125 0l0 0.59375q1.40625 -0.78125 2.6875 -0.78125q1.734375 0 2.328125 0.9375q0.59375 0.9375 0.59375 3.328125l0 4.578125l-1.28125 0l0 -4.546875q0 -1.796875 -0.359375 -2.453125q-0.34375 -0.671875 -1.515625 -0.671875q-0.546875 0 -1.171875 0.171875q-0.609375 0.15625 -0.9375 0.3125l-0.328125 0.15625l0 7.03125zm9.305115 0l-1.296875 0l0 -8.65625l1.28125 0l0 0.59375q1.296875 -0.78125 2.53125 -0.78125q1.609375 0 2.25 0.890625q0.578125 -0.34375 1.484375 -0.609375q0.90625 -0.28125 1.59375 -0.28125q1.734375 0 2.328125 0.9375q0.609375 0.921875 0.609375 3.328125l0 4.578125l-1.296875 0l0 -4.546875q0 -1.796875 -0.359375 -2.453125q-0.34375 -0.671875 -1.46875 -0.671875q-0.5625 0 -1.171875 0.171875q-0.609375 0.15625 -0.9375 0.3125l-0.328125 0.15625q0.21875 0.5625 0.21875 2.53125l0 4.5l-1.296875 0l0 -4.46875q0 -1.875 -0.34375 -2.53125q-0.328125 -0.671875 -1.46875 -0.671875q-0.5625 0 -1.140625 0.171875q-0.578125 0.15625 -0.890625 0.3125l-0.296875 0.15625l0 7.03125zm19.080017 -1.078125l0.5 -0.046875l0.03125 1.015625q-1.96875 0.28125 -3.375 0.28125q-1.875 0 -2.65625 -1.078125q-0.78125 -1.09375 -0.78125 -3.375q0 -4.5625 3.625 -4.5625q1.75 0 2.609375 0.984375q0.875 0.984375 0.875 3.078125l-0.0625 0.984375l-5.71875 0q0 1.4375 0.515625 2.140625q0.515625 0.6875 1.8125 0.6875q1.296875 0 2.625 -0.109375zm-0.46875 -3.75q0 -1.59375 -0.515625 -2.25q-0.5 -0.671875 -1.65625 -0.671875q-1.15625 0 -1.734375 0.703125q-0.578125 0.6875 -0.59375 2.21875l4.5 0zm4.6256104 4.828125l-1.296875 0l0 -8.65625l1.28125 0l0 0.59375q1.40625 -0.78125 2.6875 -0.78125q1.734375 0 2.328125 0.9375q0.59375 0.9375 0.59375 3.328125l0 4.578125l-1.28125 0l0 -4.546875q0 -1.796875 -0.359375 -2.453125q-0.34375 -0.671875 -1.515625 -0.671875q-0.546875 0 -1.171875 0.171875q-0.609375 0.15625 -0.9375 0.3125l-0.328125 0.15625l0 7.03125zm12.440674 -7.53125l-2.75 0l0 4.140625q0 1.484375 0.203125 1.953125q0.21875 0.46875 1.046875 0.46875l1.53125 -0.109375l0.09375 1.078125q-1.15625 0.1875 -1.765625 0.1875q-1.359375 0 -1.875 -0.65625q-0.515625 -0.65625 -0.515625 -2.515625l0 -4.546875l-1.234375 0l0 -1.125l1.234375 0l0 -2.65625l1.28125 0l0 2.65625l2.75 0l0 1.125z" fill-rule="nonzero"/><path fill="#000000" fill-opacity="0.0" d="m745.61945 26.695538l199.59052 0" fill-rule="evenodd"/><path stroke="#212121" stroke-width="1.0" stroke-linejoin="round" stroke-linecap="butt" d="m745.61945 26.695538l195.20935 0" fill-rule="evenodd"/><path fill="#212121" stroke="#212121" stroke-width="1.0" stroke-linecap="butt" d="m940.82886 26.695538l-1.6705322 1.6705399l4.5897217 -1.6705399l-4.5897217 -1.670538z" fill-rule="evenodd"/><path fill="#ffffff" d="m805.17847 9.368585l80.47247 0l0 30.70866l-80.47247 0z" fill-rule="evenodd"/><path fill="#212121" d="m812.17334 30.962914l0 -8.65625l1.28125 0l0 1.171875q1.5 -1.046875 3.171875 -1.375l0 1.328125q-0.734375 0.125 -1.53125 0.421875q-0.78125 0.296875 -1.1875 0.53125l-0.4375 0.21875l0 6.359375l-1.296875 0zm11.71283 -1.078125l0.5 -0.046875l0.03125 1.015625q-1.96875 0.28125 -3.375 0.28125q-1.875 0 -2.65625 -1.078125q-0.78125 -1.09375 -0.78125 -3.375q0 -4.5625 3.625 -4.5625q1.75 0 2.609375 0.984375q0.875 0.984375 0.875 3.078125l-0.0625 0.984375l-5.71875 0q0 1.4375 0.515625 2.140625q0.515625 0.6875 1.8125 0.6875q1.296875 0 2.625 -0.109375zm-0.46875 -3.75q0 -1.59375 -0.515625 -2.25q-0.5 -0.671875 -1.65625 -0.671875q-1.15625 0 -1.734375 0.703125q-0.578125 0.6875 -0.59375 2.21875l4.5 0zm4.9849854 -2.703125l0 7.53125l-1.296875 0l0 -7.53125l-1.09375 0l0 -1.125l1.09375 0l0 -0.78125q0 -1.84375 0.515625 -2.5q0.53125 -0.671875 1.828125 -0.671875l1.75 0.109375l-0.015625 1.078125q-0.96875 -0.03125 -1.609375 -0.03125q-0.625 0 -0.90625 0.421875q-0.265625 0.40625 -0.265625 1.609375l0 0.765625l2.515625 0l0 1.125l-2.515625 0zm9.813965 6.453125l0.5 -0.046875l0.03125 1.015625q-1.96875 0.28125 -3.375 0.28125q-1.875 0 -2.65625 -1.078125q-0.78125 -1.09375 -0.78125 -3.375q0 -4.5625 3.625 -4.5625q1.75 0 2.609375 0.984375q0.875 0.984375 0.875 3.078125l-0.0625 0.984375l-5.71875 0q0 1.4375 0.515625 2.140625q0.515625 0.6875 1.8125 0.6875q1.296875 0 2.625 -0.109375zm-0.46875 -3.75q0 -1.59375 -0.515625 -2.25q-0.5 -0.671875 -1.65625 -0.671875q-1.15625 0 -1.734375 0.703125q-0.578125 0.6875 -0.59375 2.21875l4.5 0zm3.3287964 4.828125l0 -8.65625l1.28125 0l0 1.171875q1.5 -1.046875 3.171875 -1.375l0 1.328125q-0.734375 0.125 -1.53125 0.421875q-0.78125 0.296875 -1.1875 0.53125l-0.4375 0.21875l0 6.359375l-1.296875 0zm11.712769 -1.078125l0.5 -0.046875l0.03125 1.015625q-1.96875 0.28125 -3.375 0.28125q-1.875 0 -2.65625 -1.078125q-0.78125 -1.09375 -0.78125 -3.375q0 -4.5625 3.625 -4.5625q1.75 0 2.609375 0.984375q0.875 0.984375 0.875 3.078125l-0.0625 0.984375l-5.71875 0q0 1.4375 0.515625 2.140625q0.515625 0.6875 1.8125 0.6875q1.296875 0 2.625 -0.109375zm-0.46875 -3.75q0 -1.59375 -0.515625 -2.25q-0.5 -0.671875 -1.65625 -0.671875q-1.15625 0 -1.734375 0.703125q-0.578125 0.6875 -0.59375 2.21875l4.5 0zm4.6256714 4.828125l-1.296875 0l0 -8.65625l1.28125 0l0 0.59375q1.40625 -0.78125 2.6875 -0.78125q1.734375 0 2.328125 0.9375q0.59375 0.9375 0.59375 3.328125l0 4.578125l-1.28125 0l0 -4.546875q0 -1.796875 -0.359375 -2.453125q-0.34375 -0.671875 -1.515625 -0.671875q-0.546875 0 -1.171875 0.171875q-0.609375 0.15625 -0.9375 0.3125l-0.328125 0.15625l0 7.03125zm11.242615 -8.84375q0.578125 0 1.9375 0.21875l0.421875 0.046875l-0.046875 1.0625q-1.390625 -0.15625 -2.046875 -0.15625q-1.46875 0 -2.0 0.703125q-0.53125 0.703125 -0.53125 2.59375q0 1.890625 0.484375 2.640625q0.5 0.75 2.0625 0.75l2.046875 -0.15625l0.046875 1.078125q-1.609375 0.234375 -2.40625 0.234375q-2.03125 0 -2.796875 -1.03125q-0.765625 -1.046875 -0.765625 -3.515625q0 -2.46875 0.828125 -3.46875q0.828125 -1.0 2.765625 -1.0zm10.1073 7.765625l0.5 -0.046875l0.03125 1.015625q-1.96875 0.28125 -3.375 0.28125q-1.875 0 -2.65625 -1.078125q-0.78125 -1.09375 -0.78125 -3.375q0 -4.5625 3.625 -4.5625q1.75 0 2.609375 0.984375q0.875 0.984375 0.875 3.078125l-0.0625 0.984375l-5.71875 0q0 1.4375 0.515625 2.140625q0.515625 0.6875 1.8125 0.6875q1.296875 0 2.625 -0.109375zm-0.46875 -3.75q0 -1.59375 -0.515625 -2.25q-0.5 -0.671875 -1.65625 -0.671875q-1.15625 0 -1.734375 0.703125q-0.578125 0.6875 -0.59375 2.21875l4.5 0z" fill-rule="nonzero"/></g></svg>