<svg xmlns="http://www.w3.org/2000/svg" xmlns:xlink="http://www.w3.org/1999/xlink" width="193" height="193" viewBox="0 0 193 193"><defs><filter id="a" x="0" y="0" width="193" height="193" filterUnits="userSpaceOnUse"><feOffset dy="10" input="SourceAlpha"/><feGaussianBlur stdDeviation="7.5" result="b"/><feFlood flood-color="#598ebc" flood-opacity="0.671"/><feComposite operator="in" in2="b"/><feComposite in="SourceGraphic"/></filter></defs><g transform="translate(22.5 12.5)"><g transform="matrix(1, 0, 0, 1, -22.5, -12.5)" filter="url(#a)"><circle cx="74" cy="74" r="74" transform="translate(22.5 12.5)" fill="#fff"/></g><g transform="translate(29 24)"><path d="M2762.43,889.712c-.43,1.855-.879,3.809-1.426,5.791-.566,1.982-1.172,3.984-1.895,5.938-2.5,10.635-13.281,18.633-24.648,15.557-9.336-2.715-18.4-8-23.984-15.85a31.046,31.046,0,0,1-3.516-6.348c-6.328-12.627-3.477-31.094,10.547-37.227,14.648-6.309,29.766-8.32,44.961-9.473a25.156,25.156,0,0,1,6.895,1.289c4.238,1.514,7.559,4.5,8.125,9.795,1.113,9.229-5.254,16.553-11.055,22.979A76.272,76.272,0,0,0,2762.43,889.712Z" transform="translate(-2699.958 -832.878)" fill="#00dfe0" opacity="0.5"/><g transform="translate(25.483 32.107)"><path d="M2736.131,889.706a1.124,1.124,0,0,1-.605-.166,1.2,1.2,0,0,1-.625-1.055v-9.941a1.208,1.208,0,0,1,.625-1.055l8.594-4.971a1.231,1.231,0,0,1,1.836,1.055v9.941a1.2,1.2,0,0,1-.625,1.055l-8.594,4.971A1.286,1.286,0,0,1,2736.131,889.706Zm1.23-10.459v7.129l6.172-3.564-.039-7.129Z" transform="translate(-2734.9 -872.357)" fill="#4472db"/><path d="M2744.707,899.018a1.182,1.182,0,0,1-.605-.166l-8.594-4.971a1.221,1.221,0,0,1,0-2.109l8.594-4.971a1.218,1.218,0,0,1,1.211,0l8.613,4.971a1.211,1.211,0,0,1,0,2.119l-8.613,4.961A1.088,1.088,0,0,1,2744.707,899.018Zm-6.172-6.182,6.172,3.555,6.172-3.555-6.172-3.574Z" transform="translate(-2734.902 -876.697)" fill="#4472db"/><path d="M2757.1,889.706a1.329,1.329,0,0,1-.605-.156l-8.613-4.98a1.218,1.218,0,0,1-.605-1.055v-9.941a1.242,1.242,0,0,1,.605-1.055,1.218,1.218,0,0,1,1.211,0l8.613,4.971a1.249,1.249,0,0,1,.625,1.055v9.951a1.262,1.262,0,0,1-.625,1.055A1.4,1.4,0,0,1,2757.1,889.706Zm-7.4-6.895,6.191,3.564v-7.129l-6.191-3.564Z" transform="translate(-2738.653 -872.357)" fill="#4472db"/></g><g transform="translate(16.873 17.195)"><path d="M2723.744,868.282a1.286,1.286,0,0,1-.605-.166,1.218,1.218,0,0,1-.605-1.055l.02-9.941a1.2,1.2,0,0,1,.586-1.055l8.613-4.971a1.255,1.255,0,0,1,1.23,0,1.23,1.23,0,0,1,.605,1.055v9.941a1.23,1.23,0,0,1-.605,1.055l-8.613,4.971A1.194,1.194,0,0,1,2723.744,868.282Zm1.23-10.459v7.129l6.172-3.564v-7.129Z" transform="translate(-2722.533 -850.933)" fill="#4472db"/><path d="M2732.377,877.6a1.361,1.361,0,0,1-.625-.166l-8.613-4.971a1.221,1.221,0,0,1,0-2.109l8.613-4.971a1.231,1.231,0,0,1,1.23,0l8.613,4.971a1.242,1.242,0,0,1,.605,1.055,1.218,1.218,0,0,1-.605,1.055l-8.613,4.971A1.228,1.228,0,0,1,2732.377,877.6Zm-6.191-6.191,6.191,3.564,6.172-3.564-6.172-3.564Z" transform="translate(-2722.533 -855.274)" fill="#4472db"/><path d="M2744.707,868.282a1.286,1.286,0,0,1-.605-.166l-8.594-4.971a1.19,1.19,0,0,1-.605-1.055v-9.941a1.19,1.19,0,0,1,.605-1.055,1.218,1.218,0,0,1,1.211,0l8.594,4.971a1.179,1.179,0,0,1,.605,1.055v9.941a1.22,1.22,0,0,1-1.211,1.221Zm-7.383-6.895,6.172,3.564v-7.129l-6.172-3.564Z" transform="translate(-2726.284 -850.933)" fill="#4472db"/></g><g transform="translate(16.873 47.019)"><path d="M2723.744,911.129a1.182,1.182,0,0,1-.605-.166,1.206,1.206,0,0,1-.605-1.055l.02-9.932a1.2,1.2,0,0,1,.586-1.055l8.613-4.98a1.255,1.255,0,0,1,1.23,0,1.242,1.242,0,0,1,.605,1.055v9.941a1.246,1.246,0,0,1-.605,1.064l-8.613,4.961A1.11,1.11,0,0,1,2723.744,911.129Zm1.23-10.449v7.129l6.172-3.564v-7.129Z" transform="translate(-2722.533 -893.781)" fill="#4472db"/><path d="M2732.377,920.45a1.361,1.361,0,0,1-.625-.166l-8.613-4.971a1.221,1.221,0,0,1,0-2.109l8.613-4.98a1.255,1.255,0,0,1,1.23,0l8.613,4.98a1.221,1.221,0,0,1,0,2.109l-8.613,4.971A1.228,1.228,0,0,1,2732.377,920.45Zm-6.191-6.191,6.191,3.564,6.172-3.564-6.172-3.564Z" transform="translate(-2722.533 -898.12)" fill="#4472db"/><path d="M2744.725,911.129a1.271,1.271,0,0,1-.605-.156L2735.525,906a1.223,1.223,0,0,1-.625-1.064V895a1.231,1.231,0,0,1,1.836-1.055l8.594,4.98a1.2,1.2,0,0,1,.625,1.055v9.941a1.208,1.208,0,0,1-.625,1.055A1.119,1.119,0,0,1,2744.725,911.129Zm-7.363-6.885,6.172,3.564V900.68l-6.172-3.564Z" transform="translate(-2726.282 -893.781)" fill="#4472db"/></g><ellipse cx="50" cy="50" rx="50" ry="50" transform="translate(0 0)" fill="none"/><g transform="translate(47.917 38.84)"><path d="M2797.541,929.061a1.224,1.224,0,0,1-.879-.352l-8.262-8.262-2.93,5.352a1.2,1.2,0,0,1-2.207-.2l-9.355-27.676a1.172,1.172,0,0,1,.293-1.26,1.218,1.218,0,0,1,1.25-.293l27.676,9.365a1.234,1.234,0,0,1,.84,1.045,1.3,1.3,0,0,1-.645,1.172l-5.371,2.93,8.281,8.262a1.245,1.245,0,0,1,.332.859,1.287,1.287,0,0,1-.332.869l-7.852,7.832A1.2,1.2,0,0,1,2797.541,929.061Zm-9.434-11.846a1.22,1.22,0,0,1,.859.352l8.574,8.555,6.094-6.113-8.535-8.545a1.153,1.153,0,0,1-.352-1.035,1.2,1.2,0,0,1,.625-.9l4.336-2.383-22.7-7.666,7.656,22.715,2.363-4.346a1.287,1.287,0,0,1,.918-.625C2787.99,917.225,2788.068,917.215,2788.107,917.215Z" transform="translate(-2769.173 -886.37)" fill="#4472db"/><path d="M2781.15,890.875a1.177,1.177,0,0,1-1.016-.566,1.2,1.2,0,0,1,.391-1.68l10.2-6.406a1.214,1.214,0,0,1,1.68.371,1.235,1.235,0,0,1-.371,1.689l-10.215,6.416A1.255,1.255,0,0,1,2781.15,890.875Z" transform="translate(-2771.029 -882.031)" fill="#4472db"/><path d="M2768.365,921.875a1.061,1.061,0,0,1-.176-.01,1.249,1.249,0,0,1-1.055-1.367l1.5-11.025a1.222,1.222,0,0,1,1.387-1.045,1.21,1.21,0,0,1,1.016,1.377l-1.484,11.016A1.208,1.208,0,0,1,2768.365,921.875Z" transform="translate(-2767.13 -890.051)" fill="#4472db"/><path d="M2795.105,897.024h-6.621a1.221,1.221,0,0,1,0-2.441h6.621a1.221,1.221,0,1,1,0,2.441Z" transform="translate(-2773.26 -885.848)" fill="#4472db"/></g><ellipse cx="2.241" cy="2.241" rx="2.241" ry="2.241" transform="translate(47.833 35.123)" fill="#4472db"/><ellipse cx="2.241" cy="2.241" rx="2.241" ry="2.241" transform="translate(55.104 27.851)" fill="#4472db"/><ellipse cx="2.241" cy="2.241" rx="2.241" ry="2.241" transform="translate(60.533 35.123)" fill="#4472db"/><ellipse cx="2.241" cy="2.241" rx="2.241" ry="2.241" transform="translate(75.859 35.123)" fill="#4472db"/><ellipse cx="2.241" cy="2.241" rx="2.241" ry="2.241" transform="translate(75.5 20.631)" fill="#4472db"/><ellipse cx="2.241" cy="2.241" rx="2.241" ry="2.241" transform="translate(43.073 27.851)" fill="#4472db"/><ellipse cx="2.241" cy="2.241" rx="2.241" ry="2.241" transform="translate(58.216 20.642)" fill="#4472db"/><ellipse cx="2.241" cy="2.241" rx="2.241" ry="2.241" transform="translate(65.426 27.851)" fill="#4472db"/><path d="M2769.678,877.417a1.216,1.216,0,0,1-.859-2.08l7.285-7.266a1.208,1.208,0,0,1,1.7,1.719l-7.246,7.275A1.257,1.257,0,0,1,2769.678,877.417Z" transform="translate(-2719.629 -838.837)" fill="#4472db"/><path d="M2790.451,870.154h-10.312a1.221,1.221,0,0,1,0-2.441h10.313a1.221,1.221,0,0,1,0,2.441Z" transform="translate(-2722.8 -838.837)" fill="#4472db"/><path d="M2791.8,866.971a1.109,1.109,0,0,1-.84-.361l-7.285-7.266a1.191,1.191,0,0,1,0-1.719,1.208,1.208,0,0,1,1.719,0l7.266,7.266a1.191,1.191,0,0,1,0,1.719A1.151,1.151,0,0,1,2791.8,866.971Z" transform="translate(-2724.13 -835.666)" fill="#4472db"/></g></g></svg>