<svg version="1.1" viewBox="0.0 0.0 960.0 540.0" fill="none" stroke="none" stroke-linecap="square" stroke-miterlimit="10" xmlns:xlink="http://www.w3.org/1999/xlink" xmlns="http://www.w3.org/2000/svg"><clipPath id="g25a5d6e0acf_0_60.0"><path d="m0 0l960.0 0l0 540.0l-960.0 0l0 -540.0z" clip-rule="nonzero"/></clipPath><g clip-path="url(#g25a5d6e0acf_0_60.0)"><path fill="#ffffff" d="m0 0l960.0 0l0 540.0l-960.0 0z" fill-rule="evenodd"/><path fill="#ffffff" d="m551.4816 248.11942l125.00787 0l0 46.393707l-125.00787 0z" fill-rule="evenodd"/><path stroke="#212121" stroke-width="1.0" stroke-linejoin="round" stroke-linecap="butt" d="m551.4816 248.11942l125.00787 0l0 46.393707l-125.00787 0z" fill-rule="evenodd"/><path fill="#212121" d="m571.7029 278.23627l0 -12.90625l1.4375 0l0 12.90625l-1.4375 0zm5.7612915 0l-1.40625 0l0 -9.328125l1.375 0l0 0.65625q1.515625 -0.84375 2.890625 -0.84375q1.875 0 2.515625 1.015625q0.640625 1.0 0.640625 3.578125l0 4.921875l-1.375 0l0 -4.890625q0 -1.9375 -0.390625 -2.65625q-0.375 -0.71875 -1.625 -0.71875q-0.59375 0 -1.265625 0.1875q-0.65625 0.171875 -1.015625 0.328125l-0.34375 0.171875l0 7.578125zm11.534058 -8.265625q-2.03125 0 -2.03125 1.421875q0 0.65625 0.46875 0.921875q0.46875 0.265625 2.125 0.5625q1.671875 0.28125 2.359375 0.8125q0.6875 0.515625 0.6875 1.953125q0 1.4375 -0.921875 2.109375q-0.921875 0.671875 -2.703125 0.671875q-1.15625 0 -2.71875 -0.265625l-0.5625 -0.09375l0.078125 -1.203125q2.125 0.3125 3.203125 0.3125q1.078125 0 1.640625 -0.34375q0.578125 -0.34375 0.578125 -1.15625q0 -0.8125 -0.484375 -1.09375q-0.484375 -0.296875 -2.125 -0.5625q-1.640625 -0.265625 -2.328125 -0.765625q-0.6875 -0.5 -0.6875 -1.859375q0 -1.359375 0.953125 -2.015625q0.96875 -0.65625 2.40625 -0.65625q1.125 0 2.84375 0.265625l0.53125 0.09375l-0.046875 1.1875q-2.0625 -0.296875 -3.265625 -0.296875zm10.58136 0.15625l-2.96875 0l0 4.453125q0 1.609375 0.234375 2.109375q0.234375 0.5 1.109375 0.5l1.671875 -0.109375l0.09375 1.15625q-1.25 0.203125 -1.90625 0.203125q-1.453125 0 -2.015625 -0.703125q-0.5625 -0.71875 -0.5625 -2.703125l0 -4.90625l-1.328125 0l0 -1.21875l1.328125 0l0 -2.859375l1.375 0l0 2.859375l2.96875 0l0 1.21875zm1.7202148 8.109375l0 -9.328125l1.375 0l0 1.265625q1.625 -1.109375 3.421875 -1.46875l0 1.421875q-0.78125 0.140625 -1.640625 0.46875q-0.84375 0.3125 -1.296875 0.546875l-0.453125 0.25l0 6.84375l-1.40625 0zm12.267578 -9.328125l1.40625 0l0 9.328125l-1.40625 0l0 -0.65625q-1.390625 0.84375 -2.75 0.84375q-1.90625 0 -2.53125 -0.984375q-0.625 -1.0 -0.625 -3.65625l0 -4.875l1.40625 0l0 4.84375q0 2.046875 0.34375 2.734375q0.359375 0.6875 1.609375 0.6875q0.609375 0 1.25 -0.171875q0.640625 -0.1875 0.96875 -0.34375l0.328125 -0.171875l0 -7.578125zm5.500244 9.328125l-1.40625 0l0 -9.328125l1.375 0l0 0.65625q1.40625 -0.84375 2.734375 -0.84375q1.734375 0 2.421875 0.953125q0.609375 -0.375 1.59375 -0.65625q0.984375 -0.296875 1.71875 -0.296875q1.875 0 2.515625 1.0q0.640625 1.0 0.640625 3.59375l0 4.921875l-1.390625 0l0 -4.890625q0 -1.9375 -0.375 -2.65625q-0.375 -0.71875 -1.59375 -0.71875q-0.609375 0 -1.265625 0.1875q-0.65625 0.171875 -1.0 0.328125l-0.359375 0.171875q0.234375 0.625 0.234375 2.734375l0 4.84375l-1.390625 0l0 -4.8125q0 -2.015625 -0.375 -2.734375q-0.359375 -0.71875 -1.578125 -0.71875q-0.609375 0 -1.234375 0.1875q-0.625 0.171875 -0.953125 0.328125l-0.3125 0.171875l0 7.578125zm20.534119 -1.15625l0.546875 -0.0625l0.03125 1.109375q-2.125 0.296875 -3.640625 0.296875q-2.015625 0 -2.859375 -1.15625q-0.828125 -1.171875 -0.828125 -3.640625q0 -4.90625 3.890625 -4.90625q1.890625 0 2.8125 1.0625q0.9375 1.046875 0.9375 3.296875l-0.078125 1.078125l-6.15625 0q0 1.546875 0.5625 2.296875q0.5625 0.734375 1.953125 0.734375q1.390625 0 2.828125 -0.109375zm-0.5 -4.046875q0 -1.71875 -0.5625 -2.421875q-0.546875 -0.71875 -1.796875 -0.71875q-1.234375 0 -1.859375 0.75q-0.625 0.75 -0.640625 2.390625l4.859375 0zm4.9838867 5.203125l-1.40625 0l0 -9.328125l1.375 0l0 0.65625q1.515625 -0.84375 2.890625 -0.84375q1.875 0 2.515625 1.015625q0.640625 1.0 0.640625 3.578125l0 4.921875l-1.375 0l0 -4.890625q0 -1.9375 -0.390625 -2.65625q-0.375 -0.71875 -1.625 -0.71875q-0.59375 0 -1.265625 0.1875q-0.65625 0.171875 -1.015625 0.328125l-0.34375 0.171875l0 7.578125zm13.384277 -8.109375l-2.96875 0l0 4.453125q0 1.609375 0.234375 2.109375q0.234375 0.5 1.109375 0.5l1.671875 -0.109375l0.09375 1.15625q-1.25 0.203125 -1.90625 0.203125q-1.453125 0 -2.015625 -0.703125q-0.5625 -0.71875 -0.5625 -2.703125l0 -4.90625l-1.328125 0l0 -1.21875l1.328125 0l0 -2.859375l1.375 0l0 2.859375l2.96875 0l0 1.21875z" fill-rule="nonzero"/><path fill="#000000" fill-opacity="0.0" d="m613.98553 248.11942l0 -33.001266l-133.98422 0l0 -33.01448" fill-rule="evenodd"/><path stroke="#212121" stroke-width="1.0" stroke-linejoin="round" stroke-linecap="butt" d="m613.98553 248.11942l0 -33.001266l-133.98422 0l0 -25.51448" fill-rule="evenodd"/><path stroke="#212121" stroke-width="1.0" stroke-linecap="butt" d="m482.199 189.60367l-2.1976929 -6.038086l-2.1976929 6.038086z" fill-rule="evenodd"/><path fill="#ffffff" d="m499.75986 357.8832l143.49606 0l0 46.393707l-143.49606 0z" fill-rule="evenodd"/><path stroke="#212121" stroke-width="1.0" stroke-linejoin="round" stroke-linecap="butt" d="m499.75986 357.8832l143.49606 0l0 46.393707l-143.49606 0z" fill-rule="evenodd"/><path fill="#212121" d="m518.59625 383.6563l-3.296875 0l0 4.34375l-1.4375 0l0 -12.90625l4.734375 0q2.09375 0 3.09375 1.03125q1.015625 1.015625 1.015625 3.125q0 4.40625 -4.109375 4.40625zm-3.296875 -1.265625l3.265625 0q2.671875 0 2.671875 -3.140625q0 -1.5 -0.640625 -2.1875q-0.625 -0.703125 -2.03125 -0.703125l-3.265625 0l0 6.03125zm15.203796 -3.71875l1.40625 0l0 9.328125l-1.40625 0l0 -0.65625q-1.390625 0.84375 -2.75 0.84375q-1.90625 0 -2.53125 -0.984375q-0.625 -1.0 -0.625 -3.65625l0 -4.875l1.40625 0l0 4.84375q0 2.046875 0.34375 2.734375q0.359375 0.6875 1.609375 0.6875q0.609375 0 1.25 -0.171875q0.640625 -0.1875 0.96875 -0.34375l0.328125 -0.171875l0 -7.578125zm4.093933 9.328125l0 -9.328125l1.375 0l0 1.265625q1.625 -1.109375 3.421875 -1.46875l0 1.421875q-0.78125 0.140625 -1.640625 0.46875q-0.84375 0.3125 -1.296875 0.546875l-0.453125 0.25l0 6.84375l-1.40625 0zm12.612122 -1.15625l0.546875 -0.0625l0.03125 1.109375q-2.125 0.296875 -3.640625 0.296875q-2.015625 0 -2.859375 -1.15625q-0.828125 -1.171875 -0.828125 -3.640625q0 -4.90625 3.890625 -4.90625q1.890625 0 2.8125 1.0625q0.9375 1.046875 0.9375 3.296875l-0.078125 1.078125l-6.15625 0q0 1.546875 0.5625 2.296875q0.5625 0.734375 1.953125 0.734375q1.390625 0 2.828125 -0.109375zm-0.5 -4.046875q0 -1.71875 -0.5625 -2.421875q-0.546875 -0.71875 -1.796875 -0.71875q-1.234375 0 -1.859375 0.75q-0.625 0.75 -0.640625 2.390625l4.859375 0zm7.3154907 -6.640625q-2.8125 0 -2.8125 2.109375q0 1.171875 0.640625 1.609375q0.65625 0.4375 2.625 0.875q1.96875 0.4375 2.78125 1.140625q0.828125 0.703125 0.828125 2.296875q0 3.984375 -4.125 3.984375q-1.359375 0 -3.421875 -0.328125l-0.671875 -0.09375l0.15625 -1.1875q2.53125 0.34375 3.859375 0.34375q2.765625 0 2.765625 -2.59375q0 -1.046875 -0.609375 -1.5q-0.609375 -0.46875 -2.265625 -0.78125q-2.1875 -0.46875 -3.109375 -1.203125q-0.90625 -0.734375 -0.90625 -2.46875q0 -3.46875 4.171875 -3.46875q1.359375 0 3.265625 0.28125l0.625 0.078125l-0.125 1.21875q-2.59375 -0.3125 -3.671875 -0.3125zm12.111694 2.515625l1.40625 0l0 9.328125l-1.40625 0l0 -0.65625q-1.390625 0.84375 -2.75 0.84375q-1.90625 0 -2.53125 -0.984375q-0.625 -1.0 -0.625 -3.65625l0 -4.875l1.40625 0l0 4.84375q0 2.046875 0.34375 2.734375q0.359375 0.6875 1.609375 0.6875q0.609375 0 1.25 -0.171875q0.640625 -0.1875 0.96875 -0.34375l0.328125 -0.171875l0 -7.578125zm8.218994 -0.1875q1.875 0 2.625 1.078125q0.765625 1.0625 0.765625 3.75q0 2.6875 -0.9375 3.78125q-0.9375 1.09375 -3.46875 1.09375q-0.78125 0 -2.59375 -0.15625l-0.515625 -0.046875l0 -13.375l1.375 0l0 4.53125q1.421875 -0.65625 2.75 -0.65625zm-1.03125 8.453125q1.828125 0 2.40625 -0.828125q0.59375 -0.828125 0.59375 -2.796875q0 -1.984375 -0.46875 -2.78125q-0.453125 -0.796875 -1.65625 -0.796875q-1.078125 0 -2.21875 0.40625l-0.375 0.140625l0 6.5625q1.21875 0.09375 1.71875 0.09375zm9.641296 -7.203125q-2.03125 0 -2.03125 1.421875q0 0.65625 0.46875 0.921875q0.46875 0.265625 2.125 0.5625q1.671875 0.28125 2.359375 0.8125q0.6875 0.515625 0.6875 1.953125q0 1.4375 -0.921875 2.109375q-0.921875 0.671875 -2.703125 0.671875q-1.15625 0 -2.71875 -0.265625l-0.5625 -0.09375l0.078125 -1.203125q2.125 0.3125 3.203125 0.3125q1.078125 0 1.640625 -0.34375q0.578125 -0.34375 0.578125 -1.15625q0 -0.8125 -0.484375 -1.09375q-0.484375 -0.296875 -2.125 -0.5625q-1.640625 -0.265625 -2.328125 -0.765625q-0.6875 -0.5 -0.6875 -1.859375q0 -1.359375 0.953125 -2.015625q0.96875 -0.65625 2.40625 -0.65625q1.125 0 2.84375 0.265625l0.53125 0.09375l-0.046875 1.1875q-2.0625 -0.296875 -3.265625 -0.296875zm10.581421 0.15625l-2.96875 0l0 4.453125q0 1.609375 0.234375 2.109375q0.234375 0.5 1.109375 0.5l1.671875 -0.109375l0.09375 1.15625q-1.25 0.203125 -1.90625 0.203125q-1.453125 0 -2.015625 -0.703125q-0.5625 -0.71875 -0.5625 -2.703125l0 -4.90625l-1.328125 0l0 -1.21875l1.328125 0l0 -2.859375l1.375 0l0 2.859375l2.96875 0l0 1.21875zm8.29834 1.59375l0 4.78125q0.0625 0.6875 1.09375 0.8125l-0.0625 1.109375q-1.46875 0 -2.21875 -0.75q-1.671875 0.75 -3.359375 0.75q-1.28125 0 -1.953125 -0.71875q-0.671875 -0.734375 -0.671875 -2.09375q0 -1.375 0.6875 -2.015625q0.6875 -0.640625 2.15625 -0.78125l2.9375 -0.28125l0 -0.8125q0 -0.953125 -0.421875 -1.359375q-0.40625 -0.40625 -1.109375 -0.40625q-1.5 0 -3.09375 0.1875l-0.578125 0.046875l-0.0625 -1.0625q2.0625 -0.40625 3.640625 -0.40625q1.59375 0 2.296875 0.734375q0.71875 0.71875 0.71875 2.265625zm-5.734375 3.8125q0 1.71875 1.40625 1.71875q1.28125 0 2.5 -0.4375l0.4375 -0.140625l0 -3.078125l-2.765625 0.25q-0.84375 0.078125 -1.21875 0.5q-0.359375 0.40625 -0.359375 1.1875zm9.909241 2.703125l-1.40625 0l0 -9.328125l1.375 0l0 0.65625q1.515625 -0.84375 2.890625 -0.84375q1.875 0 2.515625 1.015625q0.640625 1.0 0.640625 3.578125l0 4.921875l-1.375 0l0 -4.890625q0 -1.9375 -0.390625 -2.65625q-0.375 -0.71875 -1.625 -0.71875q-0.59375 0 -1.265625 0.1875q-0.65625 0.171875 -1.015625 0.328125l-0.34375 0.171875l0 7.578125zm12.096558 -9.515625q0.625 0 2.09375 0.21875l0.453125 0.0625l-0.0625 1.140625q-1.484375 -0.171875 -2.203125 -0.171875q-1.578125 0 -2.15625 0.765625q-0.5625 0.75 -0.5625 2.796875q0 2.03125 0.53125 2.84375q0.53125 0.796875 2.203125 0.796875l2.203125 -0.171875l0.0625 1.15625q-1.734375 0.265625 -2.59375 0.265625q-2.1875 0 -3.015625 -1.109375q-0.828125 -1.125 -0.828125 -3.78125q0 -2.671875 0.890625 -3.734375q0.90625 -1.078125 2.984375 -1.078125zm10.88147 8.359375l0.546875 -0.0625l0.03125 1.109375q-2.125 0.296875 -3.640625 0.296875q-2.015625 0 -2.859375 -1.15625q-0.828125 -1.171875 -0.828125 -3.640625q0 -4.90625 3.890625 -4.90625q1.890625 0 2.8125 1.0625q0.9375 1.046875 0.9375 3.296875l-0.078125 1.078125l-6.15625 0q0 1.546875 0.5625 2.296875q0.5625 0.734375 1.953125 0.734375q1.390625 0 2.828125 -0.109375zm-0.5 -4.046875q0 -1.71875 -0.5625 -2.421875q-0.546875 -0.71875 -1.796875 -0.71875q-1.234375 0 -1.859375 0.75q-0.625 0.75 -0.640625 2.390625l4.859375 0z" fill-rule="nonzero"/><path fill="#000000" fill-opacity="0.0" d="m571.5079 357.8832l0 -31.685059l-91.49606 0l0 -31.685028" fill-rule="evenodd"/><path stroke="#212121" stroke-width="1.0" stroke-linejoin="round" stroke-linecap="butt" d="m571.5079 357.8832l0 -31.685059l-91.49606 0l0 -24.185028" fill-rule="evenodd"/><path stroke="#212121" stroke-width="1.0" stroke-linecap="butt" d="m482.2095 302.01312l-2.1976929 -6.038086l-2.1976929 6.038086z" fill-rule="evenodd"/><path fill="#000000" fill-opacity="0.0" d="m346.0118 248.11942l0 -33.001266l133.98425 0l0 -33.01448" fill-rule="evenodd"/><path stroke="#212121" stroke-width="1.0" stroke-linejoin="round" stroke-linecap="butt" d="m346.0118 248.11942l0 -33.001266l133.98425 0l0 -25.51448" fill-rule="evenodd"/><path stroke="#212121" stroke-width="1.0" stroke-linecap="butt" d="m482.19376 189.60367l-2.1976929 -6.038086l-2.1976929 6.038086z" fill-rule="evenodd"/><path fill="#ffffff" d="m283.50787 248.11942l125.00787 0l0 46.393707l-125.00787 0z" fill-rule="evenodd"/><path stroke="#212121" stroke-width="1.0" stroke-linejoin="round" stroke-linecap="butt" d="m283.50787 248.11942l125.00787 0l0 46.393707l-125.00787 0z" fill-rule="evenodd"/><path fill="#212121" d="m317.15717 278.03314q-1.921875 0.390625 -3.453125 0.390625q-1.53125 0 -2.484375 -0.421875q-0.9375 -0.421875 -1.453125 -1.296875q-0.5 -0.890625 -0.703125 -2.03125q-0.203125 -1.15625 -0.203125 -2.875q0 -1.71875 0.203125 -2.875q0.203125 -1.171875 0.703125 -2.0625q0.515625 -0.90625 1.453125 -1.3125q0.9375 -0.40625 2.421875 -0.40625q1.5 0 3.515625 0.40625l-0.0625 1.21875q-1.890625 -0.34375 -3.359375 -0.34375q-2.046875 0 -2.71875 1.234375q-0.65625 1.21875 -0.65625 4.15625q0 1.484375 0.109375 2.375q0.125 0.890625 0.484375 1.609375q0.359375 0.71875 1.03125 1.03125q0.6875 0.3125 2.0 0.3125q1.3125 0 3.109375 -0.34375l0.0625 1.234375zm1.5092163 -4.46875q0 -2.5625 0.90625 -3.703125q0.921875 -1.140625 3.09375 -1.140625q2.171875 0 3.078125 1.140625q0.90625 1.140625 0.90625 3.703125q0 2.546875 -0.859375 3.703125q-0.859375 1.15625 -3.140625 1.15625q-2.265625 0 -3.125 -1.15625q-0.859375 -1.15625 -0.859375 -3.703125zm1.4375 -0.03125q0 2.03125 0.484375 2.859375q0.5 0.8125 2.078125 0.8125q1.578125 0 2.0625 -0.8125q0.484375 -0.8125 0.484375 -2.859375q0 -2.046875 -0.546875 -2.8125q-0.53125 -0.78125 -2.0 -0.78125q-1.46875 0 -2.015625 0.78125q-0.546875 0.765625 -0.546875 2.8125zm8.928619 4.703125l0 -13.390625l1.40625 0l0 13.390625l-1.40625 0zm4.309601 0l0 -13.390625l1.40625 0l0 13.390625l-1.40625 0zm10.543976 -1.15625l0.546875 -0.0625l0.03125 1.109375q-2.125 0.296875 -3.640625 0.296875q-2.015625 0 -2.859375 -1.15625q-0.828125 -1.171875 -0.828125 -3.640625q0 -4.90625 3.890625 -4.90625q1.890625 0 2.8125 1.0625q0.9375 1.046875 0.9375 3.296875l-0.078125 1.078125l-6.15625 0q0 1.546875 0.5625 2.296875q0.5625 0.734375 1.953125 0.734375q1.390625 0 2.828125 -0.109375zm-0.5 -4.046875q0 -1.71875 -0.5625 -2.421875q-0.546875 -0.71875 -1.796875 -0.71875q-1.234375 0 -1.859375 0.75q-0.625 0.75 -0.640625 2.390625l4.859375 0zm7.062042 -4.3125q0.625 0 2.09375 0.21875l0.453125 0.0625l-0.0625 1.140625q-1.484375 -0.171875 -2.203125 -0.171875q-1.578125 0 -2.15625 0.765625q-0.5625 0.75 -0.5625 2.796875q0 2.03125 0.53125 2.84375q0.53125 0.796875 2.203125 0.796875l2.203125 -0.171875l0.0625 1.15625q-1.734375 0.265625 -2.59375 0.265625q-2.1875 0 -3.015625 -1.109375q-0.828125 -1.125 -0.828125 -3.78125q0 -2.671875 0.890625 -3.734375q0.90625 -1.078125 2.984375 -1.078125zm9.477875 1.40625l-2.96875 0l0 4.453125q0 1.609375 0.234375 2.109375q0.234375 0.5 1.109375 0.5l1.671875 -0.109375l0.09375 1.15625q-1.25 0.203125 -1.90625 0.203125q-1.453125 0 -2.015625 -0.703125q-0.5625 -0.71875 -0.5625 -2.703125l0 -4.90625l-1.328125 0l0 -1.21875l1.328125 0l0 -2.859375l1.375 0l0 2.859375l2.96875 0l0 1.21875zm1.7202148 8.109375l0 -9.328125l1.40625 0l0 9.328125l-1.40625 0zm0 -11.4375l0 -1.625l1.40625 0l0 1.625l-1.40625 0zm3.6794739 6.765625q0 -2.5625 0.90625 -3.703125q0.921875 -1.140625 3.09375 -1.140625q2.171875 0 3.078125 1.140625q0.90625 1.140625 0.90625 3.703125q0 2.546875 -0.859375 3.703125q-0.859375 1.15625 -3.140625 1.15625q-2.265625 0 -3.125 -1.15625q-0.859375 -1.15625 -0.859375 -3.703125zm1.4375 -0.03125q0 2.03125 0.484375 2.859375q0.5 0.8125 2.078125 0.8125q1.578125 0 2.0625 -0.8125q0.484375 -0.8125 0.484375 -2.859375q0 -2.046875 -0.546875 -2.8125q-0.53125 -0.78125 -2.0 -0.78125q-1.46875 0 -2.015625 0.78125q-0.546875 0.765625 -0.546875 2.8125zm10.225494 4.703125l-1.40625 0l0 -9.328125l1.375 0l0 0.65625q1.515625 -0.84375 2.890625 -0.84375q1.875 0 2.515625 1.015625q0.640625 1.0 0.640625 3.578125l0 4.921875l-1.375 0l0 -4.890625q0 -1.9375 -0.390625 -2.65625q-0.375 -0.71875 -1.625 -0.71875q-0.59375 0 -1.265625 0.1875q-0.65625 0.171875 -1.015625 0.328125l-0.34375 0.171875l0 7.578125z" fill-rule="nonzero"/><path fill="#000000" fill-opacity="0.0" d="m479.9987 248.11942l0 -33.001266l0.06298828 0l0 -33.01448" fill-rule="evenodd"/><path stroke="#212121" stroke-width="1.0" stroke-linejoin="round" stroke-linecap="butt" d="m479.9987 248.11942l0 -33.001266l0.06298828 0l0 -25.51448" fill-rule="evenodd"/><path stroke="#212121" stroke-width="1.0" stroke-linecap="butt" d="m482.25937 189.60367l-2.1976929 -6.038086l-2.1976929 6.038086z" fill-rule="evenodd"/><path fill="#ffffff" d="m417.49475 248.11942l125.00787 0l0 46.393707l-125.00787 0z" fill-rule="evenodd"/><path stroke="#212121" stroke-width="1.0" stroke-linejoin="round" stroke-linecap="butt" d="m417.49475 248.11942l125.00787 0l0 46.393707l-125.00787 0z" fill-rule="evenodd"/><path fill="#212121" d="m455.6315 266.39252q-2.8125 0 -2.8125 2.109375q0 1.171875 0.640625 1.609375q0.65625 0.4375 2.625 0.875q1.96875 0.4375 2.78125 1.140625q0.828125 0.703125 0.828125 2.296875q0 3.984375 -4.125 3.984375q-1.359375 0 -3.421875 -0.328125l-0.671875 -0.09375l0.15625 -1.1875q2.53125 0.34375 3.859375 0.34375q2.765625 0 2.765625 -2.59375q0 -1.046875 -0.609375 -1.5q-0.609375 -0.46875 -2.265625 -0.78125q-2.1875 -0.46875 -3.109375 -1.203125q-0.90625 -0.734375 -0.90625 -2.46875q0 -3.46875 4.171875 -3.46875q1.359375 0 3.265625 0.28125l0.625 0.078125l-0.125 1.21875q-2.59375 -0.3125 -3.671875 -0.3125zm5.2375183 2.515625l1.390625 0l2.34375 8.109375l0.609375 0l2.34375 -8.109375l1.40625 0l-3.875 13.46875l-1.40625 0l1.21875 -4.140625l-1.390625 0l-2.640625 -9.328125zm12.677185 1.0625q-2.03125 0 -2.03125 1.421875q0 0.65625 0.46875 0.921875q0.46875 0.265625 2.125 0.5625q1.671875 0.28125 2.359375 0.8125q0.6875 0.515625 0.6875 1.953125q0 1.4375 -0.921875 2.109375q-0.921875 0.671875 -2.703125 0.671875q-1.15625 0 -2.71875 -0.265625l-0.5625 -0.09375l0.078125 -1.203125q2.125 0.3125 3.203125 0.3125q1.078125 0 1.640625 -0.34375q0.578125 -0.34375 0.578125 -1.15625q0 -0.8125 -0.484375 -1.09375q-0.484375 -0.296875 -2.125 -0.5625q-1.640625 -0.265625 -2.328125 -0.765625q-0.6875 -0.5 -0.6875 -1.859375q0 -1.359375 0.953125 -2.015625q0.96875 -0.65625 2.40625 -0.65625q1.125 0 2.84375 0.265625l0.53125 0.09375l-0.046875 1.1875q-2.0625 -0.296875 -3.265625 -0.296875zm10.58139 0.15625l-2.96875 0l0 4.453125q0 1.609375 0.234375 2.109375q0.234375 0.5 1.109375 0.5l1.671875 -0.109375l0.09375 1.15625q-1.25 0.203125 -1.90625 0.203125q-1.453125 0 -2.015625 -0.703125q-0.5625 -0.71875 -0.5625 -2.703125l0 -4.90625l-1.328125 0l0 -1.21875l1.328125 0l0 -2.859375l1.375 0l0 2.859375l2.96875 0l0 1.21875zm8.063965 6.953125l0.546875 -0.0625l0.03125 1.109375q-2.125 0.296875 -3.640625 0.296875q-2.015625 0 -2.859375 -1.15625q-0.828125 -1.171875 -0.828125 -3.640625q0 -4.90625 3.890625 -4.90625q1.890625 0 2.8125 1.0625q0.9375 1.046875 0.9375 3.296875l-0.078125 1.078125l-6.15625 0q0 1.546875 0.5625 2.296875q0.5625 0.734375 1.953125 0.734375q1.390625 0 2.828125 -0.109375zm-0.5 -4.046875q0 -1.71875 -0.5625 -2.421875q-0.546875 -0.71875 -1.796875 -0.71875q-1.234375 0 -1.859375 0.75q-0.625 0.75 -0.640625 2.390625l4.859375 0zm4.983917 5.203125l-1.40625 0l0 -9.328125l1.375 0l0 0.65625q1.40625 -0.84375 2.734375 -0.84375q1.734375 0 2.421875 0.953125q0.609375 -0.375 1.59375 -0.65625q0.984375 -0.296875 1.71875 -0.296875q1.875 0 2.515625 1.0q0.640625 1.0 0.640625 3.59375l0 4.921875l-1.390625 0l0 -4.890625q0 -1.9375 -0.375 -2.65625q-0.375 -0.71875 -1.59375 -0.71875q-0.609375 0 -1.265625 0.1875q-0.65625 0.171875 -1.0 0.328125l-0.359375 0.171875q0.234375 0.625 0.234375 2.734375l0 4.84375l-1.390625 0l0 -4.8125q0 -2.015625 -0.375 -2.734375q-0.359375 -0.71875 -1.578125 -0.71875q-0.609375 0 -1.234375 0.1875q-0.625 0.171875 -0.953125 0.328125l-0.3125 0.171875l0 7.578125z" fill-rule="nonzero"/><path fill="#000000" fill-opacity="0.0" d="m376.70996 357.8832l0 -31.685059l103.275604 0l0 -31.685028" fill-rule="evenodd"/><path stroke="#212121" stroke-width="1.0" stroke-linejoin="round" stroke-linecap="butt" d="m376.70996 357.8832l0 -31.685059l103.275604 0l0 -24.185028" fill-rule="evenodd"/><path stroke="#212121" stroke-width="1.0" stroke-linecap="butt" d="m482.18326 302.01312l-2.1976929 -6.038086l-2.1976929 6.038086z" fill-rule="evenodd"/><path fill="#ffffff" d="m291.84384 357.8832l169.73227 0l0 46.393707l-169.73227 0z" fill-rule="evenodd"/><path stroke="#212121" stroke-width="1.0" stroke-linejoin="round" stroke-linecap="butt" d="m291.84384 357.8832l169.73227 0l0 46.393707l-169.73227 0z" fill-rule="evenodd"/><path fill="#212121" d="m314.70328 387.79694q-1.921875 0.390625 -3.453125 0.390625q-1.53125 0 -2.484375 -0.421875q-0.9375 -0.421875 -1.453125 -1.296875q-0.5 -0.890625 -0.703125 -2.03125q-0.203125 -1.15625 -0.203125 -2.875q0 -1.71875 0.203125 -2.875q0.203125 -1.171875 0.703125 -2.0625q0.515625 -0.90625 1.453125 -1.3125q0.9375 -0.40625 2.421875 -0.40625q1.5 0 3.515625 0.40625l-0.0625 1.21875q-1.890625 -0.34375 -3.359375 -0.34375q-2.046875 0 -2.71875 1.234375q-0.65625 1.21875 -0.65625 4.15625q0 1.484375 0.109375 2.375q0.125 0.890625 0.484375 1.609375q0.359375 0.71875 1.03125 1.03125q0.6875 0.3125 2.0 0.3125q1.3125 0 3.109375 -0.34375l0.0625 1.234375zm1.5092163 -4.46875q0 -2.5625 0.90625 -3.703125q0.921875 -1.140625 3.09375 -1.140625q2.171875 0 3.078125 1.140625q0.90625 1.140625 0.90625 3.703125q0 2.546875 -0.859375 3.703125q-0.859375 1.15625 -3.140625 1.15625q-2.265625 0 -3.125 -1.15625q-0.859375 -1.15625 -0.859375 -3.703125zm1.4375 -0.03125q0 2.03125 0.484375 2.859375q0.5 0.8125 2.078125 0.8125q1.578125 0 2.0625 -0.8125q0.484375 -0.8125 0.484375 -2.859375q0 -2.046875 -0.546875 -2.8125q-0.53125 -0.78125 -2.0 -0.78125q-1.46875 0 -2.015625 0.78125q-0.546875 0.765625 -0.546875 2.8125zm10.225494 4.703125l-1.40625 0l0 -9.328125l1.375 0l0 0.65625q1.40625 -0.84375 2.734375 -0.84375q1.734375 0 2.421875 0.953125q0.609375 -0.375 1.59375 -0.65625q0.984375 -0.296875 1.71875 -0.296875q1.875 0 2.515625 1.0q0.640625 1.0 0.640625 3.59375l0 4.921875l-1.390625 0l0 -4.890625q0 -1.9375 -0.375 -2.65625q-0.375 -0.71875 -1.59375 -0.71875q-0.609375 0 -1.265625 0.1875q-0.65625 0.171875 -1.0 0.328125l-0.359375 0.171875q0.234375 0.625 0.234375 2.734375l0 4.84375l-1.390625 0l0 -4.8125q0 -2.015625 -0.375 -2.734375q-0.359375 -0.71875 -1.578125 -0.71875q-0.609375 0 -1.234375 0.1875q-0.625 0.171875 -0.953125 0.328125l-0.3125 0.171875l0 7.578125zm14.190399 4.140625l0 -13.46875l1.375 0l0 0.671875q1.421875 -0.859375 2.796875 -0.859375q1.78125 0 2.578125 1.140625q0.8125 1.125 0.8125 3.71875q0 2.578125 -0.953125 3.71875q-0.9375 1.125 -3.125 1.125q-1.140625 0 -2.078125 -0.203125l0 4.15625l-1.40625 0zm3.96875 -12.40625q-0.5625 0 -1.203125 0.1875q-0.640625 0.1875 -1.015625 0.375l-0.34375 0.1875l0 6.28125q1.3125 0.203125 2.0 0.203125q1.515625 0 2.125 -0.859375q0.609375 -0.859375 0.609375 -2.796875q0 -1.9375 -0.5625 -2.75q-0.546875 -0.828125 -1.609375 -0.828125zm5.456848 3.59375q0 -2.5625 0.90625 -3.703125q0.921875 -1.140625 3.09375 -1.140625q2.171875 0 3.078125 1.140625q0.90625 1.140625 0.90625 3.703125q0 2.546875 -0.859375 3.703125q-0.859375 1.15625 -3.140625 1.15625q-2.265625 0 -3.125 -1.15625q-0.859375 -1.15625 -0.859375 -3.703125zm1.4375 -0.03125q0 2.03125 0.484375 2.859375q0.5 0.8125 2.078125 0.8125q1.578125 0 2.0625 -0.8125q0.484375 -0.8125 0.484375 -2.859375q0 -2.046875 -0.546875 -2.8125q-0.53125 -0.78125 -2.0 -0.78125q-1.46875 0 -2.015625 0.78125q-0.546875 0.765625 -0.546875 2.8125zm11.741119 -3.5625q-2.03125 0 -2.03125 1.421875q0 0.65625 0.46875 0.921875q0.46875 0.265625 2.125 0.5625q1.671875 0.28125 2.359375 0.8125q0.6875 0.515625 0.6875 1.953125q0 1.4375 -0.921875 2.109375q-0.921875 0.671875 -2.703125 0.671875q-1.15625 0 -2.71875 -0.265625l-0.5625 -0.09375l0.078125 -1.203125q2.125 0.3125 3.203125 0.3125q1.078125 0 1.640625 -0.34375q0.578125 -0.34375 0.578125 -1.15625q0 -0.8125 -0.484375 -1.09375q-0.484375 -0.296875 -2.125 -0.5625q-1.640625 -0.265625 -2.328125 -0.765625q-0.6875 -0.5 -0.6875 -1.859375q0 -1.359375 0.953125 -2.015625q0.96875 -0.65625 2.40625 -0.65625q1.125 0 2.84375 0.265625l0.53125 0.09375l-0.046875 1.1875q-2.0625 -0.296875 -3.265625 -0.296875zm5.753296 8.265625l0 -9.328125l1.40625 0l0 9.328125l-1.40625 0zm0 -11.4375l0 -1.625l1.40625 0l0 1.625l-1.40625 0zm8.913849 3.328125l-2.96875 0l0 4.453125q0 1.609375 0.234375 2.109375q0.234375 0.5 1.109375 0.5l1.671875 -0.109375l0.09375 1.15625q-1.25 0.203125 -1.90625 0.203125q-1.453125 0 -2.015625 -0.703125q-0.5625 -0.71875 -0.5625 -2.703125l0 -4.90625l-1.328125 0l0 -1.21875l1.328125 0l0 -2.859375l1.375 0l0 2.859375l2.96875 0l0 1.21875zm8.063965 6.953125l0.546875 -0.0625l0.03125 1.109375q-2.125 0.296875 -3.640625 0.296875q-2.015625 0 -2.859375 -1.15625q-0.828125 -1.171875 -0.828125 -3.640625q0 -4.90625 3.890625 -4.90625q1.890625 0 2.8125 1.0625q0.9375 1.046875 0.9375 3.296875l-0.078125 1.078125l-6.15625 0q0 1.546875 0.5625 2.296875q0.5625 0.734375 1.953125 0.734375q1.390625 0 2.828125 -0.109375zm-0.5 -4.046875q0 -1.71875 -0.5625 -2.421875q-0.546875 -0.71875 -1.796875 -0.71875q-1.234375 0 -1.859375 0.75q-0.625 0.75 -0.640625 2.390625l4.859375 0zm7.31546 -6.640625q-2.8125 0 -2.8125 2.109375q0 1.171875 0.640625 1.609375q0.65625 0.4375 2.625 0.875q1.96875 0.4375 2.78125 1.140625q0.828125 0.703125 0.828125 2.296875q0 3.984375 -4.125 3.984375q-1.359375 0 -3.421875 -0.328125l-0.671875 -0.09375l0.15625 -1.1875q2.53125 0.34375 3.859375 0.34375q2.765625 0 2.765625 -2.59375q0 -1.046875 -0.609375 -1.5q-0.609375 -0.46875 -2.265625 -0.78125q-2.1875 -0.46875 -3.109375 -1.203125q-0.90625 -0.734375 -0.90625 -2.46875q0 -3.46875 4.171875 -3.46875q1.359375 0 3.265625 0.28125l0.625 0.078125l-0.125 1.21875q-2.59375 -0.3125 -3.671875 -0.3125zm5.2375183 2.515625l1.390625 0l2.34375 8.109375l0.609375 0l2.34375 -8.109375l1.40625 0l-3.875 13.46875l-1.40625 0l1.21875 -4.140625l-1.390625 0l-2.640625 -9.328125zm12.677185 1.0625q-2.03125 0 -2.03125 1.421875q0 0.65625 0.46875 0.921875q0.46875 0.265625 2.125 0.5625q1.671875 0.28125 2.359375 0.8125q0.6875 0.515625 0.6875 1.953125q0 1.4375 -0.921875 2.109375q-0.921875 0.671875 -2.703125 0.671875q-1.15625 0 -2.71875 -0.265625l-0.5625 -0.09375l0.078125 -1.203125q2.125 0.3125 3.203125 0.3125q1.078125 0 1.640625 -0.34375q0.578125 -0.34375 0.578125 -1.15625q0 -0.8125 -0.484375 -1.09375q-0.484375 -0.296875 -2.125 -0.5625q-1.640625 -0.265625 -2.328125 -0.765625q-0.6875 -0.5 -0.6875 -1.859375q0 -1.359375 0.953125 -2.015625q0.96875 -0.65625 2.40625 -0.65625q1.125 0 2.84375 0.265625l0.53125 0.09375l-0.046875 1.1875q-2.0625 -0.296875 -3.265625 -0.296875zm10.581421 0.15625l-2.9687805 0l0 4.453125q0 1.609375 0.23440552 2.109375q0.234375 0.5 1.109375 0.5l1.671875 -0.109375l0.09375 1.15625q-1.25 0.203125 -1.90625 0.203125q-1.4531555 0 -2.0156555 -0.703125q-0.5625 -0.71875 -0.5625 -2.703125l0 -4.90625l-1.328125 0l0 -1.21875l1.328125 0l0 -2.859375l1.375 0l0 2.859375l2.9687805 0l0 1.21875zm8.063965 6.953125l0.546875 -0.0625l0.03125 1.109375q-2.125 0.296875 -3.640625 0.296875q-2.015625 0 -2.859375 -1.15625q-0.828125 -1.171875 -0.828125 -3.640625q0 -4.90625 3.890625 -4.90625q1.890625 0 2.8125 1.0625q0.9375 1.046875 0.9375 3.296875l-0.078125 1.078125l-6.15625 0q0 1.546875 0.5625 2.296875q0.5625 0.734375 1.953125 0.734375q1.390625 0 2.828125 -0.109375zm-0.5 -4.046875q0 -1.71875 -0.5625 -2.421875q-0.546875 -0.71875 -1.796875 -0.71875q-1.234375 0 -1.859375 0.75q-0.625 0.75 -0.640625 2.390625l4.859375 0zm4.9838867 5.203125l-1.40625 0l0 -9.328125l1.375 0l0 0.65625q1.40625 -0.84375 2.734375 -0.84375q1.734375 0 2.421875 0.953125q0.609375 -0.375 1.59375 -0.65625q0.984375 -0.296875 1.71875 -0.296875q1.875 0 2.515625 1.0q0.640625 1.0 0.640625 3.59375l0 4.921875l-1.390625 0l0 -4.890625q0 -1.9375 -0.375 -2.65625q-0.375 -0.71875 -1.59375 -0.71875q-0.609375 0 -1.265625 0.1875q-0.65625 0.171875 -1.0 0.328125l-0.359375 0.171875q0.234375 0.625 0.234375 2.734375l0 4.84375l-1.390625 0l0 -4.8125q0 -2.015625 -0.375 -2.734375q-0.359375 -0.71875 -1.578125 -0.71875q-0.609375 0 -1.234375 0.1875q-0.625 0.171875 -0.953125 0.328125l-0.3125 0.171875l0 7.578125z" fill-rule="nonzero"/><path fill="#ffffff" d="m417.49475 135.7231l125.00787 0l0 46.393692l-125.00787 0z" fill-rule="evenodd"/><path stroke="#212121" stroke-width="1.0" stroke-linejoin="round" stroke-linecap="butt" d="m417.49475 135.7231l125.00787 0l0 46.393692l-125.00787 0z" fill-rule="evenodd"/><path fill="#212121" d="m458.34048 165.83995l0 -12.90625l7.859375 0l0 1.265625l-6.421875 0l0 4.453125l5.3125 0l0 1.25l-5.3125 0l0 4.671875l6.421875 0l0 1.265625l-7.859375 0zm11.48877 0l-1.40625 0l0 -9.328125l1.375 0l0 0.65625q1.515625 -0.84375 2.890625 -0.84375q1.875 0 2.515625 1.015625q0.640625 1.0 0.640625 3.578125l0 4.921875l-1.375 0l0 -4.890625q0 -1.9375 -0.390625 -2.65625q-0.375 -0.71875 -1.625 -0.71875q-0.59375 0 -1.265625 0.1875q-0.65625 0.171875 -1.015625 0.328125l-0.34375 0.171875l0 7.578125zm13.384277 -8.109375l-2.96875 0l0 4.453125q0 1.609375 0.234375 2.109375q0.234375 0.5 1.109375 0.5l1.671875 -0.109375l0.09375 1.15625q-1.25 0.203125 -1.90625 0.203125q-1.453125 0 -2.015625 -0.703125q-0.5625 -0.71875 -0.5625 -2.703125l0 -4.90625l-1.328125 0l0 -1.21875l1.328125 0l0 -2.859375l1.375 0l0 2.859375l2.96875 0l0 1.21875zm1.7202148 8.109375l0 -9.328125l1.40625 0l0 9.328125l-1.40625 0zm0 -11.4375l0 -1.625l1.40625 0l0 1.625l-1.40625 0zm8.913849 3.328125l-2.96875 0l0 4.453125q0 1.609375 0.234375 2.109375q0.234375 0.5 1.109375 0.5l1.671875 -0.109375l0.09375 1.15625q-1.25 0.203125 -1.90625 0.203125q-1.453125 0 -2.015625 -0.703125q-0.5625 -0.71875 -0.5625 -2.703125l0 -4.90625l-1.328125 0l0 -1.21875l1.328125 0l0 -2.859375l1.375 0l0 2.859375l2.96875 0l0 1.21875zm0.84521484 -1.21875l1.390625 0l2.34375 8.109375l0.609375 0l2.34375 -8.109375l1.40625 0l-3.875 13.46875l-1.40625 0l1.21875 -4.140625l-1.390625 0l-2.640625 -9.328125z" fill-rule="nonzero"/><path fill="#000000" fill-opacity="0.0" d="m745.61945 79.01349l199.59052 0" fill-rule="evenodd"/><path stroke="#212121" stroke-width="1.0" stroke-linejoin="round" stroke-linecap="butt" d="m745.61945 79.01349l192.09052 0" fill-rule="evenodd"/><path stroke="#212121" stroke-width="1.0" stroke-linecap="butt" d="m937.70996 81.211174l6.038086 -2.1976852l-6.038086 -2.1976929z" fill-rule="evenodd"/><path fill="#ffffff" d="m799.1627 62.209972l92.50397 0l0 30.70866l-92.50397 0z" fill-rule="evenodd"/><path fill="#212121" d="m806.0565 83.804306l0 -8.65625l1.296875 0l0 8.65625l-1.296875 0zm0 -10.625l0 -1.5l1.296875 0l0 1.5l-1.296875 0zm5.091675 10.625l-1.296875 0l0 -8.65625l1.28125 0l0 0.59375q1.40625 -0.78125 2.6875 -0.78125q1.734375 0 2.328125 0.9375q0.59375 0.9375 0.59375 3.328125l0 4.578125l-1.28125 0l0 -4.546875q0 -1.796875 -0.359375 -2.453125q-0.34375 -0.671875 -1.515625 -0.671875q-0.546875 0 -1.171875 0.171875q-0.609375 0.15625 -0.9375 0.3125l-0.328125 0.15625l0 7.03125zm9.305176 0l-1.296875 0l0 -12.4375l1.296875 0l0 4.265625q1.390625 -0.671875 2.671875 -0.671875q1.734375 0 2.328125 0.9375q0.59375 0.9375 0.59375 3.328125l0 4.578125l-1.296875 0l0 -4.546875q0 -1.796875 -0.359375 -2.453125q-0.34375 -0.671875 -1.5 -0.671875q-1.078125 0 -2.109375 0.390625l-0.328125 0.125l0 7.15625zm13.898865 -1.078125l0.5 -0.046875l0.03125 1.015625q-1.96875 0.28125 -3.375 0.28125q-1.875 0 -2.65625 -1.078125q-0.78125 -1.09375 -0.78125 -3.375q0 -4.5625 3.625 -4.5625q1.75 0 2.609375 0.984375q0.875 0.984375 0.875 3.078125l-0.0625 0.984375l-5.71875 0q0 1.4375 0.515625 2.140625q0.515625 0.6875 1.8125 0.6875q1.296875 0 2.625 -0.109375zm-0.46875 -3.75q0 -1.59375 -0.515625 -2.25q-0.5 -0.671875 -1.65625 -0.671875q-1.15625 0 -1.734375 0.703125q-0.578125 0.6875 -0.59375 2.21875l4.5 0zm3.3287964 4.828125l0 -8.65625l1.28125 0l0 1.171875q1.5 -1.046875 3.171875 -1.375l0 1.328125q-0.734375 0.125 -1.53125 0.421875q-0.78125 0.296875 -1.1875 0.53125l-0.4375 0.21875l0 6.359375l-1.296875 0zm5.9954834 0l0 -8.65625l1.296875 0l0 8.65625l-1.296875 0zm0 -10.625l0 -1.5l1.296875 0l0 1.5l-1.296875 0zm8.279236 3.09375l-2.75 0l0 4.140625q0 1.484375 0.203125 1.953125q0.21875 0.46875 1.046875 0.46875l1.53125 -0.109375l0.09375 1.078125q-1.15625 0.1875 -1.765625 0.1875q-1.359375 0 -1.875 -0.65625q-0.515625 -0.65625 -0.515625 -2.515625l0 -4.546875l-1.234375 0l0 -1.125l1.234375 0l0 -2.65625l1.28125 0l0 2.65625l2.75 0l0 1.125zm7.7070923 1.484375l0 4.4375q0.0625 0.640625 1.015625 0.765625l-0.0625 1.015625q-1.359375 0 -2.0625 -0.6875q-1.546875 0.6875 -3.109375 0.6875q-1.203125 0 -1.828125 -0.671875q-0.625 -0.671875 -0.625 -1.9375q0 -1.265625 0.640625 -1.859375q0.640625 -0.609375 2.015625 -0.75l2.71875 -0.25l0 -0.75q0 -0.890625 -0.390625 -1.265625q-0.375 -0.375 -1.03125 -0.375q-1.390625 0 -2.875 0.171875l-0.53125 0.046875l-0.0625 -0.984375q1.90625 -0.390625 3.375 -0.390625q1.484375 0 2.140625 0.6875q0.671875 0.671875 0.671875 2.109375zm-5.328125 3.53125q0 1.59375 1.3125 1.59375q1.171875 0 2.328125 -0.390625l0.390625 -0.140625l0 -2.859375l-2.5625 0.234375q-0.78125 0.078125 -1.125 0.46875q-0.34375 0.375 -0.34375 1.09375zm9.19696 2.515625l-1.296875 0l0 -8.65625l1.28125 0l0 0.59375q1.40625 -0.78125 2.6875 -0.78125q1.734375 0 2.328125 0.9375q0.59375 0.9375 0.59375 3.328125l0 4.578125l-1.28125 0l0 -4.546875q0 -1.796875 -0.359375 -2.453125q-0.34375 -0.671875 -1.515625 -0.671875q-0.546875 0 -1.171875 0.171875q-0.609375 0.15625 -0.9375 0.3125l-0.328125 0.15625l0 7.03125zm11.242676 -8.84375q0.578125 0 1.9375 0.21875l0.421875 0.046875l-0.046875 1.0625q-1.390625 -0.15625 -2.046875 -0.15625q-1.46875 0 -2.0 0.703125q-0.53125 0.703125 -0.53125 2.59375q0 1.890625 0.484375 2.640625q0.5 0.75 2.0625 0.75l2.046875 -0.15625l0.046875 1.078125q-1.609375 0.234375 -2.40625 0.234375q-2.03125 0 -2.796875 -1.03125q-0.765625 -1.046875 -0.765625 -3.515625q0 -2.46875 0.828125 -3.46875q0.828125 -1.0 2.765625 -1.0zm10.107239 7.765625l0.5 -0.046875l0.03125 1.015625q-1.96875 0.28125 -3.375 0.28125q-1.875 0 -2.65625 -1.078125q-0.78125 -1.09375 -0.78125 -3.375q0 -4.5625 3.625 -4.5625q1.75 0 2.609375 0.984375q0.875 0.984375 0.875 3.078125l-0.0625 0.984375l-5.71875 0q0 1.4375 0.515625 2.140625q0.515625 0.6875 1.8125 0.6875q1.296875 0 2.625 -0.109375zm-0.46875 -3.75q0 -1.59375 -0.515625 -2.25q-0.5 -0.671875 -1.65625 -0.671875q-1.15625 0 -1.734375 0.703125q-0.578125 0.6875 -0.59375 2.21875l4.5 0z" fill-rule="nonzero"/><path fill="#000000" fill-opacity="0.0" d="m745.61945 53.299213l199.59052 0" fill-rule="evenodd"/><path stroke="#212121" stroke-width="1.0" stroke-linejoin="round" stroke-linecap="butt" d="m752.7477 53.299213l192.46228 0" fill-rule="evenodd"/><path fill="#212121" stroke="#212121" stroke-width="1.0" stroke-linecap="butt" d="m752.7477 53.299213l-3.1282349 -2.190445l-3.128296 2.190445l3.128296 2.1904411z" fill-rule="evenodd"/><path fill="#ffffff" d="m794.0761 36.0506l102.677185 0l0 30.708664l-102.677185 0z" fill-rule="evenodd"/><path fill="#212121" d="m803.7546 48.801178q0.578125 0 1.9375 0.21875l0.421875 0.046875l-0.046875 1.0625q-1.390625 -0.15625 -2.046875 -0.15625q-1.46875 0 -2.0 0.703125q-0.53125 0.703125 -0.53125 2.59375q0 1.890625 0.484375 2.640625q0.5 0.75 2.0625 0.75l2.046875 -0.15625l0.046875 1.078125q-1.609375 0.234375 -2.40625 0.234375q-2.03125 0 -2.796875 -1.03125q-0.765625 -1.046875 -0.765625 -3.515625q0 -2.46875 0.828125 -3.46875q0.828125 -1.0 2.765625 -1.0zm3.8260498 4.5q0 -2.375 0.84375 -3.4375q0.859375 -1.0625 2.875 -1.0625q2.03125 0 2.859375 1.0625q0.84375 1.0625 0.84375 3.4375q0 2.375 -0.796875 3.453125q-0.796875 1.0625 -2.921875 1.0625q-2.109375 0 -2.90625 -1.0625q-0.796875 -1.078125 -0.796875 -3.453125zm1.34375 -0.03125q0 1.890625 0.453125 2.65625q0.46875 0.765625 1.921875 0.765625q1.46875 0 1.921875 -0.75q0.453125 -0.75 0.453125 -2.65625q0 -1.90625 -0.515625 -2.625q-0.5 -0.734375 -1.859375 -0.734375q-1.359375 0 -1.875 0.734375q-0.5 0.71875 -0.5 2.609375zm9.49292 4.375l-1.296875 0l0 -8.65625l1.28125 0l0 0.59375q1.40625 -0.78125 2.6875 -0.78125q1.734375 0 2.328125 0.9375q0.59375 0.9375 0.59375 3.328125l0 4.578125l-1.28125 0l0 -4.546875q0 -1.796875 -0.359375 -2.453125q-0.34375 -0.671875 -1.515625 -0.671875q-0.546875 0 -1.171875 0.171875q-0.609375 0.15625 -0.9375 0.3125l-0.328125 0.15625l0 7.03125zm12.440674 -7.53125l-2.75 0l0 4.140625q0 1.484375 0.203125 1.953125q0.21875 0.46875 1.046875 0.46875l1.53125 -0.109375l0.09375 1.078125q-1.15625 0.1875 -1.765625 0.1875q-1.359375 0 -1.875 -0.65625q-0.515625 -0.65625 -0.515625 -2.515625l0 -4.546875l-1.234375 0l0 -1.125l1.234375 0l0 -2.65625l1.28125 0l0 2.65625l2.75 0l0 1.125zm7.7070923 1.484375l0 4.4375q0.0625 0.640625 1.015625 0.765625l-0.0625 1.015625q-1.359375 0 -2.0625 -0.6875q-1.546875 0.6875 -3.109375 0.6875q-1.203125 0 -1.828125 -0.671875q-0.625 -0.671875 -0.625 -1.9375q0 -1.265625 0.640625 -1.859375q0.640625 -0.609375 2.015625 -0.75l2.71875 -0.25l0 -0.75q0 -0.890625 -0.390625 -1.265625q-0.375 -0.375 -1.03125 -0.375q-1.390625 0 -2.875 0.171875l-0.53125 0.046875l-0.0625 -0.984375q1.90625 -0.390625 3.375 -0.390625q1.484375 0 2.140625 0.6875q0.671875 0.671875 0.671875 2.109375zm-5.328125 3.53125q0 1.59375 1.3125 1.59375q1.171875 0 2.328125 -0.390625l0.390625 -0.140625l0 -2.859375l-2.5625 0.234375q-0.78125 0.078125 -1.125 0.46875q-0.34375 0.375 -0.34375 1.09375zm7.9000854 2.515625l0 -8.65625l1.296875 0l0 8.65625l-1.296875 0zm0 -10.625l0 -1.5l1.296875 0l0 1.5l-1.296875 0zm5.091736 10.625l-1.296875 0l0 -8.65625l1.28125 0l0 0.59375q1.40625 -0.78125 2.6875 -0.78125q1.734375 0 2.328125 0.9375q0.59375 0.9375 0.59375 3.328125l0 4.578125l-1.28125 0l0 -4.546875q0 -1.796875 -0.359375 -2.453125q-0.34375 -0.671875 -1.515625 -0.671875q-0.546875 0 -1.171875 0.171875q-0.609375 0.15625 -0.9375 0.3125l-0.328125 0.15625l0 7.03125zm9.305115 0l-1.296875 0l0 -8.65625l1.28125 0l0 0.59375q1.296875 -0.78125 2.53125 -0.78125q1.609375 0 2.25 0.890625q0.578125 -0.34375 1.484375 -0.609375q0.90625 -0.28125 1.59375 -0.28125q1.734375 0 2.328125 0.9375q0.609375 0.921875 0.609375 3.328125l0 4.578125l-1.296875 0l0 -4.546875q0 -1.796875 -0.359375 -2.453125q-0.34375 -0.671875 -1.46875 -0.671875q-0.5625 0 -1.171875 0.171875q-0.609375 0.15625 -0.9375 0.3125l-0.328125 0.15625q0.21875 0.5625 0.21875 2.53125l0 4.5l-1.296875 0l0 -4.46875q0 -1.875 -0.34375 -2.53125q-0.328125 -0.671875 -1.46875 -0.671875q-0.5625 0 -1.140625 0.171875q-0.578125 0.15625 -0.890625 0.3125l-0.296875 0.15625l0 7.03125zm19.080017 -1.078125l0.5 -0.046875l0.03125 1.015625q-1.96875 0.28125 -3.375 0.28125q-1.875 0 -2.65625 -1.078125q-0.78125 -1.09375 -0.78125 -3.375q0 -4.5625 3.625 -4.5625q1.75 0 2.609375 0.984375q0.875 0.984375 0.875 3.078125l-0.0625 0.984375l-5.71875 0q0 1.4375 0.515625 2.140625q0.515625 0.6875 1.8125 0.6875q1.296875 0 2.625 -0.109375zm-0.46875 -3.75q0 -1.59375 -0.515625 -2.25q-0.5 -0.671875 -1.65625 -0.671875q-1.15625 0 -1.734375 0.703125q-0.578125 0.6875 -0.59375 2.21875l4.5 0zm4.6256104 4.828125l-1.296875 0l0 -8.65625l1.28125 0l0 0.59375q1.40625 -0.78125 2.6875 -0.78125q1.734375 0 2.328125 0.9375q0.59375 0.9375 0.59375 3.328125l0 4.578125l-1.28125 0l0 -4.546875q0 -1.796875 -0.359375 -2.453125q-0.34375 -0.671875 -1.515625 -0.671875q-0.546875 0 -1.171875 0.171875q-0.609375 0.15625 -0.9375 0.3125l-0.328125 0.15625l0 7.03125zm12.440674 -7.53125l-2.75 0l0 4.140625q0 1.484375 0.203125 1.953125q0.21875 0.46875 1.046875 0.46875l1.53125 -0.109375l0.09375 1.078125q-1.15625 0.1875 -1.765625 0.1875q-1.359375 0 -1.875 -0.65625q-0.515625 -0.65625 -0.515625 -2.515625l0 -4.546875l-1.234375 0l0 -1.125l1.234375 0l0 -2.65625l1.28125 0l0 2.65625l2.75 0l0 1.125z" fill-rule="nonzero"/><path fill="#000000" fill-opacity="0.0" d="m745.61945 26.695538l199.59052 0" fill-rule="evenodd"/><path stroke="#212121" stroke-width="1.0" stroke-linejoin="round" stroke-linecap="butt" d="m745.61945 26.695538l195.20935 0" fill-rule="evenodd"/><path fill="#212121" stroke="#212121" stroke-width="1.0" stroke-linecap="butt" d="m940.82886 26.695538l-1.6705322 1.6705399l4.5897217 -1.6705399l-4.5897217 -1.670538z" fill-rule="evenodd"/><path fill="#ffffff" d="m805.17847 9.368585l80.47247 0l0 30.70866l-80.47247 0z" fill-rule="evenodd"/><path fill="#212121" d="m812.17334 30.962914l0 -8.65625l1.28125 0l0 1.171875q1.5 -1.046875 3.171875 -1.375l0 1.328125q-0.734375 0.125 -1.53125 0.421875q-0.78125 0.296875 -1.1875 0.53125l-0.4375 0.21875l0 6.359375l-1.296875 0zm11.71283 -1.078125l0.5 -0.046875l0.03125 1.015625q-1.96875 0.28125 -3.375 0.28125q-1.875 0 -2.65625 -1.078125q-0.78125 -1.09375 -0.78125 -3.375q0 -4.5625 3.625 -4.5625q1.75 0 2.609375 0.984375q0.875 0.984375 0.875 3.078125l-0.0625 0.984375l-5.71875 0q0 1.4375 0.515625 2.140625q0.515625 0.6875 1.8125 0.6875q1.296875 0 2.625 -0.109375zm-0.46875 -3.75q0 -1.59375 -0.515625 -2.25q-0.5 -0.671875 -1.65625 -0.671875q-1.15625 0 -1.734375 0.703125q-0.578125 0.6875 -0.59375 2.21875l4.5 0zm4.9849854 -2.703125l0 7.53125l-1.296875 0l0 -7.53125l-1.09375 0l0 -1.125l1.09375 0l0 -0.78125q0 -1.84375 0.515625 -2.5q0.53125 -0.671875 1.828125 -0.671875l1.75 0.109375l-0.015625 1.078125q-0.96875 -0.03125 -1.609375 -0.03125q-0.625 0 -0.90625 0.421875q-0.265625 0.40625 -0.265625 1.609375l0 0.765625l2.515625 0l0 1.125l-2.515625 0zm9.813965 6.453125l0.5 -0.046875l0.03125 1.015625q-1.96875 0.28125 -3.375 0.28125q-1.875 0 -2.65625 -1.078125q-0.78125 -1.09375 -0.78125 -3.375q0 -4.5625 3.625 -4.5625q1.75 0 2.609375 0.984375q0.875 0.984375 0.875 3.078125l-0.0625 0.984375l-5.71875 0q0 1.4375 0.515625 2.140625q0.515625 0.6875 1.8125 0.6875q1.296875 0 2.625 -0.109375zm-0.46875 -3.75q0 -1.59375 -0.515625 -2.25q-0.5 -0.671875 -1.65625 -0.671875q-1.15625 0 -1.734375 0.703125q-0.578125 0.6875 -0.59375 2.21875l4.5 0zm3.3287964 4.828125l0 -8.65625l1.28125 0l0 1.171875q1.5 -1.046875 3.171875 -1.375l0 1.328125q-0.734375 0.125 -1.53125 0.421875q-0.78125 0.296875 -1.1875 0.53125l-0.4375 0.21875l0 6.359375l-1.296875 0zm11.712769 -1.078125l0.5 -0.046875l0.03125 1.015625q-1.96875 0.28125 -3.375 0.28125q-1.875 0 -2.65625 -1.078125q-0.78125 -1.09375 -0.78125 -3.375q0 -4.5625 3.625 -4.5625q1.75 0 2.609375 0.984375q0.875 0.984375 0.875 3.078125l-0.0625 0.984375l-5.71875 0q0 1.4375 0.515625 2.140625q0.515625 0.6875 1.8125 0.6875q1.296875 0 2.625 -0.109375zm-0.46875 -3.75q0 -1.59375 -0.515625 -2.25q-0.5 -0.671875 -1.65625 -0.671875q-1.15625 0 -1.734375 0.703125q-0.578125 0.6875 -0.59375 2.21875l4.5 0zm4.6256714 4.828125l-1.296875 0l0 -8.65625l1.28125 0l0 0.59375q1.40625 -0.78125 2.6875 -0.78125q1.734375 0 2.328125 0.9375q0.59375 0.9375 0.59375 3.328125l0 4.578125l-1.28125 0l0 -4.546875q0 -1.796875 -0.359375 -2.453125q-0.34375 -0.671875 -1.515625 -0.671875q-0.546875 0 -1.171875 0.171875q-0.609375 0.15625 -0.9375 0.3125l-0.328125 0.15625l0 7.03125zm11.242615 -8.84375q0.578125 0 1.9375 0.21875l0.421875 0.046875l-0.046875 1.0625q-1.390625 -0.15625 -2.046875 -0.15625q-1.46875 0 -2.0 0.703125q-0.53125 0.703125 -0.53125 2.59375q0 1.890625 0.484375 2.640625q0.5 0.75 2.0625 0.75l2.046875 -0.15625l0.046875 1.078125q-1.609375 0.234375 -2.40625 0.234375q-2.03125 0 -2.796875 -1.03125q-0.765625 -1.046875 -0.765625 -3.515625q0 -2.46875 0.828125 -3.46875q0.828125 -1.0 2.765625 -1.0zm10.1073 7.765625l0.5 -0.046875l0.03125 1.015625q-1.96875 0.28125 -3.375 0.28125q-1.875 0 -2.65625 -1.078125q-0.78125 -1.09375 -0.78125 -3.375q0 -4.5625 3.625 -4.5625q1.75 0 2.609375 0.984375q0.875 0.984375 0.875 3.078125l-0.0625 0.984375l-5.71875 0q0 1.4375 0.515625 2.140625q0.515625 0.6875 1.8125 0.6875q1.296875 0 2.625 -0.109375zm-0.46875 -3.75q0 -1.59375 -0.515625 -2.25q-0.5 -0.671875 -1.65625 -0.671875q-1.15625 0 -1.734375 0.703125q-0.578125 0.6875 -0.59375 2.21875l4.5 0z" fill-rule="nonzero"/></g></svg>