<svg xmlns="http://www.w3.org/2000/svg" width="248.23" height="248.23" viewBox="0 0 248.23 248.23"><path d="M2849.374,951.381c-1.042,4.594-2.188,9.448-3.528,14.364s-2.872,9.9-4.686,14.747c-6.179,26.4-32.955,46.245-61.187,38.612-23.2-6.732-45.679-19.851-59.541-39.348a81.447,81.447,0,0,1-8.758-15.765c-15.694-31.331-8.556-77.168,26.214-92.4,36.347-15.657,73.863-20.647,111.647-23.486a61.217,61.217,0,0,1,17.053,3.181c10.565,3.767,18.78,11.172,20.191,24.309,2.763,22.909-13.057,41.089-27.429,57.041A182.625,182.625,0,0,0,2849.374,951.381Z" transform="translate(-2694.304 -810.313)" fill="#00dfe0" opacity="0.5"/><g transform="translate(63.256 79.699)"><path d="M2737.925,915.421a3.022,3.022,0,0,1-3.024-3.024l.005-24.675a3.028,3.028,0,0,1,1.512-2.619l21.368-12.34a3.024,3.024,0,0,1,4.536,2.618l0,24.678a3.023,3.023,0,0,1-1.512,2.618l-21.376,12.34A3.023,3.023,0,0,1,2737.925,915.421Zm3.029-25.952,0,17.691,15.328-8.848,0-17.693Z" transform="translate(-2734.901 -872.357)" fill="#4472db"/><path d="M2759.3,917.368a3.017,3.017,0,0,1-1.512-.406l-21.375-12.339a3.023,3.023,0,0,1,0-5.237l21.375-12.342a3.028,3.028,0,0,1,3.023,0l21.375,12.345a3.023,3.023,0,0,1,0,5.237l-21.375,12.335A3.007,3.007,0,0,1,2759.3,917.368ZM2743.973,902l15.327,8.848,15.328-8.846-15.328-8.852Z" transform="translate(-2734.9 -861.962)" fill="#4472db"/><path d="M2771.673,915.426a3.022,3.022,0,0,1-1.512-.4l-21.375-12.345a3.022,3.022,0,0,1-1.512-2.618l0-24.678a3.023,3.023,0,0,1,4.535-2.618l21.378,12.34a3.028,3.028,0,0,1,1.512,2.619V912.4a3.022,3.022,0,0,1-3.024,3.024Zm-18.351-17.114,15.328,8.853v-17.7l-15.331-8.85Z" transform="translate(-2725.898 -872.357)" fill="#4472db"/></g><g transform="translate(41.885 42.682)"><path d="M2725.556,894a3.022,3.022,0,0,1-3.023-3.024l0-24.675a3.023,3.023,0,0,1,1.512-2.618l21.366-12.342a3.024,3.024,0,0,1,4.536,2.619l.005,24.675a3.019,3.019,0,0,1-1.512,2.618l-21.376,12.342A3.025,3.025,0,0,1,2725.556,894Zm3.029-25.952,0,17.691,15.328-8.85,0-17.691Z" transform="translate(-2722.532 -850.933)" fill="#4472db"/><path d="M2746.933,895.944a3.033,3.033,0,0,1-1.512-.4L2724.044,883.2a3.024,3.024,0,0,1,0-5.237l21.377-12.34a3.028,3.028,0,0,1,3.023,0l21.371,12.345a3.023,3.023,0,0,1,0,5.237l-21.371,12.337A3.023,3.023,0,0,1,2746.933,895.944Zm-15.33-15.365,15.33,8.85,15.324-8.846-15.324-8.852Z" transform="translate(-2722.532 -840.538)" fill="#4472db"/><path d="M2759.3,894a3.027,3.027,0,0,1-1.512-.4l-21.371-12.345a3.019,3.019,0,0,1-1.512-2.618l0-24.675a3.024,3.024,0,0,1,4.536-2.619l21.375,12.342a3.023,3.023,0,0,1,1.512,2.618v24.678A3.022,3.022,0,0,1,2759.3,894Zm-18.348-17.112,15.324,8.85V868.045l-15.328-8.85Z" transform="translate(-2713.529 -850.933)" fill="#4472db"/></g><g transform="translate(41.885 116.716)"><path d="M2725.556,936.847a3.022,3.022,0,0,1-3.023-3.024l0-24.677a3.028,3.028,0,0,1,1.512-2.619l21.368-12.34a3.024,3.024,0,0,1,4.536,2.618l0,24.677a3.023,3.023,0,0,1-1.512,2.619l-21.375,12.342A3.025,3.025,0,0,1,2725.556,936.847Zm3.027-25.954,0,17.693,15.328-8.85,0-17.693Z" transform="translate(-2722.532 -893.781)" fill="#4472db"/><path d="M2746.933,938.794a3.017,3.017,0,0,1-1.512-.406l-21.377-12.34a3.025,3.025,0,0,1,0-5.239l21.377-12.34a3.02,3.02,0,0,1,3.023,0l21.371,12.344a3.025,3.025,0,0,1,0,5.239l-21.371,12.337A3.008,3.008,0,0,1,2746.933,938.794Zm-15.33-15.365,15.33,8.85,15.324-8.846-15.324-8.853Z" transform="translate(-2722.532 -883.387)" fill="#4472db"/><path d="M2759.3,936.85a3.027,3.027,0,0,1-1.512-.4L2736.418,924.1a3.025,3.025,0,0,1-1.512-2.619L2734.9,896.8a3.024,3.024,0,0,1,4.536-2.618l21.376,12.34a3.028,3.028,0,0,1,1.512,2.619v24.68a3.022,3.022,0,0,1-3.024,3.024Zm-18.348-17.114,15.324,8.852V910.893l-15.328-8.85Z" transform="translate(-2713.53 -893.781)" fill="#4472db"/></g><ellipse cx="124.115" cy="124.115" rx="124.115" ry="124.115" fill="none"/><g transform="translate(118.945 96.414)"><path d="M2832.65,977.6a3.017,3.017,0,0,1-2.137-.885L2810,956.2l-7.273,13.3a2.994,2.994,0,0,1-2.917,1.56,3.024,3.024,0,0,1-2.6-2.042l-23.218-68.719a3.025,3.025,0,0,1,3.834-3.834l68.717,23.22a3.024,3.024,0,0,1,.482,5.517l-13.3,7.274,20.511,20.511a3.022,3.022,0,0,1,0,4.276l-19.447,19.445A3.014,3.014,0,0,1,2832.65,977.6Zm-23.365-29.413a3.017,3.017,0,0,1,2.137.886L2832.65,970.3l15.17-15.17L2826.592,933.9a3.022,3.022,0,0,1,.688-4.789l10.792-5.9-56.394-19.054,19.054,56.393,5.9-10.792a3.032,3.032,0,0,1,2.654-1.572Z" transform="translate(-2762.254 -871.636)" fill="#4472db"/><path d="M2782.967,904.007a3.023,3.023,0,0,1-1.612-5.583L2806.7,882.5a3.024,3.024,0,1,1,3.219,5.12l-25.342,15.927A3.01,3.01,0,0,1,2782.967,904.007Z" transform="translate(-2757.809 -882.031)" fill="#4472db"/><path d="M2770.16,941.821a3.026,3.026,0,0,1-3-3.428l3.7-27.357a3.024,3.024,0,0,1,5.994.809l-3.7,27.357A3.026,3.026,0,0,1,2770.16,941.821Z" transform="translate(-2767.131 -862.827)" fill="#4472db"/><path d="M2806.711,900.63H2790.3a3.024,3.024,0,0,1,0-6.047h16.415a3.024,3.024,0,0,1,0,6.047Z" transform="translate(-2752.472 -872.896)" fill="#4472db"/></g><ellipse cx="5.563" cy="5.563" rx="5.563" ry="5.563" transform="translate(118.736 87.185)" fill="#4472db"/><ellipse cx="5.563" cy="5.563" rx="5.563" ry="5.563" transform="translate(136.785 69.135)" fill="#4472db"/><ellipse cx="5.563" cy="5.563" rx="5.563" ry="5.563" transform="translate(150.261 87.185)" fill="#4472db"/><ellipse cx="5.563" cy="5.563" rx="5.563" ry="5.563" transform="translate(188.305 87.185)" fill="#4472db"/><ellipse cx="5.563" cy="5.563" rx="5.563" ry="5.563" transform="translate(187.415 51.213)" fill="#4472db"/><ellipse cx="5.563" cy="5.563" rx="5.563" ry="5.563" transform="translate(106.921 69.135)" fill="#4472db"/><ellipse cx="5.563" cy="5.563" rx="5.563" ry="5.563" transform="translate(144.51 51.239)" fill="#4472db"/><ellipse cx="5.563" cy="5.563" rx="5.563" ry="5.563" transform="translate(162.407 69.135)" fill="#4472db"/><path d="M2771.5,891.809a3.024,3.024,0,0,1-2.138-5.161l18.049-18.049a3.023,3.023,0,0,1,4.277,4.275l-18.049,18.049A3.014,3.014,0,0,1,2771.5,891.809Z" transform="translate(-2647.205 -796.039)" fill="#4472db"/><path d="M2807.476,873.76h-25.525a3.024,3.024,0,0,1,0-6.047h25.525a3.024,3.024,0,0,1,0,6.047Z" transform="translate(-2639.602 -796.039)" fill="#4472db"/><path d="M2804.383,881.363a3.009,3.009,0,0,1-2.137-.886L2784.2,862.428a3.024,3.024,0,0,1,4.277-4.276L2806.52,876.2a3.024,3.024,0,0,1-2.137,5.161Z" transform="translate(-2636.412 -803.642)" fill="#4472db"/></svg>