<svg xmlns="http://www.w3.org/2000/svg" xmlns:xlink="http://www.w3.org/1999/xlink" width="193" height="193" viewBox="0 0 193 193"><defs><filter id="a" x="0" y="0" width="193" height="193" filterUnits="userSpaceOnUse"><feOffset dy="10" input="SourceAlpha"/><feGaussianBlur stdDeviation="7.5" result="b"/><feFlood flood-color="#598ebc" flood-opacity="0.671"/><feComposite operator="in" in2="b"/><feComposite in="SourceGraphic"/></filter></defs><g transform="translate(22.5 12.5)"><g transform="matrix(1, 0, 0, 1, -22.5, -12.5)" filter="url(#a)"><circle cx="74" cy="74" r="74" transform="translate(22.5 12.5)" fill="#fff"/></g><g transform="translate(24 24)"><g transform="translate(51.194 39.1)" opacity="0.49" style="mix-blend-mode:multiply;isolation:isolate"><rect width="39.135" height="29.586" rx="5.063" transform="translate(1.214 1.214)" fill="#00dfe0"/><path d="M2805.209,655.741h-32.09a4.74,4.74,0,0,1-4.746-4.722V628.456a4.741,4.741,0,0,1,4.746-4.727h32.09a4.741,4.741,0,0,1,4.746,4.727v22.563A4.74,4.74,0,0,1,2805.209,655.741Zm-32.09-29.58a2.291,2.291,0,0,0-2.3,2.295v22.563a2.291,2.291,0,0,0,2.3,2.295h32.09a2.3,2.3,0,0,0,2.3-2.295V628.456a2.3,2.3,0,0,0-2.3-2.295Z" transform="translate(-2768.373 -623.729)" fill="#00dfe0"/></g><path d="M2794.043,636.311l9,6.182a1.223,1.223,0,0,1,0,2.051l-9,6.191a1.249,1.249,0,0,1-1.953-1.025V637.331A1.248,1.248,0,0,1,2794.043,636.311Z" transform="translate(-2724.438 -588.415)" fill="#fff"/><path d="M2744.568,667.36a50,50,0,1,1,50-50A50.037,50.037,0,0,1,2744.568,667.36Zm0-99.648a49.651,49.651,0,1,0,49.668,49.648A49.7,49.7,0,0,0,2744.568,567.711Z" transform="translate(-2694.568 -567.36)" fill="none"/><path d="M2792.773,688.014" transform="translate(-2724.658 -604.323)" fill="#4472db"/><g transform="translate(51.194 10.027)"><path d="M2775.684,601.834a1.175,1.175,0,0,1-.859-.361l-6.094-6.074a1.19,1.19,0,0,1-.312-1.172l2.227-8.3a1.215,1.215,0,0,1,2.031-.547l6.074,6.079a1.143,1.143,0,0,1,.313,1.172l-2.207,8.3a1.285,1.285,0,0,1-.859.859A1.758,1.758,0,0,1,2775.684,601.834Zm-4.746-7.656,4.1,4.092,1.5-5.591-4.1-4.1Z" transform="translate(-2768.373 -582.795)" fill="#4472db"/><path d="M2778.338,603.53a1.233,1.233,0,0,1-.859-.352,1.283,1.283,0,0,1-.312-1.172l2.207-8.3a1.264,1.264,0,0,1,.9-.864l8.281-2.222a1.206,1.206,0,0,1,1.172.313,1.249,1.249,0,0,1,.332,1.172l-2.227,8.3a1.223,1.223,0,0,1-.879.859l-8.3,2.227A1.054,1.054,0,0,1,2778.338,603.53Zm3.223-8.521-1.484,5.591,5.586-1.494,1.484-5.6Zm5.1,5.083Z" transform="translate(-2771.053 -584.498)" fill="#4472db"/><path d="M2778.887,592.54a1.257,1.257,0,0,1-.879-.352l-6.074-6.079a1.187,1.187,0,0,1-.312-1.172,1.232,1.232,0,0,1,.859-.854l8.3-2.227a1.21,1.21,0,0,1,1.172.317l6.074,6.069a1.253,1.253,0,0,1,.332,1.172,1.273,1.273,0,0,1-.859.864l-8.32,2.222A1.008,1.008,0,0,1,2778.887,592.54Zm-3.75-6.655,4.082,4.087,5.625-1.494-4.1-4.1Z" transform="translate(-2769.355 -581.815)" fill="#4472db"/></g><path d="M2732.324,633.533a10.222,10.222,0,1,1,10.234-10.22A10.254,10.254,0,0,1,2732.324,633.533Zm0-18.018a7.8,7.8,0,1,0,7.793,7.8A7.79,7.79,0,0,0,2732.324,615.515Z" transform="translate(-2702.998 -581.368)" fill="#4472db"/><path d="M2710.857,675.521a1.219,1.219,0,0,1-1.23-1.216V653.4a8.989,8.989,0,0,1,8.984-8.984h9.258a1.216,1.216,0,0,1,0,2.432h-9.258a6.552,6.552,0,0,0-6.543,6.553v20.908A1.228,1.228,0,0,1,2710.857,675.521Z" transform="translate(-2699.178 -590.965)" fill="#4472db"/><path d="M2758.527,612.6a1.166,1.166,0,0,1-.566-.146,1.214,1.214,0,0,1-.625-1.069v-8.2h-2.617a1.2,1.2,0,0,1-1.211-1.216V576.717a1.2,1.2,0,0,1,1.211-1.216h38.242a1.215,1.215,0,0,1,1.211,1.216v25.254a1.215,1.215,0,0,1-1.211,1.216h-19.414l-14.355,9.219A1.18,1.18,0,0,1,2758.527,612.6Zm-2.617-11.846h2.617a1.222,1.222,0,0,1,1.23,1.216v7.192l12.754-8.213a1.278,1.278,0,0,1,.664-.2h18.555V577.933h-35.82Z" transform="translate(-2712.614 -569.855)" fill="#4472db"/><path d="M2721.381,681.454a1.218,1.218,0,0,1-1.211-1.216V665a1.211,1.211,0,0,1,1.211-1.211,1.228,1.228,0,0,1,1.23,1.211v15.239A1.235,1.235,0,0,1,2721.381,681.454Z" transform="translate(-2702.421 -596.9)" fill="#4472db"/><path d="M2745.051,675.521a1.2,1.2,0,0,1-1.191-1.216V659.066a1.2,1.2,0,0,1,2.266-.571l3.594,6.65a2.646,2.646,0,0,0,3.457,1.133l11.895-8.359a2.259,2.259,0,0,0,.566-3.145l-1.348-1.943-9.434,6.68a1.251,1.251,0,0,1-1.094.166,1.275,1.275,0,0,1-.781-.757l-1.758-5.127c-1.777-5.771-3.926-6.948-6.6-6.948h-9.258a1.216,1.216,0,0,1,0-2.432h9.258c4.395,0,7.051,2.583,8.906,8.623l1.25,3.56,9.121-6.45a1.224,1.224,0,0,1,.918-.21,1.184,1.184,0,0,1,.781.508l2.031,2.954a4.673,4.673,0,0,1-1.172,6.5l-11.953,8.413a.588.588,0,0,1-.156.083,5.084,5.084,0,0,1-6.777-2.1l-1.289-2.407v10.415A1.219,1.219,0,0,1,2745.051,675.521Z" transform="translate(-2706.687 -590.965)" fill="#4472db"/></g></g></svg>