<svg id="AIT_ico_bd_link_doi" xmlns="http://www.w3.org/2000/svg" width="43" height="27" viewBox="0 0 43 27">
  <g id="Rechteck_84" data-name="Rechteck 84" fill="none" stroke="#00dfe0" stroke-width="2">
    <rect width="43" height="27" rx="7" stroke="none"/>
    <rect x="1" y="1" width="41" height="25" rx="6" fill="none"/>
  </g>
  <path id="Pfad_940" data-name="Pfad 940" d="M13.028,18c3.616,0,4.384-2.192,4.384-5.664,0-3.408-.848-5.3-4.384-5.3H9.236V18Zm2.544-5.664c0,2.4-.336,4.1-2.544,4.1H11.012V8.592h2.016C15.236,8.592,15.572,9.936,15.572,12.336Zm7.9,4.288c-2.128,0-2.624-1.312-2.624-4.048,0-2.72.512-4.16,2.624-4.16s2.608,1.44,2.608,4.16C26.084,15.36,25.6,16.624,23.476,16.624Zm0,1.552c3.424,0,4.448-1.872,4.448-5.6,0-3.68-1.024-5.712-4.448-5.712s-4.464,2.048-4.464,5.712C19.012,16.272,20.036,18.176,23.476,18.176ZM29.988,18h1.776V7.04H29.988Z" transform="translate(1 1)" fill="#00dfe0"/>
</svg>
