<svg xmlns="http://www.w3.org/2000/svg" width="249.093" height="249.095" viewBox="0 0 249.093 249.095"><g transform="translate(127.522 97.396)" opacity="0.49" style="mix-blend-mode:multiply;isolation:isolate"><rect width="97.482" height="73.697" rx="5.063" transform="translate(3.023 3.024)" fill="#00dfe0"/><path d="M2860.132,703.475h-79.986a11.784,11.784,0,0,1-11.772-11.772V635.5a11.784,11.784,0,0,1,11.772-11.772h79.986A11.784,11.784,0,0,1,2871.9,635.5v56.2A11.784,11.784,0,0,1,2860.132,703.475Zm-79.986-73.7a5.732,5.732,0,0,0-5.725,5.724v56.2a5.732,5.732,0,0,0,5.725,5.724h79.986a5.732,5.732,0,0,0,5.724-5.724V635.5a5.732,5.732,0,0,0-5.724-5.724Z" transform="translate(-2768.374 -623.729)" fill="#00dfe0"/></g><path d="M2796.932,636.638l22.484,15.416a3.094,3.094,0,0,1,0,5.1l-22.484,15.417a3.093,3.093,0,0,1-4.842-2.55V639.188A3.092,3.092,0,0,1,2796.932,636.638Z" transform="translate(-2623.591 -517.337)" fill="#fff"/><path d="M2819.116,816.455a124.547,124.547,0,1,1,124.546-124.547A124.687,124.687,0,0,1,2819.116,816.455Zm0-248.231A123.683,123.683,0,1,0,2942.8,691.908,123.825,123.825,0,0,0,2819.116,568.224Z" transform="translate(-2694.569 -567.36)" fill="none"/><path d="M2792.773,688.014" transform="translate(-2623.094 -479.546)" fill="#4472db"/><g transform="translate(127.521 24.976)"><path d="M2786.53,626.886a3.018,3.018,0,0,1-2.138-.886l-15.132-15.137a3.015,3.015,0,0,1-.782-2.92l5.536-20.677a3.022,3.022,0,0,1,5.057-1.356l15.139,15.134a3.018,3.018,0,0,1,.783,2.92l-5.543,20.682a3.027,3.027,0,0,1-2.92,2.241Zm-11.762-19.065,10.2,10.2,3.734-13.933-10.2-10.2Z" transform="translate(-2768.374 -579.48)" fill="#4472db"/><path d="M2780.157,622.844a3.027,3.027,0,0,1-2.922-3.806l5.541-20.682a3.032,3.032,0,0,1,2.139-2.137l20.68-5.538a3.024,3.024,0,0,1,3.7,3.7l-5.541,20.677a3.025,3.025,0,0,1-2.137,2.137l-20.682,5.543A3.027,3.027,0,0,1,2780.157,622.844Zm8.01-21.237-3.736,13.937,13.939-3.735,3.733-13.931Zm12.672,12.67h0Z" transform="translate(-2761.999 -575.438)" fill="#4472db"/><path d="M2789.741,608.539a3.02,3.02,0,0,1-2.138-.885l-15.139-15.134a3.024,3.024,0,0,1,1.354-5.059l20.682-5.543a3.023,3.023,0,0,1,2.92.783l15.14,15.139a3.025,3.025,0,0,1-1.355,5.059l-20.682,5.538A3.034,3.034,0,0,1,2789.741,608.539Zm-9.3-16.592,10.2,10.2,13.937-3.73-10.2-10.2Z" transform="translate(-2766.042 -581.815)" fill="#4472db"/></g><path d="M2747.553,664.016a25.464,25.464,0,1,1,25.463-25.464A25.493,25.493,0,0,1,2747.553,664.016Zm0-44.88a19.416,19.416,0,1,0,19.416,19.416A19.438,19.438,0,0,0,2747.553,619.135Z" transform="translate(-2674.539 -534.078)" fill="#4472db"/><path d="M2712.652,721.9a3.022,3.022,0,0,1-3.023-3.024V666.787A22.4,22.4,0,0,1,2732,644.413h23.025a3.024,3.024,0,0,1,0,6.047H2732a16.343,16.343,0,0,0-16.324,16.326v52.089A3.023,3.023,0,0,1,2712.652,721.9Z" transform="translate(-2683.609 -511.279)" fill="#4472db"/><path d="M2766.075,667.9a3.018,3.018,0,0,1-3.024-3.024V644.458h-6.521a3.022,3.022,0,0,1-3.023-3.024v-62.91a3.022,3.022,0,0,1,3.023-3.024H2851.8a3.024,3.024,0,0,1,3.023,3.024v62.91a3.024,3.024,0,0,1-3.023,3.024h-48.367l-35.721,22.964A3.01,3.01,0,0,1,2766.075,667.9Zm-6.521-29.492h6.521a3.022,3.022,0,0,1,3.023,3.024v17.907l31.811-20.45a3.036,3.036,0,0,1,1.636-.48h46.229V581.548h-89.221Z" transform="translate(-2651.673 -561.435)" fill="#4472db"/><path d="M2723.194,707.8a3.023,3.023,0,0,1-3.024-3.024V666.812a3.024,3.024,0,1,1,6.047,0v37.962A3.022,3.022,0,0,1,2723.194,707.8Z" transform="translate(-2675.936 -497.178)" fill="#4472db"/><path d="M2761.337,721.9a3.022,3.022,0,0,1-3.023-3.024V680.913a3.023,3.023,0,0,1,5.686-1.432l8.917,16.578a6.6,6.6,0,0,0,8.639,2.8l29.634-20.815a5.661,5.661,0,0,0,1.4-7.824l-3.347-4.845L2785.7,682.024a3.022,3.022,0,0,1-4.6-1.484l-4.4-12.767c-4.438-14.386-9.8-17.313-16.49-17.313h-23.026a3.024,3.024,0,1,1,0-6.047H2760.2c10.944,0,17.593,6.426,22.239,21.484l3.056,8.864,22.752-16.083a3.021,3.021,0,0,1,4.231.752l5.085,7.359a11.724,11.724,0,0,1-2.9,16.207L2784.85,703.94a2.769,2.769,0,0,1-.349.213,12.679,12.679,0,0,1-16.908-5.228l-3.231-6.008v25.959A3.023,3.023,0,0,1,2761.337,721.9Z" transform="translate(-2665.76 -511.279)" fill="#4472db"/></svg>