<svg xmlns="http://www.w3.org/2000/svg" xmlns:xlink="http://www.w3.org/1999/xlink" width="193" height="193" viewBox="0 0 193 193"><defs><filter id="a" x="0" y="0" width="193" height="193" filterUnits="userSpaceOnUse"><feOffset dy="10" input="SourceAlpha"/><feGaussianBlur stdDeviation="7.5" result="b"/><feFlood flood-color="#598ebc" flood-opacity="0.671"/><feComposite operator="in" in2="b"/><feComposite in="SourceGraphic"/></filter></defs><g transform="translate(22.5 12.5)"><g transform="matrix(1, 0, 0, 1, -22.5, -12.5)" filter="url(#a)"><circle cx="74" cy="74" r="74" transform="translate(22.5 12.5)" fill="#fff"/></g><g transform="translate(16.885 26.241)"><path d="M2729.309,417.9c.391-1.858.8-3.823,1.289-5.815.508-1.99,1.074-4.009,1.758-5.979,2.266-10.684,12.891-18.909,24.316-16.077,9.395,2.512,18.574,7.6,24.316,15.339a31.659,31.659,0,0,1,3.672,6.274c6.582,12.483,4.121,31.006-9.766,37.441-14.512,6.616-29.57,8.948-44.766,10.415a24.727,24.727,0,0,1-6.895-1.135c-4.277-1.426-7.637-4.338-8.34-9.619-1.309-9.2,4.922-16.66,10.547-23.208A70.418,70.418,0,0,0,2729.309,417.9Z" transform="translate(-2691.989 -374.984)" fill="#00dfe0" opacity="0.5"/><g transform="translate(59.415 20.505)"><path d="M2776.895,406.162a1.274,1.274,0,0,1-.645-.186,1.206,1.206,0,0,1-.371-1.68l3.516-5.605a1.212,1.212,0,0,1,2.051,1.294l-3.516,5.605A1.214,1.214,0,0,1,2776.895,406.162Z" transform="translate(-2769.922 -398.121)" fill="#4472db"/><path d="M2774.379,407.192a1.206,1.206,0,0,1-.586-.161l-5.762-3.25a1.218,1.218,0,1,1,1.191-2.124l5.762,3.254a1.237,1.237,0,0,1,.469,1.66A1.224,1.224,0,0,1,2774.379,407.192Z" transform="translate(-2767.406 -399.148)" fill="#4472db"/></g><path d="M2762.17,400.748a1.208,1.208,0,0,1-1.172-.886,16.811,16.811,0,0,0-16.016-12.651A14.841,14.841,0,0,0,2730.2,397.5a1.229,1.229,0,0,1-1.543.791,1.216,1.216,0,0,1-.781-1.531,17.23,17.23,0,0,1,16.836-11.99h.332c8.652.132,15.84,5.791,18.3,14.424a1.227,1.227,0,0,1-.84,1.5A1.214,1.214,0,0,1,2762.17,400.748Z" transform="translate(-2695.957 -373.559)" fill="#4472db"/><ellipse cx="50" cy="50" rx="50" ry="50" transform="translate(0 0)" fill="none"/><g transform="translate(50.838 32.686)"><path d="M2791.211,445.936a1.208,1.208,0,0,1-.859-.361L2778.574,433.8a1.252,1.252,0,0,1-.332-1.177l4.316-16.1a1.243,1.243,0,0,1,2.07-.547l11.758,11.787a1.19,1.19,0,0,1,.313,1.172l-4.316,16.094a1.211,1.211,0,0,1-.859.864A1.238,1.238,0,0,1,2791.211,445.936Zm-10.43-13.364,9.785,9.79,3.594-13.374-9.785-9.795Z" transform="translate(-2762.12 -415.621)" fill="#4472db"/><path d="M2756.3,438.465a1.145,1.145,0,0,1-.84-.361,1.158,1.158,0,0,1-.332-1.172l4.316-16.094a1.246,1.246,0,0,1,.859-.864l16.094-4.312a1.213,1.213,0,0,1,1.484,1.494l-4.3,16.094a1.265,1.265,0,0,1-.879.859l-16.074,4.312A1.413,1.413,0,0,1,2756.3,438.465Zm5.293-16.318-3.555,13.379,13.379-3.584,3.574-13.379Z" transform="translate(-2755.083 -415.621)" fill="#4472db"/><path d="M2768.1,457.271a1.279,1.279,0,0,1-.879-.352l-11.758-11.782a1.174,1.174,0,0,1-.332-1.182,1.205,1.205,0,0,1,.859-.859l16.094-4.307a1.23,1.23,0,0,1,1.191.313l11.758,11.777a1.163,1.163,0,0,1,.332,1.177,1.205,1.205,0,0,1-.859.859l-16.094,4.316A1.242,1.242,0,0,1,2768.1,457.271Zm-9.453-12.368,9.824,9.795,13.379-3.589-9.824-9.79Z" transform="translate(-2755.083 -422.651)" fill="#4472db"/></g><path d="M2712.734,453.82a21.006,21.006,0,1,1,21.016-21.011A21.023,21.023,0,0,1,2712.734,453.82Zm0-39.575a18.567,18.567,0,1,0,18.574,18.564A18.577,18.577,0,0,0,2712.734,414.244Z" transform="translate(-2685 -381.776)" fill="#4472db"/><g transform="translate(14.233 38.319)"><path d="M2728.643,446.063a1.233,1.233,0,0,1-.859-.352l-8.418-8.418a1.242,1.242,0,0,1-.312-1.177l3.066-11.5a1.258,1.258,0,0,1,.9-.859,1.219,1.219,0,0,1,1.172.313l8.418,8.418a1.233,1.233,0,0,1,.293,1.177l-3.086,11.494a1.172,1.172,0,0,1-.859.864A1.054,1.054,0,0,1,2728.643,446.063Zm-7.051-10,6.426,6.426,2.363-8.779-6.445-6.426Z" transform="translate(-2707.517 -423.714)" fill="#4472db"/><path d="M2703.721,440.73a1.171,1.171,0,0,1-.859-.356,1.154,1.154,0,0,1-.312-1.177l3.066-11.5a1.239,1.239,0,0,1,.859-.859l11.5-3.081a1.2,1.2,0,0,1,1.484,1.489l-3.066,11.5a1.239,1.239,0,0,1-.859.859l-11.5,3.081A1.15,1.15,0,0,1,2703.721,440.73Zm4.082-11.724-2.344,8.779,8.75-2.349,2.383-8.784Z" transform="translate(-2702.496 -423.714)" fill="#4472db"/><path d="M2712.139,454.169a1.238,1.238,0,0,1-.859-.356l-8.418-8.423a1.143,1.143,0,0,1-.312-1.172,1.18,1.18,0,0,1,.84-.859l11.5-3.081a1.206,1.206,0,0,1,1.172.313l8.418,8.413a1.172,1.172,0,0,1,.332,1.182,1.275,1.275,0,0,1-.859.859l-11.5,3.081A1.264,1.264,0,0,1,2712.139,454.169Zm-6.074-9,6.445,6.426,8.77-2.354-6.426-6.426Z" transform="translate(-2702.496 -428.737)" fill="#4472db"/></g></g></g></svg>