<svg xmlns="http://www.w3.org/2000/svg" xmlns:xlink="http://www.w3.org/1999/xlink" width="193" height="193" viewBox="0 0 193 193"><defs><filter id="a" x="0" y="0" width="193" height="193" filterUnits="userSpaceOnUse"><feOffset dy="10" input="SourceAlpha"/><feGaussianBlur stdDeviation="7.5" result="b"/><feFlood flood-color="#598ebc" flood-opacity="0.671"/><feComposite operator="in" in2="b"/><feComposite in="SourceGraphic"/></filter></defs><g transform="translate(22.5 12.5)"><g transform="matrix(1, 0, 0, 1, -22.5, -12.5)" filter="url(#a)"><circle cx="74" cy="74" r="74" transform="translate(22.5 12.5)" fill="#fff"/></g><g transform="translate(-406 -2953)"><g transform="translate(430 2973.77)"><path d="M2735.69,215.215c1.624-1.011,3.32-2.068,5.123-3.083,1.775-1.021,3.63-2,5.544-2.869,9.255-5.759,22.536-3.784,28.4,6.433,4.732,8.525,7.386,18.665,5.784,28.169a34.883,34.883,0,0,1-2.012,6.985c-4.434,13.4-19.531,24.421-33.789,18.855-14.824-5.894-26.934-15.159-38.493-25.115a25.393,25.393,0,0,1-3.951-5.762c-1.953-4.084-2.165-8.533,1.172-12.676,5.745-7.314,15.413-7.986,24.068-8.437A70.92,70.92,0,0,0,2735.69,215.215Z" transform="translate(-2698.314 -192.834)" fill="#00dfe0" opacity="0.5"/><path d="M2730.646,249.325c-9.4,0-16.741-3.848-16.741-8.76s7.344-8.757,16.741-8.757c9.414,0,16.775,3.848,16.775,8.757S2740.06,249.325,2730.646,249.325Zm0-15.083c-8.421,0-14.3,3.335-14.3,6.323s5.879,6.323,14.3,6.323c8.454,0,14.336-3.33,14.336-6.323S2739.1,234.242,2730.646,234.242Z" transform="translate(-2702.283 -200.656)" fill="#4472db"/><path d="M2778.584,232.929" transform="translate(-2721.943 -200.997)" fill="none" stroke="#000" stroke-miterlimit="10" stroke-width="3.5"/><path d="M2730.646,262.659c-9.4,0-16.741-3.848-16.741-8.757v-9.509h2.441V253.9c0,2.991,5.879,6.323,14.3,6.323,8.454,0,14.336-3.333,14.336-6.323v-9.509h2.439V253.9C2747.42,258.811,2740.06,262.659,2730.646,262.659Z" transform="translate(-2702.283 -204.481)" fill="#4472db"/><path d="M2730.646,276.322c-9.4,0-16.741-3.845-16.741-8.757v-9.512h2.441v9.512c0,2.988,5.879,6.323,14.3,6.323,8.454,0,14.336-3.335,14.336-6.323v-9.512h2.439v9.512C2747.42,272.477,2740.06,276.322,2730.646,276.322Z" transform="translate(-2702.283 -208.633)" fill="#4472db"/><path d="M2730.646,290.389c-9.4,0-16.741-3.848-16.741-8.76V272.12h2.441v9.509c0,2.991,5.879,6.323,14.3,6.323,8.454,0,14.336-3.333,14.336-6.323V272.12h2.439v9.509C2747.42,286.541,2740.06,290.389,2730.646,290.389Z" transform="translate(-2702.283 -212.91)" fill="#4472db"/><ellipse cx="1.233" cy="1.233" rx="1.233" ry="1.233" transform="translate(38.213 48.767)" fill="#4472db"/><ellipse cx="1.233" cy="1.233" rx="1.233" ry="1.233" transform="translate(38.213 57.979)" fill="#4472db"/><ellipse cx="1.233" cy="1.233" rx="1.233" ry="1.233" transform="translate(38.213 67.736)" fill="#4472db"/><rect width="9.833" height="2.436" transform="translate(51.564 53.833)" fill="#4472db"/><path d="M2782.934,282.915h-7.578V223.37h7.578v2.437H2777.8v54.673h5.137Z" transform="translate(-2720.961 -198.092)" fill="#4472db"/><path d="M2818.554,267h-24.316a2.694,2.694,0,0,1-2.693-2.688v-14.7a2.7,2.7,0,0,1,2.693-2.688H2796l.667-2.876h9.238l.642,2.876h12.012a2.681,2.681,0,0,1,2.678,2.688v14.7A2.68,2.68,0,0,1,2818.554,267Zm-24.316-17.644a.242.242,0,0,0-.251.251v14.7a.244.244,0,0,0,.251.254h24.316a.241.241,0,0,0,.237-.254v-14.7a.239.239,0,0,0-.237-.251h-13.945l-.662-2.878h-5.332l-.667,2.878Z" transform="translate(-2725.871 -204.377)" fill="#4472db"/><rect width="2.437" height="17.767" transform="translate(87.325 43.909) rotate(-6.701)" fill="#4472db"/><g transform="translate(67.218 9.161)"><path d="M2818.66,221.542a1.273,1.273,0,0,1-.879-.356l-7.988-7.982a1.357,1.357,0,0,1-.312-1.177l2.93-10.908a1.226,1.226,0,0,1,2.051-.547l7.969,7.985a1.2,1.2,0,0,1,.315,1.177l-2.913,10.906a1.2,1.2,0,0,1-.879.862A1.048,1.048,0,0,1,2818.66,221.542Zm-6.641-9.564,6.016,5.994,2.188-8.19-6-5.995Z" transform="translate(-2798.536 -200.215)" fill="#4472db"/><path d="M2795.02,216.481a1.3,1.3,0,0,1-.9-.358,1.352,1.352,0,0,1-.31-1.175l2.93-10.906a1.236,1.236,0,0,1,.859-.862l10.918-2.925a1.209,1.209,0,0,1,1.172.316,1.2,1.2,0,0,1,.313,1.177l-2.91,10.908a1.277,1.277,0,0,1-.879.863l-10.921,2.92A.945.945,0,0,1,2795.02,216.481Zm3.906-11.131-2.207,8.19,8.2-2.192,2.207-8.192Z" transform="translate(-2793.777 -200.215)" fill="#4472db"/><path d="M2802.988,229.227a1.322,1.322,0,0,1-.879-.353l-7.991-7.986a1.356,1.356,0,0,1-.31-1.177,1.228,1.228,0,0,1,.879-.861l10.9-2.92a1.234,1.234,0,0,1,1.191.314l7.988,7.983a1.281,1.281,0,0,1,.313,1.175,1.238,1.238,0,0,1-.879.861l-10.9,2.923A1.211,1.211,0,0,1,2802.988,229.227Zm-5.625-8.569,5.979,5.994,8.2-2.2-6.018-5.993Z" transform="translate(-2793.777 -204.978)" fill="#4472db"/></g><path d="M2811.438,313.988h-18.086a1.206,1.206,0,0,1-1.211-1.218V287.247a1.207,1.207,0,0,1,1.211-1.221h12.031a1.3,1.3,0,0,1,.82.3l6.055,5.217a1.262,1.262,0,0,1,.413.92v20.305A1.226,1.226,0,0,1,2811.438,313.988Zm-16.875-2.437h15.664V293.023l-5.273-4.558h-10.391Z" transform="translate(-2726.076 -217.136)" fill="#4472db"/><path d="M2816.695,294.031h-6.055a1.2,1.2,0,0,1-1.189-1.218v-5.566a1.2,1.2,0,0,1,1.189-1.221,1.226,1.226,0,0,1,1.233,1.221V291.6h4.822a1.218,1.218,0,1,1,0,2.436Z" transform="translate(-2731.326 -217.136)" fill="#4472db"/><path d="M2808.532,301.189h-7.015a1.217,1.217,0,0,1,0-2.434h7.015a1.217,1.217,0,1,1,0,2.434Z" transform="translate(-2728.554 -221.005)" fill="#4472db"/><path d="M2808.532,307.627h-7.015a1.217,1.217,0,0,1,0-2.434h7.015a1.217,1.217,0,1,1,0,2.434Z" transform="translate(-2728.554 -222.96)" fill="#4472db"/><path d="M2808.532,314.069h-7.015a1.22,1.22,0,0,1,0-2.439h7.015a1.22,1.22,0,1,1,0,2.439Z" transform="translate(-2728.554 -224.917)" fill="#4472db"/><ellipse cx="50" cy="50" rx="50" ry="50" transform="translate(0 0)" fill="none"/></g></g></g></svg>