<svg id="AIT_ico_bd_link_pdf" xmlns="http://www.w3.org/2000/svg" width="43" height="27" viewBox="0 0 43 27">
  <g id="Gruppe_227" data-name="Gruppe 227" transform="translate(-1265 -1104)">
    <g id="Rechteck_83" data-name="Rechteck 83" transform="translate(1265 1104)" fill="none" stroke="#00dfe0" stroke-width="2">
      <rect width="43" height="27" rx="7" stroke="none"/>
      <rect x="1" y="1" width="41" height="25" rx="6" fill="none"/>
    </g>
    <path id="Pfad_939" data-name="Pfad 939" d="M10.692,14.592c2.5,0,3.728-1.392,3.728-3.872,0-2.464-1.232-3.68-3.728-3.68H6.676V18H8.452V14.592Zm-2.24-1.536V8.576h2.224c1.328,0,1.92.64,1.92,2.144,0,1.52-.592,2.336-1.92,2.336ZM19.924,18c3.616,0,4.384-2.192,4.384-5.664,0-3.408-.848-5.3-4.384-5.3H16.132V18Zm2.544-5.664c0,2.4-.336,4.1-2.544,4.1H17.908V8.592h2.016C22.132,8.592,22.468,9.936,22.468,12.336ZM26.388,18h1.776V13.84H32.34V12.288H28.164v-3.7h5.024V7.04h-6.8Z" transform="translate(1267 1105)" fill="#00dfe0"/>
  </g>
</svg>
