<svg xmlns="http://www.w3.org/2000/svg" width="248.23" height="248.23" viewBox="0 0 248.23 248.23"><path d="M2787.325,228.77c3.986-2.511,8.229-5.133,12.651-7.661s9.031-4.969,13.742-7.115c23.035-14.294,56-9.4,70.569,15.965,11.647,21.166,18.263,46.335,14.278,69.923a81.461,81.461,0,0,1-4.954,17.34c-11.058,33.252-48.517,60.617-83.875,46.8-36.773-14.629-66.831-37.628-95.556-62.338a61.327,61.327,0,0,1-9.809-14.308c-4.807-10.134-5.378-21.18,2.913-31.465,14.245-18.154,38.285-19.822,59.728-20.939A182.572,182.572,0,0,0,2787.325,228.77Z" transform="translate(-2694.542 -163.21)" fill="#00dfe0" opacity="0.5"/><path d="M2755.515,275.292c-23.334,0-41.611-9.55-41.611-21.741s18.277-21.743,41.611-21.743,41.613,9.55,41.613,21.743S2778.849,275.292,2755.515,275.292Zm0-37.437c-20.959,0-35.564,8.271-35.564,15.7s14.6,15.694,35.564,15.694,35.565-8.271,35.565-15.694S2776.475,237.855,2755.515,237.855Z" transform="translate(-2685.061 -154.48)" fill="#4472db"/><path d="M2778.584,232.929" transform="translate(-2637.985 -153.664)" fill="none" stroke="#000" stroke-miterlimit="10" stroke-width="3.5"/><path d="M2755.515,289.739c-23.334,0-41.611-9.551-41.611-21.743v-23.6h6.047V268c0,7.424,14.6,15.7,35.564,15.7s35.565-8.271,35.565-15.7v-23.6h6.047V268C2797.128,280.187,2778.849,289.739,2755.515,289.739Z" transform="translate(-2685.061 -145.321)" fill="#4472db"/><path d="M2755.515,303.4c-23.334,0-41.611-9.55-41.611-21.741V258.053h6.047v23.605c0,7.423,14.6,15.694,35.564,15.694s35.565-8.271,35.565-15.694V258.053h6.047v23.605C2797.128,293.85,2778.849,303.4,2755.515,303.4Z" transform="translate(-2685.061 -135.378)" fill="#4472db"/><path d="M2755.516,317.467c-23.334,0-41.611-9.55-41.611-21.741V272.12h6.047v23.606c0,7.423,14.6,15.694,35.563,15.694s35.564-8.271,35.564-15.694V272.12h6.047v23.606C2797.127,307.917,2778.85,317.467,2755.516,317.467Z" transform="translate(-2685.06 -125.14)" fill="#4472db"/><ellipse cx="3.06" cy="3.06" rx="3.06" ry="3.06" transform="translate(94.855 121.055)" fill="#4472db"/><ellipse cx="3.06" cy="3.06" rx="3.06" ry="3.06" transform="translate(94.855 143.92)" fill="#4472db"/><ellipse cx="3.06" cy="3.06" rx="3.06" ry="3.06" transform="translate(94.855 168.142)" fill="#4472db"/><rect width="24.409" height="6.047" transform="translate(127.996 133.63)" fill="#4472db"/><path d="M2794.156,371.181h-18.8V223.37h18.8v6.047H2781.4V365.134h12.752Z" transform="translate(-2640.335 -160.621)" fill="#4472db"/><path d="M2858.584,301.04H2798.22a6.682,6.682,0,0,1-6.674-6.675v-36.5a6.682,6.682,0,0,1,6.674-6.675h4.375l1.636-7.141h22.928l1.635,7.141h29.789a6.682,6.682,0,0,1,6.675,6.675v36.5A6.682,6.682,0,0,1,2858.584,301.04Zm-60.363-43.8a.628.628,0,0,0-.627.627v36.5a.628.628,0,0,0,.627.627h60.363a.628.628,0,0,0,.627-.627v-36.5a.628.628,0,0,0-.627-.627h-34.608l-1.634-7.141h-13.291l-1.636,7.141Z" transform="translate(-2628.552 -145.571)" fill="#4472db"/><rect width="6.048" height="44.104" transform="translate(216.766 108.995) rotate(-6.701)" fill="#4472db"/><g transform="translate(166.855 22.741)"><path d="M2832.3,253.154a3.025,3.025,0,0,1-2.137-.885l-19.822-19.815a3.021,3.021,0,0,1-.783-2.922l7.257-27.078a3.024,3.024,0,0,1,5.059-1.355l19.813,19.822a3.022,3.022,0,0,1,.785,2.92l-7.252,27.071a3.016,3.016,0,0,1-2.92,2.241Zm-16.449-23.742,14.883,14.878,5.442-20.328L2821.3,209.081Z" transform="translate(-2782.374 -200.215)" fill="#4472db"/><path d="M2796.8,240.591a3.025,3.025,0,0,1-2.92-3.808l7.255-27.071a3.029,3.029,0,0,1,2.137-2.137l27.08-7.257a3.024,3.024,0,0,1,3.7,3.7L2826.8,231.1a3.03,3.03,0,0,1-2.139,2.139l-27.08,7.25A3,3,0,0,1,2796.8,240.591Zm9.724-27.628-5.448,20.328,20.333-5.444,5.449-20.333Z" transform="translate(-2793.781 -200.215)" fill="#4472db"/><path d="M2816.625,249a3.023,3.023,0,0,1-2.137-.885L2794.666,228.3a3.024,3.024,0,0,1,1.356-5.059l27.079-7.25a3.022,3.022,0,0,1,2.918.783l19.822,19.815a3.024,3.024,0,0,1-1.354,5.059l-27.078,7.257A3.027,3.027,0,0,1,2816.625,249Zm-13.98-21.278,14.884,14.883,20.333-5.45-14.883-14.878Z" transform="translate(-2793.781 -188.809)" fill="#4472db"/></g><path d="M2840.087,355.427h-44.923a3.024,3.024,0,0,1-3.023-3.024V289.05a3.024,3.024,0,0,1,3.023-3.024h29.912a3.02,3.02,0,0,1,1.977.736l15.01,12.959a3.024,3.024,0,0,1,1.049,2.288v50.4A3.025,3.025,0,0,1,2840.087,355.427Zm-41.9-6.047h38.876V303.394l-13.112-11.321h-25.764Z" transform="translate(-2628.119 -115.019)" fill="#4472db"/><path d="M2827.487,305.9h-15.011a3.023,3.023,0,0,1-3.023-3.024V289.05a3.024,3.024,0,1,1,6.047,0v10.8h11.987a3.024,3.024,0,1,1,0,6.047Z" transform="translate(-2615.519 -115.019)" fill="#4472db"/><path d="M2820.716,304.8h-17.385a3.024,3.024,0,1,1,0-6.047h17.385a3.024,3.024,0,0,1,0,6.047Z" transform="translate(-2622.175 -105.754)" fill="#4472db"/><path d="M2820.716,311.24h-17.385a3.024,3.024,0,1,1,0-6.047h17.385a3.024,3.024,0,0,1,0,6.047Z" transform="translate(-2622.175 -101.069)" fill="#4472db"/><path d="M2820.716,317.677h-17.385a3.024,3.024,0,1,1,0-6.047h17.385a3.024,3.024,0,0,1,0,6.047Z" transform="translate(-2622.175 -96.384)" fill="#4472db"/><ellipse cx="124.115" cy="124.115" rx="124.115" ry="124.115" fill="none"/></svg>